<?xml version="1.0" standalone="no"?>
<!DOCTYPE svg PUBLIC "-//W3C//DTD SVG 1.1//EN" "http://www.w3.org/Graphics/SVG/1.1/DTD/svg11.dtd" >
<svg xmlns="http://www.w3.org/2000/svg" xmlns:xlink="http://www.w3.org/1999/xlink" version="1.1">
<metadata>
Created by FontForge 20190801 at Mon Jul 26 23:54:23 2021
 By www-data
(c)2021, Graphix Line Studio
</metadata>
<defs>
<font id="HappyHalloween" horiz-adv-x="544" >
  <font-face 
    font-family="HappyHalloween"
    font-weight="400"
    font-stretch="normal"
    units-per-em="1000"
    panose-1="0 0 0 0 0 0 0 0 0 0"
    ascent="800"
    descent="-200"
    x-height="459"
    cap-height="748"
    bbox="-61 -290 974.462 898.786"
    underline-thickness="0"
    underline-position="0"
    unicode-range="U+000A-2122"
  />
<missing-glyph horiz-adv-x="527" 
d="M50 700h427v-700h-427v700zM78 680l185 -309l186 309h-371zM251 350l-180 300v-601zM264 329l-185 -308h370zM276 350l181 -303v605z" />
    <glyph glyph-name=".notdef" horiz-adv-x="527" 
d="M50 700h427v-700h-427v700zM78 680l185 -309l186 309h-371zM251 350l-180 300v-601zM264 329l-185 -308h370zM276 350l181 -303v605z" />
    <glyph glyph-name=".null" horiz-adv-x="0" 
 />
    <glyph glyph-name=".null" horiz-adv-x="0" 
 />
    <glyph glyph-name="nonmarkingreturn" horiz-adv-x="333" 
 />
    <glyph glyph-name="controlLF" unicode="&#xa;" horiz-adv-x="0" 
 />
    <glyph glyph-name="controlCR" unicode="&#xd;" horiz-adv-x="0" 
 />
    <glyph glyph-name="space" unicode=" " horiz-adv-x="292" 
 />
    <glyph glyph-name="exclam" unicode="!" horiz-adv-x="276" 
d="M143 110q20 -2 38 -21q13 -14 16 -28.5t-1 -41.5q-2 -10 -8 -27t-10 -24q-4 -5 -17 -16.5t-19 -14.5q-4 -2 -15.5 -2.5t-16.5 0.5t-17 8t-15 10q-4 4 -10.5 17t-8.5 19q-2 10 -2 29t3 30q5 21 17 39q3 4 5 9q0 6 20 12q18 5 41 2zM286 807q7 -2 5 -10q-4 -6 -10 -11
q-22 -20 -53 -66q-34 -50 -50 -131q-7 -32 -10 -99q-2 -32 -5.5 -73t-5 -67t-3.5 -37q-4 -28 -6 -89q-1 -39 -4 -46q-4 -8 -20 -11q-5 -1 -11 -3q-18 -6 -24 0q-3 5 -4 10q-3 15 3 83q3 36 -3 80q-4 36 -6 97q-3 101 -6 119q-1 9 -1 19l-2 22q-5 25 -8 49q-1 6 -3 11
q-2 3 -2 7q-2 5 -5 10q-7 13 -1 20q4 4 21 6q23 1 45 9q38 13 73 32q3 2 15.5 12t26.5 21.5t21 18.5q10 9 19.5 14t13.5 3z" />
    <glyph glyph-name="quotedbl" unicode="&#x22;" horiz-adv-x="358" 
d="M350 778l2 -4q-4 -7 -9 -14q-21 -31 -28 -44t-25 -51q-16 -36 -26 -64q-11 -27 -17 -35q-8 -10 -21 -14q-14 -3 -29 -5q-4 0 -5 2q-4 3 5 15q7 10 9 14t3.5 8t3.5 15q4 18 6.5 27t5.5 30q4 24 0 48q0 8 -1 21q-2 19 -7 29q-3 5 1 8h9q5 -1 10 0h9q7 -1 14.5 0.5t14.5 1.5
q8 1 14 2q41 10 49.5 11t11.5 -1zM195 769q1 -1 2 -3q-4 -8 -9 -15q-21 -30 -28 -43.5t-25 -51.5q-16 -35 -26 -63q-11 -27 -17 -36q-9 -9 -21 -13q-14 -4 -29 -5q-4 -1 -6 1q-3 4 6 16t11 17t5 20l6 27t5 29q5 24 1 49q-1 7 -2 21q-1 18 -6 28q-3 6 1 8q4 1 9 0h10q4 1 9 0
q7 0 14.5 1.5t14.5 1.5t14 2q41 9 49.5 10.5t11.5 -1.5z" />
    <glyph glyph-name="quotedbl" unicode="&#x201d;" horiz-adv-x="358" 
d="M350 778l2 -4q-4 -7 -9 -14q-21 -31 -28 -44t-25 -51q-16 -36 -26 -64q-11 -27 -17 -35q-8 -10 -21 -14q-14 -3 -29 -5q-4 0 -5 2q-4 3 5 15q7 10 9 14t3.5 8t3.5 15q4 18 6.5 27t5.5 30q4 24 0 48q0 8 -1 21q-2 19 -7 29q-3 5 1 8h9q5 -1 10 0h9q7 -1 14.5 0.5t14.5 1.5
q8 1 14 2q41 10 49.5 11t11.5 -1zM195 769q1 -1 2 -3q-4 -8 -9 -15q-21 -30 -28 -43.5t-25 -51.5q-16 -35 -26 -63q-11 -27 -17 -36q-9 -9 -21 -13q-14 -4 -29 -5q-4 -1 -6 1q-3 4 6 16t11 17t5 20l6 27t5 29q5 24 1 49q-1 7 -2 21q-1 18 -6 28q-3 6 1 8q4 1 9 0h10q4 1 9 0
q7 0 14.5 1.5t14.5 1.5t14 2q41 9 49.5 10.5t11.5 -1.5z" />
    <glyph glyph-name="quotedbl" unicode="&#x201c;" horiz-adv-x="358" 
d="M350 778l2 -4q-4 -7 -9 -14q-21 -31 -28 -44t-25 -51q-16 -36 -26 -64q-11 -27 -17 -35q-8 -10 -21 -14q-14 -3 -29 -5q-4 0 -5 2q-4 3 5 15q7 10 9 14t3.5 8t3.5 15q4 18 6.5 27t5.5 30q4 24 0 48q0 8 -1 21q-2 19 -7 29q-3 5 1 8h9q5 -1 10 0h9q7 -1 14.5 0.5t14.5 1.5
q8 1 14 2q41 10 49.5 11t11.5 -1zM195 769q1 -1 2 -3q-4 -8 -9 -15q-21 -30 -28 -43.5t-25 -51.5q-16 -35 -26 -63q-11 -27 -17 -36q-9 -9 -21 -13q-14 -4 -29 -5q-4 -1 -6 1q-3 4 6 16t11 17t5 20l6 27t5 29q5 24 1 49q-1 7 -2 21q-1 18 -6 28q-3 6 1 8q4 1 9 0h10q4 1 9 0
q7 0 14.5 1.5t14.5 1.5t14 2q41 9 49.5 10.5t11.5 -1.5z" />
    <glyph glyph-name="numbersign" unicode="#" horiz-adv-x="652" 
d="M621 759q5 -6 -7 -14q-27 -16 -50 -38q-24 -23 -24 -30q-1 -5 -3 -9q-3 -6 -6 -25t-3 -28q-2 -25 -8 -49q-3 -12 -6.5 -31.5t-6.5 -32.5q-5 -21 -1 -21q3 1 14 2q14 1 35 6.5t26 10.5q14 10 19 10q3 0 6 -3q5 -5 -5 -22q-10 -16 -11 -21.5t0 -27.5q1 -18 -2 -21
q-6 -6 -20 6q-6 5 -11 11q-2 3 -5 5t-19.5 4t-27.5 2q-9 0 -10 -1.5t-3 -14.5q-1 -12 -3 -24q-32 -139 -32 -158q0 -2 16 -2q31 0 54 5t26 12q1 4 5 5.5t7 0.5q7 -3 5 -19q-3 -22 3 -26q3 -2 2 -7q-1 -11 16 -34q9 -13 4 -18q-4 -4 -9 -1.5t-27 19.5q-25 18 -61 23
q-13 1 -29 3q-8 2 -17 2q-2 -1 -3 -7t-8 -33t-8 -51q0 -13 -2 -26q-1 -2 -6 -30.5t-5 -34.5q0 -7 1 -14q2 -7 26 -14q23 -6 12 -16q-4 -3 -14 -2q-53 4 -83 1q-24 -3 -50.5 -9t-31.5 -11q-6 -6 -14 -1q-6 6 8 21q7 8 15 14q17 9 38 37q9 12 15.5 19t11 22t7 31t6.5 33
q10 49 15 71q0 2 -1.5 2.5t-11.5 1.5q-56 5 -123 -2q-29 -3 -29.5 -3.5t-6.5 -31t-16.5 -79t-11.5 -63.5v-15l6 -7q7 -7 12 -14q6 -7 15 -11q16 -7 20.5 -11.5t1.5 -9.5q-4 -7 -16 -1q-11 5 -20.5 6t-51.5 1q-52 0 -67 -2t-26.5 -3t-15.5 2q-3 2 -4 5q0 8 10 8t19 2
q25 5 36 15.5t19 33.5q11 35 17 71q3 20 7 39t7 33q2 15 3 18l1 4l-16 -4q-21 -5 -39 -16q-12 -8 -22 -13t-16 -9q-12 -7 -17 -2q-2 2 -1.5 6.5t3.5 6.5q7 6 16.5 21.5t10.5 21.5q0 6 2 12q2 9 -2 17t-2 12q1 3 5 4q7 2 38 -6q14 -2 28 -3h19l1 4q1 9 3 18q2 12 3 31
q2 28 9 56q5 23 8 51t4 30q0 2 -4 2l-17 1h-27q-20 -2 -63 -17q-20 -7 -24 -8t-7 1q-7 6 6 20q12 12 16 22.5t3 27.5q0 16 -4 21q-8 9 -4 14q3 4 7.5 4t7 -3.5t10.5 -11.5q6 -6 11 -13q9 -12 16 -13q32 -4 65 -3l13 1l1 8q1 9 6 33q5 23 6 33t4 32q4 23 5 39q2 17 3 24
q5 23 -9 31q-8 5 -48 10q-10 1 -14.5 6t-0.5 11q2 3 17 3q31 -2 45 -9q11 -5 40 -2q10 1 20 4q7 2 14 3q12 2 23 7q10 4 20 7q28 6 33 10q5 5 11.5 6t10.5 -1.5t3 -7.5q-1 -4 -10 -9q-9 -4 -18 -10q-7 -5 -23 -14q-14 -8 -20 -12t-9.5 -8t-7.5 -12q-14 -29 -20 -62
q-4 -22 -7 -36q-3 -15 -5 -31q-1 -18 -4 -35.5t-3 -18.5t87.5 -0.5t88.5 2.5q7 32 11 44q3 13 4 26q2 16 8 43t6 42q0 14 -2.5 20t-11.5 12q-10 8 -22 10q-18 5 -18 13q0 6 5 7t27 0q29 -1 64 8q29 7 53 24q15 10 34 21q15 10 20.5 11.5t8.5 -3.5zM402 305q7 31 13 63.5
t9.5 54t2.5 21.5q-9 0 -65 -2t-65 -3q-16 -2 -30 -2h-15l-1 -4q-1 -4 -6 -37t-9 -49q-8 -38 -12 -77q-2 -20 -3 -25l-1 -5l22 1q21 1 32 2.5t63 0.5h52l3 12q4 13 5.5 23t4.5 26z" />
    <glyph glyph-name="dollar" unicode="$" horiz-adv-x="488" 
d="M438 234q3 -8 1.5 -30t-5.5 -31q-2 -7 -3 -14q-1 -11 -3 -21q-3 -9 -4 -15q-2 -13 -18 -33q-5 -6 -7 -11q-2 -3 -8 -9t-12 -11.5t-7 -5.5t-5 -6q-9 -14 -17 -16q-6 -1 -11 -5q-3 -3 -7 -4q-4 -2 -8 -6q-4 -3 -9 -5q-4 -1 -8 -3q-8 -4 -31 -7l-7 -1v-17q1 -30 7 -60
q4 -21 0 -35q-4 -12 -15 -19q-10 -5 -24 5q-12 8 -13.5 15.5t-1.5 50.5q0 20 0.5 37t0.5 20l1 8l-7 1q-20 1 -38 10q-7 4 -16 7q-7 4 -14 9q-11 8 -18 12q-22 13 -31 25q-3 6 -9 9q-4 2 -14.5 2t-18.5 -2q-12 -3 -16 -1q-7 6 7 21q27 26 35.5 37.5t21.5 36.5q11 21 13.5 25
t7 17.5t5 20.5t7 26t8.5 21q6 4 12 0q2 -3 1 -11q-8 -91 3 -149q3 -20 22 -44q7 -8 17.5 -16t17.5 -9h5v23q0 17 2 33q2 9 1.5 75t2 98.5t2.5 34t-12 8.5q-22 13 -47 34t-33 33q-4 6 -9 11q-11 12 -20 26q-2 5 -5.5 9.5t-5.5 9.5q-9 33 -10 44t-3 23t-1.5 44.5t3.5 40.5
q4 9 6 19q3 11 8 20q14 23 30 43q7 8 12 15q4 6 11 10q6 4 11 9q10 7 20 13q15 7 28 7h14v12q0 24 7 32q4 4 14.5 4t15.5 -5q7 -6 9 -32q0 -8 0.5 -10t1.5 -3.5t4 -3.5q11 -6 45 -18q19 -7 36 -15q10 -6 21 -8l7 -1l17 15q17 15 19 15q7 -1 8 -8q-1 -4 -3 -8q-4 -8 -7 -17
q-11 -29 -21 -113q-9 -67 -12 -77q-1 -5 -7 -5.5t-9 4.5q-3 11 -4 22q-4 37 -16 72q-10 29 -14 36.5t-19 22.5q-8 7 -17.5 15t-17 13.5t-9.5 5.5q-1 0 -1 -28q-1 -59 -9 -117q-3 -26 -3 -53v-30l8 -5q8 -6 36.5 -27t34.5 -25q7 -3 17 -10.5t20 -16t16 -15.5q11 -14 27 -61
q5 -18 9 -36q3 -17 4 -23zM229 625q1 42 0 52q-1 9 -3.5 9t-19.5 -11q-17 -9 -25 -20q-15 -18 -22 -52q-3 -16 -1 -29q1 -10 5 -19q4 -7 9 -17q7 -15 22.5 -31.5t28.5 -23.5l5 -3v1v2.5v3.5v5v6.5v7.5v8v8.5v9.5q0 51 1 93zM362 147q6 22 5 45q-3 29 -11 44q-12 21 -31 35
q-22 15 -31 17q-7 1 -14 4q-4 2 -9 4q-1 0 -1 -55t-1.5 -91t-0.5 -66l1 -29l9 3q8 3 15 8q5 4 12 7q6 2 12 7q7 6 13 11q8 6 13 13q7 9 19 43z" />
    <glyph glyph-name="percent" unicode="%" horiz-adv-x="737" 
d="M148 336q-6 1 -12 4q-9 3 -19 5q-20 4 -33 20q-34 41 -41 103q-2 44 0 89q6 42 19 83q13 46 13 50q0 5 7 12q4 4 9 7l14 8q11 7 17.5 9t28.5 5q19 3 48 -2q27 -5 53 -30q20 -20 24 -32q2 -5 5 -10q4 -6 5 -20q0 -11 3 -22q4 -14 1 -67.5t-9 -83.5q-3 -15 -5.5 -22.5
t-7 -16t-15.5 -27.5q-15 -26 -30 -34q-5 -2 -8 -7t-9 -8q-5 -3 -12 -8q-6 -3 -12 -5q-17 -3 -34 0zM126 478q1 -33 8 -65q3 -12 17 -26q10 -9 13.5 -9t16.5 8q10 6 13.5 10.5t7.5 15.5q9 25 9 120q0 64 -1.5 74.5t-2.5 25.5q-2 21 -10 41q-2 6 -13 11t-23 5l-12 1l-3 -7
q-9 -24 -14 -48q-2 -11 -6 -22q-11 -33 -2 -105q2 -15 2 -30zM692 273q4 -14 1.5 -67.5t-9.5 -83.5q-4 -20 -8 -30t-19 -35.5t-31 -33.5q-4 -3 -8 -8q-3 -4 -8 -8q-6 -3 -13 -7q-6 -4 -12 -6q-17 -2 -34 0l-12 4q-9 3 -19 5q-20 4 -33 20q-34 41 -40 103q-3 45 0 89
q5 43 18 83q14 46 13 50q0 5 7 12q4 5 9 7q8 4 15 9q7 4 11.5 6t11 3.5t23.5 3.5q18 3 47 -2q28 -5 53 -30q20 -20 24 -32q2 -5 5 -10q4 -5 5 -20q0 -11 3 -22zM605 70q10 25 10 120q0 64 -1.5 74.5t-3.5 25.5q-2 21 -10 41q-2 6 -13 11q-10 5 -23 6h-12l-3 -7
q-9 -23 -14 -48q-2 -11 -6 -22q-11 -33 -2 -104q2 -16 2 -31q1 -33 8 -65q4 -12 18 -26q9 -9 12.5 -9t16.5 8q10 7 13.5 11t7.5 15zM472 579q-6 -14 -14 -39t-19 -52.5t-14 -37.5q-17 -47 -20 -50q-1 -1 -2 -3q0 -1 -11 -26q-8 -19 -15 -39q-11 -36 -29 -69q-17 -32 -29 -67
q-6 -19 -39 -104q-31 -77 -31 -88q0 -5 2.5 -7t11.5 -4q19 -5 22 -10q2 -4 -1 -8t-23 -5q-14 -1 -33 -3t-25 0q-12 2 -25 2q-18 0 -26.5 -3.5t-11.5 -9.5t-8 -6q-4 -1 -7 0q-3 2 -4 5q-1 4 4 12q6 10 30 27q11 8 31 38q7 11 22.5 40t19.5 38q3 8 11 29q11 27 25 61
q16 41 26.5 64t19 48t10.5 29q12 23 31 76q4 12 10 25q5 12 10 27q26 63 48 110q12 26 14 36q3 12 8 24q12 31 11 58q0 19 -6 28q-8 14 -3 19q2 3 27 3q26 0 38.5 3t46.5 20q13 6 25 14q8 6 18 10q9 3 13 -6q1 -4 -11 -16q-14 -12 -29 -24q-35 -26 -49 -53q-6 -11 -10 -23
q-8 -23 -19 -44q-4 -9 -8 -19q-6 -14 -13 -30z" />
    <glyph glyph-name="ampersand" unicode="&#x26;" horiz-adv-x="751" 
d="M723 555q4 -8 -10 -17q-26 -17 -63.5 -49.5t-44.5 -45.5q-6 -8 -25 -38q-28 -42 -39 -62q-22 -41 -36 -62q-8 -13 -12 -20.5t-20 -35.5t-22.5 -40t-8.5 -13q-3 -4 15 -29q9 -12 13 -18q3 -6 20.5 -25t27.5 -27q26 -23 48 -29q11 -4 19 -7q15 -5 24 -7.5t19 -4t30 -2.5
q15 -1 19.5 -3t4.5 -8q0 -9 -10 -9q-5 0 -28 -4q-20 -3 -40 -3q-16 0 -32 -4q-13 -4 -47 -5q-23 0 -46 -2q-19 -3 -39 -4q-22 0 -43 -4q-24 -5 -28 -1q-3 2 -3 5.5t3 5.5q9 5 20 8q13 4 25 10q8 4 16 6q12 5 8 10t-7 11q-11 20 -24 38q-16 22 -19 23q-1 0 -13 -11
q-30 -29 -44 -40q-5 -4 -19 -16q-22 -21 -59 -30q-16 -5 -17 -6q-8 -1 -16 -3q-12 -2 -24 0q-9 1 -24.5 2.5t-27.5 8.5l-18 8q-13 5 -21 16q-4 7 -18 22t-18 17q-10 5 -13 18l-4 16q-8 24 -8 72q0 36 3.5 54t6.5 28q4 11 5 22q2 15 13 40q9 22 51 63q28 28 38 35t11 8
q3 2 -10 22q-11 17 -31 73q-14 41 -8 95q4 44 20 76q8 19 23 33q8 10 17 18q19 9 39 16q7 1 13 3q7 4 16 1q8 -1 17 -1q18 0 54 -15q12 -5 16 -8t15 -15q14 -16 21 -32l7 -16l4 -36q4 -36 1 -49q-3 -21 -12 -41q-3 -6 -7 -11q-6 -8 -9 -16q-3 -10 -10 -18q-6 -6 -11 -14
q-4 -6 -9 -11q-14 -11 -26 -23q-6 -6 -13 -9q-3 -1 -5 -4q1 -2 3 -4q2 -4 10 -19.5t16.5 -30t13.5 -24.5q6 -11 12 -20q7 -11 11 -18q5 -8 10 -15q6 -7 11 -15q3 -7 8 -13q4 -4 6 -9t9.5 -16t14.5 -20.5t7 -8.5q5 8 8 16q6 14 14 26q10 17 26 49.5t20 43.5q9 24 4 34
q-10 20 -38 29q-7 2 -14 6q-4 3 -10 4q-6 2 -11 5q-16 7 -11 16q3 3 5 3.5t19 -0.5q23 0 60.5 5t53.5 10q21 8 40 19q26 14 42 21q16 8 33.5 18.5t37.5 21.5q15 8 20.5 9t7.5 -3zM210 588q-2 -15 -0.5 -22.5t9.5 -23.5q7 -12 12 -25q3 -10 8 -18q11 -19 14 -19q4 2 7 4
q19 15 33 34q10 16 16 16q2 0 8 13t7 20q2 8 4 15q3 10 1.5 35.5t-5.5 30.5l-6 16q-6 15 -12 20.5t-22 11.5q-14 5 -29 -3q-10 -5 -19 -17q-8 -9 -14 -20q-8 -21 -10 -43q0 -8 -2 -25zM354 133q4 4 2 6q-25 34 -42 66q-16 29 -37 55q-46 53 -67 95l-4 8l-5 -3
q-15 -7 -29 -31q-21 -37 -24 -55q-1 -6 -3 -17t-2 -34q1 -20 4 -32.5t13 -37.5q17 -40 36 -59q14 -14 22 -16q8 -3 15 -3q5 0 10 -1q6 -2 12 -1q7 1 14 1q17 2 30 12q6 4 12 7q4 1 6 4q3 4 8 6q6 4 15.5 13.5t9.5 10.5q1 4 4 6z" />
    <glyph glyph-name="quotesingle" unicode="'" horiz-adv-x="209" 
d="M195 767q1 -1 2 -3q-4 -8 -9 -14q-21 -31 -28 -44.5t-25 -51.5q-16 -35 -26 -63q-11 -27 -17 -35q-9 -10 -21 -14q-14 -3 -29 -5q-4 -1 -6 1q-3 4 6 16q7 9 9 13t3.5 8.5t3.5 15.5l6 27t5 29q5 25 1 49q-1 7 -1 21q-2 18 -7 28q-3 6 1 8q4 1 9 0h10q4 1 9 1
q7 -1 14.5 0.5t14.5 1.5l14 2q41 9 49.5 10.5t11.5 -1.5z" />
    <glyph glyph-name="quotesingle" unicode="&#x2019;" horiz-adv-x="209" 
d="M195 767q1 -1 2 -3q-4 -8 -9 -14q-21 -31 -28 -44.5t-25 -51.5q-16 -35 -26 -63q-11 -27 -17 -35q-9 -10 -21 -14q-14 -3 -29 -5q-4 -1 -6 1q-3 4 6 16q7 9 9 13t3.5 8.5t3.5 15.5l6 27t5 29q5 25 1 49q-1 7 -1 21q-2 18 -7 28q-3 6 1 8q4 1 9 0h10q4 1 9 1
q7 -1 14.5 0.5t14.5 1.5l14 2q41 9 49.5 10.5t11.5 -1.5z" />
    <glyph glyph-name="quotesingle" unicode="&#x2018;" horiz-adv-x="209" 
d="M195 767q1 -1 2 -3q-4 -8 -9 -14q-21 -31 -28 -44.5t-25 -51.5q-16 -35 -26 -63q-11 -27 -17 -35q-9 -10 -21 -14q-14 -3 -29 -5q-4 -1 -6 1q-3 4 6 16q7 9 9 13t3.5 8.5t3.5 15.5l6 27t5 29q5 25 1 49q-1 7 -1 21q-2 18 -7 28q-3 6 1 8q4 1 9 0h10q4 1 9 1
q7 -1 14.5 0.5t14.5 1.5l14 2q41 9 49.5 10.5t11.5 -1.5z" />
    <glyph glyph-name="parenleft" unicode="(" horiz-adv-x="271" 
d="M153 402q-1 -23 -2 -87q-1 -96 9 -162q8 -47 17 -78q5 -18 9 -36q15 -61 44 -118q10 -20 17 -36q12 -27 21 -36q8 -7 2 -11q-1 -2 -1 -4q-1 -7 -8 -9q-4 1 -8 3t-8 3q-6 2 -12 6q-8 6 -17 9q-8 4 -16 10q-7 7 -16 12q-21 15 -45.5 50t-37.5 70q-16 41 -31 105
q-13 56 -17 114q-6 89 0 155q4 38 15 89q15 64 30 108t52 126q45 100 97 154q29 31 37 22q5 -5 -5 -21q-15 -26 -49 -108q-50 -120 -60 -184q-3 -21 -7.5 -47t-6.5 -51q-1 -24 -3 -48z" />
    <glyph glyph-name="parenright" unicode=")" horiz-adv-x="260" 
d="M206 478q7 -89 0 -155q-3 -39 -15 -89q-14 -65 -29.5 -108.5t-52.5 -125.5q-45 -100 -96 -154q-30 -32 -38 -22q-4 4 6 21q15 26 49 108q50 119 60 184q3 20 7.5 46.5t5.5 50.5q2 26 3 48q2 24 3 87q1 97 -10 162q-7 48 -16 79l-10 36q-15 61 -43 117q-10 21 -18 37
q-11 27 -20 35q-8 7 -3 12q2 2 2 5q1 4 4 6q4 2 11 -1q4 -3 9 -4q6 -2 11 -5q8 -6 17 -9q9 -4 16 -10q8 -7 16 -13q22 -14 46 -49t38 -71q15 -40 30 -104q13 -56 17 -114z" />
    <glyph glyph-name="asterisk" unicode="*" horiz-adv-x="335" 
d="M294 597q6 -13 1 -26q-8 -15 -32 -27q-7 -4 -15 -4q-15 -1 -28 3q-23 4 -33 2q-6 -2 -5.5 -3.5t7.5 -7.5t15 -15q5 -6 12 -12q4 -3 10 -8q5 -4 11 -8q6 -5 13 -11q8 -8 9.5 -13t3.5 -10q9 -18 -9 -40q-6 -7 -11 -8.5t-15 0.5q-17 4 -27 24l-6 10q-5 7 -8 24q-2 11 -6 21
q-12 39 -13 39t-6.5 -11.5t-6.5 -16.5q-2 -7 -4 -16q-4 -22 -11 -43q-8 -25 -25 -38q-4 -4 -9 -4q-4 0 -8 2q-6 3 -12.5 11t-8.5 13q-1 10 0 20q5 15 14 29q17 25 41 44l10 10l6 7l-5 1q-9 2 -17 2q-32 0 -63 9q-20 7 -24 21q-3 8 2 21.5t12 18.5q4 3 13 3q7 0 14 -1
q11 -4 19 -13q2 -3 6 -5q11 -5 25 -23q9 -11 17 -12q8 -2 9 9q3 23 -7 55q-2 6 -5 25q-6 38 -1 51q5 12 16 19q14 5 25 -5q7 -5 9 -30q3 -17 -2 -34l-3.5 -14t-3.5 -13.5t-2 -14.5q-2 -17 -6 -34q-2 -10 0 -10q4 -1 30 17l15 9q8 4 14 10q8 6 15 11q6 3 17 4q7 0 11.5 -0.5
t7.5 -2t5 -4.5t3 -7z" />
    <glyph glyph-name="plus" unicode="+" horiz-adv-x="407" 
d="M367 401q-9 -11 -14 -23q-3 -13 -3 -27q2 -11 6 -17q3 -3 2 -5.5t-3 -3.5t-4 0q-8 4 -37 6q-8 1 -25 3q-11 2 -34.5 3.5t-24.5 0.5l1 -37q1 -36 1 -47q0 -12 2 -23q1 -12 6 -22q9 -17 14 -17t5 -5q0 -4 -3 -5t-14 -2q-14 -1 -24.5 -3t-19.5 -3q-19 -3 -38 -9
q-11 -3 -12 -1q-2 4 5 11q5 4 8 9q2 4 5 7q6 8 9 25q1 7 1 65l-1 58l-17 -1q-58 -2 -89 -8q-23 -4 -26.5 -4.5t-4.5 1.5q-2 4 6 15q3 5 5 10q3 6 3 17q1 8 -1 15q-4 16 -12 31q-2 2 -3 6q1 4 5 5q5 -1 9 -4q6 -4 13 -7q5 -1 17 -5q27 -8 76 -8h20l-1 17q-1 19 0 69
q0 45 -6 53q-4 5 -9 10q-8 6 -8 9q0 4 2 4.5t12 0.5q22 -2 43 6q13 5 15 6q20 12 38 26t22 10t-3 -10q-23 -21 -34 -51q-7 -23 -8 -56q0 -27 -1 -37.5t-2 -26.5q-1 -17 -2 -22v-6h15q14 1 24.5 2.5t29.5 1.5q17 1 34 4q28 5 31 2q6 -4 -1 -13z" />
    <glyph glyph-name="comma" unicode="," horiz-adv-x="254" 
d="M61 -226q-11 0 -14 2q-8 6 3 24q5 8 12 14q10 7 25.5 29.5t26.5 45.5q14 30 13 61q-1 15 -2 21.5t-3 9.5t-7 6q-8 4 -16 7q-35 10 -52 30q-10 12 -12 26q-2 17 6.5 40.5t21.5 37.5q12 11 29 14q5 1 10 4q7 7 30.5 3.5t38.5 -13.5q14 -9 26 -24.5t16 -30.5q3 -9 4 -33
t-1 -38q-2 -12 -8 -35.5t-13.5 -46t-12.5 -32.5q-15 -28 -34 -53q-8 -10 -14 -18q-8 -14 -22 -23q-9 -6 -18 -13q-18 -14 -33 -15z" />
    <glyph glyph-name="hyphen" unicode="-" horiz-adv-x="354" 
d="M324 408q2 -2 2 -4.5t-2 -4.5q-4 -3 -19 -8q-19 -6 -44 -31q-10 -11 -20 -23q-5 -7 -8 -7q-5 0 -7 4q-1 3 -39 7q-30 2 -60 0l-22 -2q-14 -2 -24 -4t-17 -4q-9 -2 -18 -5q-13 -5 -15 -2q-6 6 15 23q8 6 14 13q4 5 10 11q4 5 8 11q2 3 -1 14q-1 3 2 5q3 3 10 -2
q13 -6 28 -8q8 -2 30.5 -1.5t31.5 2t21 2t26 2.5t18 2q6 0 55 8q22 4 25 2z" />
    <glyph glyph-name="period" unicode="." horiz-adv-x="212" 
d="M165 207q11 -14 11 -38q0 -25 -17 -59q-7 -15 -9.5 -18.5t-10.5 -8.5q-25 -16 -35 -16q-8 0 -15 2q-12 4 -38 29q-16 16 -15 41q1 31 8 49q8 20 22 36q8 7 14 9.5t21 3.5q43 2 57 -19q3 -5 7 -11z" />
    <glyph glyph-name="slash" unicode="/" horiz-adv-x="341" 
d="M328 758q5 -5 -6 -22q-15 -23 -17 -28t-5 -9q-9 -15 -14 -32q-2 -7 -5 -13q-5 -11 -8 -21q-14 -54 -17 -75q-3 -13 -6.5 -26.5t-5.5 -27.5q-5 -31 -23 -97q-5 -19 -7 -30q-3 -14 -30 -127q-9 -38 -13 -60q-11 -55 -22 -102q-8 -33 -13.5 -60.5t-6.5 -38.5v-15l6 -7
q9 -11 3 -17q-3 -3 -16 -2t-55 0t-49 -4q-10 -4 -14 0q-6 6 4 24q33 63 33 69q0 1 6 14q7 18 21.5 68t20.5 79q4 22 15 58q12 36 16 53q5 16 11 37q4 15 7 30q2 14 7 27q5 16 12 50q7 33 15 69q17 68 19 78.5t2 33.5q1 41 -6 62q-5 12 0 16q7 6 29 6q20 -1 39 8q11 5 23 10
q14 6 26 14q19 14 24 8z" />
    <glyph glyph-name="zero" unicode="0" horiz-adv-x="478" 
d="M416 518q3 -11 7 -48q5 -44 4 -144q0 -52 -3 -58q-3 -7 -6 -41q-1 -24 -7 -48q-6 -27 -6 -31q-1 -5 -4 -11q-3 -7 -6 -15q-2 -7 -6 -13q-5 -6 -7 -13.5t-6 -13.5q-4 -5 -6 -11q-4 -8 -9 -14q-11 -12 -20 -23q-4 -5 -9 -7q-6 -4 -10 -9q-15 -16 -34 -26q-13 -7 -41 -10
q-18 -2 -36 1q-7 1 -25 9.5t-26 15.5q-37 29 -51 52l-9 12q-11 15 -22 43t-16 53q-13 64 -12 222q1 57 2.5 76.5t8.5 42.5q5 15 11 39q9 39 26 75l11 22q8 19 29 40q6 5 11 12q1 3 13 8.5t23 8.5q19 6 36 12q12 4 25 6q14 2 21 1t32 -8q21 -5 35 -21l21.5 -21.5t16.5 -18.5
q13 -16 19 -36q2 -9 5 -17q5 -14 13 -63q4 -18 7 -30zM331 217l3 10l-4 38q-4 37 -6 69q-2 31 -3 48q-2 16 -3 50q-6 152 -15 172q-2 6 -4 13q-4 10 -15.5 24.5t-23.5 23.5q-13 10 -34 10q-11 1 -19 -4q-7 -5 -13 -12q-8 -12 -18 -46t-12 -58q-7 -59 -7 -158q-1 -181 6 -236
q2 -19 6 -38q13 -36 35 -67q14 -19 29 -22q11 -1 31 4q11 3 17 10t9 15q2 7 5 13q3 7 4 15q2 9 6 17q3 6 5 12q1 5 3 9q2 7 3 14q2 9 4 17q3 8 5 28q3 15 6 29z" />
    <glyph glyph-name="one" unicode="1" horiz-adv-x="385" 
d="M356 1q11 -3 14.5 -9t-1.5 -11q-4 -4 -24 1q-38 8 -127.5 10t-134.5 -5q-26 -4 -33.5 -3t-7.5 8q0 4 3 5.5t17 4.5q26 5 47 21q26 22 31 32q10 18 9 47q-1 109 -3 127q-2 11 1 21q5 25 0 49q-2 13 -2 34t2 31q3 18 2 73t-5 78q-1 8 -3 29q-1 17 -4 33q-4 11 -4 17
q-1 3 -3 6q-6 4 -14 6q-12 3 -45 2.5t-36 2.5t-3 10q0 6 2.5 8t15.5 6q10 4 17 6q11 3 23 4q18 2 35 9q21 7 23 7q8 2 17 5q15 6 50.5 28.5t51.5 36.5q15 13 19 15.5t9 1.5q6 -1 7.5 -5t-3.5 -11q-20 -27 -35 -58q-6 -12 -7 -26q-2 -12 -4 -25q-6 -37 -2 -75q6 -38 3 -103
q-4 -84 3 -120q3 -11 3.5 -109t2.5 -116q3 -34 12 -54q3 -8 5.5 -10t11.5 -7t18 -8q6 -2 21.5 -9.5t24.5 -10.5z" />
    <glyph glyph-name="two" unicode="2" horiz-adv-x="472" 
d="M415 164q12 0 12 -9q0 -3 -13 -43t-18 -50q-4 -10 -10 -28.5t-5 -22.5q3 -8 -7 -16q-9 -6 -26 -3q-15 2 -30 2q-48 0 -132 4q-23 1 -85 -5q-40 -4 -46 -1q-9 5 -10.5 8.5t0.5 20.5l2 20l9 11q8 7 13 16q4 7 9 12q5 6 9.5 12t13.5 16q9 9 16 19q6 9 13 18q13 15 24 32
q16 25 21 32q13 15 31 56q8 17 9.5 19t22 42.5t27.5 65.5q8 25 12 51q5 26 7 35q2 16 2 31q0 19 -1.5 45t-4 46t-4.5 25q-6 12 -18 19q-8 4 -15 9q-9 7 -20 12q-12 6 -23.5 6t-29 -8.5t-30.5 -21.5q-19 -20 -23 -39q-3 -13 -1.5 -35t5.5 -37q8 -25 15 -30.5t25 -1.5
q16 4 21 13q9 16 14 47q3 22 10 22q8 0 8 -12q0 -17 -7.5 -44.5t-15.5 -38.5q-17 -21 -40 -35q-9 -6 -17 -10q-14 -8 -29 -1q-6 4 -18.5 16t-23 26t-12.5 20q-2 12 -3 25q-2 21 1 41q5 51 21 81q12 22 26.5 35.5t40.5 26.5q42 21 79 16q22 -3 42 -10q9 -2 19 -4
q19 -2 33 -7.5t24.5 -15t19.5 -23.5l13 -21q21 -33 25 -51q2 -9 5 -17q7 -16 5 -50q-1 -11 -4 -23q-3 -8 -4 -16q-2 -12 -3 -19l-2 -12q-7 -23 -17 -44q-3 -4 -17 -31q-16 -29 -55.5 -88t-71.5 -101q-16 -21 -23 -31q-16 -24 -60 -76q-9 -12 -6 -12q3 1 18.5 2.5t25.5 4.5
l20 2q8 0 16 1q6 2 55.5 3t58.5 5q4 1 12 6.5t16.5 11.5t12.5 10q15 15 26 32l8 12h7z" />
    <glyph glyph-name="three" unicode="3" horiz-adv-x="478" 
d="M421 318q1 -7 3 -18q7 -35 5 -50q-1 -12 -2 -30q-1 -10 -3 -20l-2 -12q-6 -27 -18 -53q-15 -26 -34 -51q-9 -11 -22 -28q-13 -16 -24 -27.5t-18 -16.5q-11 -5 -23 -9q-16 -5 -24 -8q-5 -2 -23.5 -6t-22.5 -3q-2 0 -7 1q-13 3 -27 7q-6 2 -13 2q-21 0 -68 22q-10 5 -20 8
q-5 -1 -9 -4q-13 -8 -22 -1q-3 3 -4 15q-1 17 14 52q10 24 18 52q36 123 47 128q6 2 10 -3t1 -11q-2 -5 -2 -10q-1 -12 -4 -24q-8 -28 -3 -57q3 -26 27 -63q13 -21 20 -28t18 -12q18 -7 38 -4q15 2 23 3q15 2 20 4.5t12 11.5q11 13 22 50q5 17 6 34q1 19 3 32q7 41 6.5 67.5
t-9.5 68.5q-4 18 -5.5 22.5t-6.5 9.5q-6 6 -13 12q-7 4 -18 4q-11 1 -21 -5q-20 -11 -34 -28q-11 -13 -10 -29q0 -17 -9 -17q-3 0 -5 2.5t-9 15.5q-4 10 -10 18q-7 8 -7 14t9 16q23 26 53 54q20 18 35 40q4 7 13 19q48 66 45 113q-3 40 -37 73q-15 14 -33 15q-22 1 -45 -10
l-15 -8l-13 -19q-19 -28 -19 -46q0 -7 8 -24q7 -13 15 -26q5 -7 7 -8t6 0q18 3 23 11q2 3 4 13t4 21.5t2 17.5q0 9 3 11q2 3 5.5 2.5t5.5 -2.5q3 -3 3 -15t-5 -36.5t-9 -35.5q-15 -37 -32 -46q-7 -4 -24 -5q-35 -1 -60 23q-7 7 -12 15l-10 16q-21 30 -19 58q2 27 25 72
q18 36 33 48.5t52 22.5q22 6 69 8q27 1 38.5 -2.5t48.5 -22.5q30 -15 42.5 -26t20.5 -28q13 -28 13 -69q0 -62 -25 -95q-24 -31 -57 -53l-7 -4l8 -5q43 -22 59 -49q4 -7 8 -12q19 -25 23 -50z" />
    <glyph glyph-name="four" unicode="4" horiz-adv-x="494" 
d="M443 23q17 -12 20 -16.5t-3 -11.5q-3 -4 -8 -4q-4 0 -10 1q-10 1 -20 3q-12 3 -31 1q-18 -3 -36 -2t-37 3q-21 1 -37 3q-39 6 -55 5q-15 -1 -59.5 -2t-47.5 2q-5 4 -2 10t10 6q8 1 15 4q11 5 22 7q8 1 15 4q8 4 17 5q32 6 39 24q7 21 11 43q5 32 5 99q-1 20 -2 20
q-3 -1 -16 -4q-15 -4 -31 -3q-19 1 -54 -4q-31 -5 -40 -3q-16 2 -31 2q-24 1 -31 5q-7 3 -9 7.5t-3 17.5q-1 29 11 54q9 16 13 22q28 42 57 92q10 17 18.5 30.5t15.5 25.5q6 10 14 22q7 12 11 19t20 31q13 19 24 40q13 27 44 76q21 34 27 54q1 6 5 7.5t20 3.5q38 4 41 -20
q2 -11 1 -53.5t-3 -52.5q-3 -12 -4 -25q-1 -17 -2 -149.5t1 -133.5q1 -1 2.5 0t4 3.5t4.5 6t4.5 8t4.5 9.5q13 33 20 38q3 1 7 -1q7 -4 0 -35q-8 -35 -6 -67q1 -22 0 -44q-1 -23 -1 -25q0 -5 -6 -7t-10 2q-2 3 -3.5 17.5t-3.5 21.5q-1 6 -5.5 12.5t-7.5 8.5q-5 1 -5 -5
q-1 -6 -2 -34q-1 -63 4 -95q5 -26 14 -38q5 -8 40 -21q20 -8 40 -20zM247 306q2 19 2.5 126t-0.5 113l-2 5l-6 -9q-13 -18 -49 -82q-30 -51 -57 -92q-18 -28 -26.5 -43.5t-15.5 -26.5q-4 -6 -7 -12q0 -3 12 -4q6 0 12 -2q15 -5 49 2l16 2q6 0 11 2q12 5 47 1q6 -1 12 -1
q0 1 2 21z" />
    <glyph glyph-name="five" unicode="5" horiz-adv-x="482" 
d="M428 328q1 -10 4.5 -20t3.5 -45q-1 -53 -11 -84q-3 -10 -8 -32q-7 -30 -21 -49q-11 -16 -24 -36q-5 -9 -19 -22t-24 -18q-8 -5 -20 -12q-11 -6 -22 -10q-12 -4 -36 -4q-14 0 -28 2q-18 2 -36 1q-35 0 -47.5 4t-29.5 18q-21 19 -30.5 23t-22.5 -1q-19 -7 -19 5q0 5 9 11
q23 15 43 46q13 22 25 57q12 37 14 59q2 14 3 22q2 6 2 13q-1 7 4 11q7 8 12 2q5 -4 1 -23q-7 -33 -7 -92q0 -29 8 -57q2 -7 3 -10t3 -7t4 -6.5t7 -7.5q9 -10 21 -16q10 -6 23 -5q11 0 25.5 1.5t23.5 7.5q22 15 30 26q3 5 10.5 25.5t10.5 32.5q4 20 7 132l1 74l-4 17
q-10 36 -24 48q-37 31 -55 31q-6 0 -20.5 -4.5t-20.5 -8.5q-17 -10 -32 -40q-5 -11 -9 -22q-2 -8 -17 -9q-10 -1 -20 2q-9 3 -11.5 6.5t-2.5 14.5q0 10 2 20q1 7 4 33q4 25 3 81q-4 184 -6 192q-3 14 6 17q5 2 10 -2q9 -3 17 -4q13 -2 25 -6q14 -3 56 -5t71 -2t46 4
q14 3 27 9q15 7 21.5 1t1.5 -18q-10 -23 -12 -48q-2 -15 -4 -25.5t-4 -27.5q-3 -36 -4.5 -42.5t-7.5 -6.5t-7.5 4t-3.5 19q-5 40 -25 57q-14 11 -24.5 14t-45.5 5q-31 2 -47 -3q-10 -1 -20 -1h-3q-15 0 -17 -7q-1 -5 -3 -24v-5q-2 -30 -2 -65.5t-1.5 -63.5t-1 -32t5.5 2l2 3
q19 21 44 34q23 12 49 10q49 -3 81 -25q18 -12 37 -33t27 -37q21 -42 26 -73z" />
    <glyph glyph-name="six" unicode="6" horiz-adv-x="473" 
d="M409 355q8 -23 14 -101q2 -42 -3 -84q-1 -8 -5 -22t-9 -27.5t-8 -20.5q-6 -12 -9 -19q-9 -20 -41.5 -49.5t-56.5 -38.5q-18 -7 -48 -8q-18 -1 -27 2.5t-19 6.5q-20 6 -32 21q-7 9 -16 16q-7 5 -19 17.5t-18 22.5q-5 8 -9 14q-6 7 -19 31t-23 71q-5 18 -7 35t-3 30
q-2 13 -3 68t1 56t2 12q0 16 3 31q2 17 7 40t10 42t7 24q2 4 7 16q31 88 79 135q21 20 41 31q9 4 21 11q7 4 15 6q4 1 8 3q15 9 37 5q20 -4 40.5 -17t29.5 -29t17 -18t13 13q2 5 6 11.5t8 11t7 6.5t7 0q5 -3 4.5 -8.5t-6.5 -23.5q-10 -29 -16 -66q-3 -24 -6 -38t-5 -33
q-3 -30 -8 -32q-4 -3 -7.5 -0.5t-4 16t-2.5 33t-2 29.5q0 8 -2 15q-1 5 -1 9q0 10 -24 41q-9 12 -16 22q-9 11 -14.5 13.5t-18.5 2.5q-24 1 -40 -14q-9 -8 -18.5 -21t-9.5 -18q0 -1 -9 -23q-21 -45 -28 -101q-3 -21 -8 -51l-4 -28l8 6q6 4 13 7q7 2 13 5q7 3 24 6.5t23 3.5
q6 -1 12 1q8 2 17 2q30 0 78 -43q23 -21 30 -31t13 -19q6 -8 10 -17zM301 99q7 41 9 64.5t1 78.5q-1 69 -7 102q-4 18 -19 41q-9 12 -21 21q-11 7 -24 8q-6 0 -12 1q-5 2 -10 0l-10 -5q-14 -8 -23 -21q-2 -4 -2.5 -8.5t-3.5 -7.5q-5 -6 -13 -47q-18 -88 -8 -153
q10 -71 20 -92q3 -7 16 -23.5t17 -18.5q11 -5 24 -9q5 2 10 5q9 4 13.5 7.5t13.5 8.5q11 7 20 21q5 9 9 27z" />
    <glyph glyph-name="seven" unicode="7" horiz-adv-x="456" 
d="M383 705q24 -4 33 -15l4 -5l-2 -19q-2 -22 -13 -57q-8 -23 -13 -46q-1 -8 -10 -35q-6 -17 -10 -35q-2 -10 -5 -19q-3 -10 -5 -20q-4 -13 -9 -25q-12 -32 -33 -112q-15 -58 -25 -86q-38 -101 -42 -164q-1 -16 1 -22t9 -12t11.5 -14t3.5 -12q-2 -7 -19 -4q-36 6 -89 0
q-38 -2 -76 -12q-23 -6 -24 -6q-2 1 -4 3t-1.5 7t3.5 8q10 6 20 11q35 18 52 35q6 6 9.5 15t15.5 46q17 53 27 74q7 14 18 44q12 30 22 52q21 48 35 98q4 16 10 31q6 12 9 25q6 19 29 67q14 29 18 40q8 23 13 47q0 4 -43 4q-31 -1 -62 1q-33 2 -87 -3q-16 -1 -28 -7
q-11 -6 -18 -11.5t-14 -13.5t-16 -23q-17 -24 -21 -33q-3 -6 -7 -10q-4 -1 -7 -0.5t-4.5 3.5t-1.5 7q0 5 4.5 22.5t6.5 24.5q2 5 7 23q4 16 9 30q4 12 7 24q3 16 9 32q15 37 14 54q0 10 3 15q3 3 7 5q3 1 7.5 -2t6.5 -6q3 -8 19 -14q28 -12 84 -5q43 5 70 0q26 -4 53 0
q18 3 39 0z" />
    <glyph glyph-name="eight" unicode="8" horiz-adv-x="486" 
d="M433.5 250.5q2.5 -8.5 4.5 -35.5t-2 -49q-3 -21 -4 -32q-5 -26 -14 -51q-13 -24 -30 -45q-6 -6 -13.5 -10t-12.5 -11q-12 -16 -26 -20q-10 -3 -20 -5q-25 -7 -82 -4q-36 2 -48 8q-9 4 -19 6q-34 7 -76 63q-10 14 -21 44q-7 18 -9 23q-5 12 -8 25q-5 20 -5 47
q0 32 4.5 52.5t17.5 44.5q28 53 62 69q5 2 11 6t10 7t4 4q-4 6 -10 11q-18 17 -24 25q-4 5 -17 20q-17 17 -24 33t-12 48q-3 14 -6 24q-6 24 3 57q13 46 39 76q14 16 22.5 22t23.5 11q8 4 15 9q11 7 24.5 8.5t52.5 1.5l43 -1l16 -5q47 -16 70 -61l8 -14q5 -7 19 -39
q4 -12 6 -24q3 -15 2 -37t-1 -43v-21l-8 -13q-6 -9 -11 -20q-8 -18 -23 -31q-21 -18 -45 -32q-11 -6 -10 -7q1 -2 32 -16q10 -4 18 -10q9 -6 26 -23t19.5 -22.5t6.5 -10.5q12 -16 17 -35q2 -9 4.5 -17.5zM168 607q-3 -13 -4.5 -46t0.5 -43q2 -9 4 -25q2 -28 16 -52
q3 -5 4.5 -7t5 -5t7 -5.5l10.5 -7.5q11 -6 15.5 -7t17.5 1q7 1 15 2q1 1 15 5q13 4 20 14t15 35q13 43 7 88q-5 46 -7.5 57.5t-9.5 26.5q-8 17 -19 28t-17.5 13.5t-21.5 2.5q-16 0 -25 -5q-15 -7 -29 -27.5t-19 -42.5zM320 113q20 53 13 118q-2 14 -12.5 43t-21.5 49
q-8 13 -11 16t-13 10q-11 7 -27 8q-24 2 -39 -7q-5 -3 -10 -5q-3 -2 -11 -12.5t-13 -20.5q-8 -14 -14 -57q-3 -16 -3 -57t2 -60q4 -37 11 -56q4 -11 13.5 -23t15.5 -15q5 -2 33.5 -1.5t34.5 4t10 7.5q3 2 6 3q2 0 7 6.5t10.5 15.5t10.5 18.5t8 15.5z" />
    <glyph glyph-name="nine" unicode="9" horiz-adv-x="501" 
d="M448 523q4 -14 4 -73q0 -101 -4 -120q-3 -13 -4 -27q-1 -12 -4 -23q-2 -7 -8 -37q-7 -42 -14 -57q-4 -9 -12 -34q-12 -33 -23 -50q-8 -12 -20 -25.5t-24.5 -25.5t-22.5 -19q-6 -4 -21 -16q-22 -18 -44 -25q-15 -5 -39.5 -5.5t-46.5 5.5q-24 6 -42 17q-7 5 -15 9
q-6 3 -50 7q-16 1 -16 8q0 5 11 12q5 3 8 7q6 8 13 15q12 13 17 19q16 22 27 47q17 36 30 85q4 17 9 18q4 1 7 -1q6 -4 1 -23q-5 -18 -4 -48t7 -48q13 -37 31 -50q16 -12 40 -12q11 -1 15.5 0.5t11.5 7.5t24 40.5t23 56.5q9 31 14 63q0 7 1.5 21.5t2 26.5l0.5 12
q-7 -3 -13 -8q-30 -21 -39 -23q-9 -3 -17 -6t-31 -3q-16 0 -31 2q-16 4 -37 17t-33 27q-24 29 -36 69q-18 62 -20 90q-3 35 6 97q5 36 18 70q7 16 24 40t30 35q24 22 65 37l15 6h27h27l23 -8q16 -5 31 -13q9 -5 14 -7q30 -17 66 -89q22 -46 24 -67zM345 453q1 14 0.5 55
t-2.5 49q-9 43 -18 67q-7 18 -19 32.5t-25 21.5t-24 4q-13 -4 -30 -21q-13 -13 -23 -44q-11 -37 -14.5 -73.5t-2.5 -101.5q1 -50 6 -69q11 -45 29 -58q20 -16 42 -9q5 2 9 5q3 2 6 3q8 0 26 19q6 7 13 13q4 2 16 40q6 20 11 67z" />
    <glyph glyph-name="colon" unicode=":" horiz-adv-x="245" 
d="M197 165q8 -23 1 -50q-4 -16 -6.5 -21.5t-10.5 -17.5q-13 -16 -19.5 -20.5t-27.5 -10.5q-12 -4 -24 -1q-12 4 -23 10q-19 9 -27 18.5t-13 31.5q-9 36 8 77q11 27 27 42q12 10 18 10t10 -3.5t24 -4.5q18 0 25 -2.5t14 -11.5q14 -15 24 -46zM63 394q-5 8 -10 32q-6 30 0 51
q7 23 20.5 40.5t26.5 19.5q6 1 12 4q8 5 23 -1q8 -3 16 -5q6 -1 11 -3q2 -2 12 -8q13 -8 19 -22q3 -7 3 -27t-5 -34q-11 -32 -25 -50q-6 -7 -13 -12l-10 -8h-22q-22 0 -28 2t-16.5 9.5t-13.5 11.5z" />
    <glyph glyph-name="semicolon" unicode=";" horiz-adv-x="269" 
d="M220.5 170.5q2.5 -9.5 3.5 -33.5t-1 -38q-2 -12 -8 -35.5t-13.5 -46t-12.5 -32.5q-15 -28 -34 -53q-8 -10 -14 -18q-8 -14 -22 -23q-9 -6 -18 -13q-18 -14 -33 -15q-11 0 -14 2q-8 6 3 24q6 8 12 14q10 7 25.5 29.5t26.5 45.5q14 30 13 61q-1 21 -3 27t-9 10q-8 4 -16 7
q-35 10 -52 30q-10 12 -12 26q-2 17 6.5 40.5t21.5 37.5q12 11 29 14q5 1 10 4q7 6 30.5 3t38.5 -13q9 -6 18 -15t15.5 -19.5t9 -20zM86 391q-17 18 -22 36q-7 24 5 52q18 45 36 54q13 7 36 4q13 0 26 -4q4 -2 10 -6.5t11 -11t9 -11.5q4 -8 4 -21q0 -18 -10 -53
q-11 -43 -27 -51q-24 -13 -50 -7q-12 3 -28 19z" />
    <glyph glyph-name="less" unicode="&#x3c;" horiz-adv-x="414" 
d="M136 364q-24 -11 -24 -15q4 -2 9 -4q14 -6 27 -14q9 -5 19 -10q10 -4 19 -10q24 -14 49 -26q24 -11 46 -24q20 -12 32 -13q23 -2 25 -1q4 4 6 8q4 7 6 7q6 1 7 -4q-1 -4 -3 -8q-6 -14 -6 -42q0 -41 6 -60q1 -5 1 -10q1 -10 -5 -10q-3 -1 -4 3q-2 2 -4 9q-5 12 -13 22
l-6 4q-5 3 -11 7q-9 6 -18 11q-23 11 -44 26q-15 10 -32 17q-17 8 -50 25t-42 20.5t-18.5 8.5t-18.5 9t-26.5 15.5t-21.5 17.5q-6 10 -7 21q0 13 3 26q5 11 15 17q4 1 11 5q12 6 38 16q23 10 44 22q5 3 12 7q24 12 41 23q7 4 37 19q47 24 64 35q19 11 29 21q9 8 16 13
q5 4 10 10q7 9 12 9q4 0 6 -2q3 -5 -7 -18l-10 -16q-12 -25 -22 -51l-4 -14v-23q0 -23 -3 -24q-4 -4 -8 4q-3 7 -10 11.5t-13 4.5q-14 0 -49 -18q-27 -14 -43 -20l-20 -10q-7 -5 -14.5 -9t-14.5 -8z" />
    <glyph glyph-name="equal" unicode="=" horiz-adv-x="455" 
d="M50 427q-5 -7 -9 -2q-2 1 -2 3q0 4 9 16q6 9 11 19l6 12v11q0 8 -2 17t-16 28q-5 7 0 11q4 4 10 -2q13 -14 30 -22q9 -4 45 -8q18 -3 53 -3.5t46 1.5q8 1 38 2q37 0 55 3q13 2 29.5 4.5t27.5 4.5q7 2 13 3q10 0 2 -14q-9 -17 2 -41q5 -10 6 -11q3 -5 6 -9q7 -7 4 -11
q-2 -5 -11 1q-10 6 -49 15q-28 7 -70 11q-54 3 -109 0l-26 -2q-32 -3 -62 -14q-17 -7 -32 -18q-3 -2 -5 -5zM412 364q7 -3 -4 -21q-9 -16 -11 -50q-1 -12 5 -28q4 -11 0 -14q-3 0 -5 1t-3 3q-3 5 -55 15q-32 7 -87 6q-83 0 -114 -8q-10 -3 -18.5 -5t-16.5 -5
q-9 -3 -24.5 -8.5t-18.5 -8.5q-5 -6 -10 -2q-3 4 3 15q8 13 10 29q2 10 1 21q-1 15 -10 29q-5 7 -7 14q-2 4 0 6q2 3 6 2q11 -3 19 -11q7 -8 52 -18q19 -4 46 -5q62 -2 80 2q5 1 26 4q15 1 29 4q7 2 31 7q31 8 41 11q21 7 23 10q3 3 6 4q4 2 6 1z" />
    <glyph glyph-name="greater" unicode="&#x3e;" horiz-adv-x="414" 
d="M379 352q1 -13 -3 -26q-4 -11 -15 -17q-4 -1 -11 -5q-11 -6 -37 -16q-23 -10 -45 -22q-5 -3 -12 -7q-23 -12 -41 -23q-6 -4 -37 -19q-47 -24 -64 -34q-18 -12 -29 -22q-9 -8 -15 -13q-5 -4 -10 -10q-8 -9 -13 -9q-3 0 -5 2q-3 5 6 18q6 8 10 16q13 25 22 51l5 14v23
q0 23 2 25q5 3 9 -5q3 -7 9.5 -11.5t12.5 -4.5q14 0 49 18q28 14 43 21q11 4 20 10q7 4 15 8t15 8q8 5 17 10q25 11 25 15q-5 3 -9 4q-15 6 -28 14l-18 10q-10 4 -20 10q-24 14 -49 26q-23 11 -45 24q-20 12 -32 13q-24 2 -26 1q-3 -4 -5 -8q-4 -7 -7 -7q-5 -1 -6 4l2 8
q6 14 6 42q0 10 -2 33t-3 27q-1 6 -2 11q0 6 1 8t5 1q3 0 6 -8q10 -24 20 -29q4 -3 11 -8q9 -6 19 -11q22 -11 44 -26q15 -10 31 -17q17 -8 50 -25q34 -17 43 -20.5t18.5 -8.5t17.5 -9q10 -4 27 -15.5t21 -17.5q6 -10 7 -21z" />
    <glyph glyph-name="question" unicode="?" horiz-adv-x="430" 
d="M181 109q13 0 28 -24q22 -34 2 -82q-10 -25 -22.5 -35.5t-31.5 -11.5q-13 0 -19 3q-5 2 -14.5 12t-14.5 19q-9 15 -9 42q0 45 23 70q15 14 31 14q9 1 16 -3q5 -3 11 -4zM384 680q9 -26 8 -48q-3 -59 -9 -86q-6 -20 -8 -33q-5 -27 -26 -67q-23 -45 -62 -88
q-28 -31 -39 -41q-25 -27 -40 -69q-4 -12 -7 -18q-10 -23 -4 -87q1 -11 -3 -14q-5 -3 -9 0q-7 7 -12 15q-10 15 -24 21q-6 3 -6.5 11t4.5 40q6 46 14 68.5t29 53.5q21 32 46 61l20 24q17 28 29 60l6 16v27q0 26 -6 56q-8 46 -19 67q-14 32 -49 37q-12 2 -31 -3q-7 -2 -17 -4
q-26 -6 -39 -32q-4 -8 -14 -37t-10 -33q1 -5 3 -10q2 -3 10 -11t16.5 -15.5t10.5 -7.5q8 -2 31 22q10 10 17 27q13 31 17 35q4 2 7 1t5 -5q2 -3 -2 -10q-2 -5 -3 -11q-2 -10 -5 -19q-5 -17 -10 -39q-6 -24 -9.5 -31.5t-11.5 -14.5q-12 -12 -28 -18q-27 -9 -41 -2
q-15 8 -36 33t-32 48q-5 11 -5 27q1 15 7 44.5t11 43.5q15 43 28 56q12 11 40 25.5t43 16.5q13 2 25 6q16 5 33 7q18 1 36 3q46 4 71 -18q16 -14 29 -31q11 -16 21 -49z" />
    <glyph glyph-name="at" unicode="@" horiz-adv-x="616" 
d="M572 249q3 -3 0 -8q-2 -3 -4 -6.5t-4 -6.5q-3 -4 -4 -8q-3 -6 -6 -11q-5 -9 -8 -18q-5 -10 -12 -25q-6 -15 -18 -27q-11 -12 -16 -15q-5 -4 -8 -9q-5 -9 -14 -14q-7 -4 -12 -10q-9 -11 -23 -14q-11 -2 -19 -9q-7 -5 -18 -9q-9 -4 -17 -8q-11 -7 -27 -10q-8 -2 -16 -5
q-9 -4 -40 -4q-14 0 -27 -3q-20 -5 -39 0q-10 1 -20 2.5t-24 9.5q-11 4 -20 11q-9 8 -18 14q-10 5 -17 13q-4 5 -16 17q-11 11 -15 18.5t-10 17.5q-6 9 -10 16t-7 13q-5 7 -7 16q-3 9 -7 18q-5 10 -6 21q-2 9 -6 18q-3 9 -5 17q-2 11 -4 20t-2 66q1 57 2.5 73t9.5 44
q6 18 21.5 49t18.5 39q6 15 24 35q24 27 34 33q22 14 41 30q8 9 20 12q8 3 21 9q21 9 36 11q8 1 16 3q5 1 25.5 1t26.5 -1t18 -2q24 -2 33 -6q7 -3 14 -5q11 -2 19 -8q3 -3 7 -4l8 -6q11 -10 24 -18q4 -3 7 -6q5 -3 9 -7q6 -4 10 -9t7 -10q4 -4 6 -9q2 -7 6 -12
q10 -14 14 -31q2 -7 5 -15l4 -10q1 -4 3 -8q2 -3 2.5 -34t-1.5 -44q-1 -10 -1 -20q0 -19 -11.5 -59t-23.5 -64q-11 -22 -27 -40q-5 -5 -8 -11q-5 -9 -13 -15q-6 -4 -12 -9q-5 -6 -12 -8q-6 -2 -18 -7q-6 -4 -13 -6q-4 -1 -9 -3l-8 -3l-14 1q-29 2 -40 7q-18 8 -26 25
q-7 15 -5 33q1 12 1 16l1 4l-3 -3q-4 -4 -8 -10q-5 -7 -10 -13q-6 -6 -10 -13q-4 -6 -9 -11q-5 -3 -8 -8q-4 -6 -10 -11q-7 -7 -11 -12.5t-13 -7.5q-8 -4 -17 -3q-10 1 -16 4q-14 7 -23 25q-4 9 -6 19q-3 17 -0.5 49.5t8.5 57.5q2 7 2 15q3 21 8 42q2 6 3 13q6 28 19 54
q9 18 22 34q12 14 28 24q4 2 10 6q4 3 10 3q3 0 7 2q10 2 21 2q17 1 23 -2t16 -11.5t13 -13.5q3 -3 4 -7l1 1q1 8 0 15q0 13 2 15q2 3 5 2q4 -1 17 -1.5t23.5 3t15.5 5.5t11 4q8 2 14 7q7 4 10 4q9 -4 -2 -13q-11 -11 -21 -43q-3 -9 -1 -10q3 -2 -2 -15q-2 -7 -4.5 -17
t-5.5 -19t-5 -18q-2 -8 -4 -15q-3 -7 -4 -14q-1 -9 -4 -17q-3 -9 -4 -15q-10 -50 -17 -65q-2 -6 -4 -13q-3 -7 -4 -11q-3 -6 -2 -13q1 -10 5 -18q2 -5 6 -10q5 -5 18 -5q8 -1 12 2t9 3q3 0 8 5l6 4q4 3 7.5 6t6.5 5t4 5q3 4 6 7q5 3 16 23q4 7 9 15q2 4 5 8q0 1 4 10
q6 14 13 45t10 52q1 8 2 23q3 25 -1 50q-2 11 -3 15q-2 12 -15 39q-8 16 -11 21q-6 16 -30 39q-19 20 -34 26q-7 3 -13 7q-7 6 -20 9l-10 4q-9 5 -57 7q-15 1 -20 -1q-6 -3 -13 -5q-9 -2 -17 -6t-16 -5t-14 -5q-4 -2 -9 -4q-6 -3 -11.5 -6.5t-11.5 -5.5q-4 -2 -8 -5
q-3 -2 -7 -4q-3 -1 -12 -9t-14 -15q-7 -9 -16 -17q-8 -7 -14 -15q-3 -6 -7 -11q-11 -18 -18 -39q-3 -10 -8 -21q-8 -21 -10 -44q-1 -11 -4 -21q-4 -15 -4 -39q-1 -15 -2 -39.5t1 -32.5q2 -10 3 -19q0 -8 2 -16q3 -6 3 -14t2 -15q2 -6 3 -12q1 -5 3 -10q7 -13 11 -27
q5 -16 14 -30q2 -4 5 -8q4 -6 8 -10.5t8 -9.5q6 -9 14 -16q9 -10 21 -16q8 -4 14 -10q5 -3 19 -10.5t18 -8.5q4 0 7 -2q21 -3 42 -4q10 0 13 1q3 2 8 2q6 0 12 2l14 2q6 0 24 6q29 9 36 9q6 1 12 5q4 3 9 5q4 2 7 4q7 5 17 10q9 6 17 13q3 3 7 6q2 0 12.5 10.5t15.5 16.5
q6 7 14 15q9 9 14 20q9 15 25 38q4 6 7 12q1 4 5 7l3 4h10q10 0 12 -1zM336 444q1 21 0 23l-4.5 9t-9.5 12.5t-10 5.5q-8 0 -15 -9q-26 -35 -39 -82q-2 -9 -6 -21q-6 -21 -12 -53l-4 -22q-6 -31 -2 -39q5 -11 10 -11q4 2 6 5q4 4 6 8q3 5 7 10q14 15 26 32q3 4 6 7
q15 18 28 57q5 19 7 26t3 14.5t3 27.5z" />
    <glyph glyph-name="A" unicode="A" horiz-adv-x="606" 
d="M0 17l-4 4q-2 3 -3 6q2 7 9 8q10 0 42 15q11 5 25 18t23 31q25 48 46 136q10 45 26 89q7 21 15 47q14 45 26 78q16 44 16 54q1 7 3 13q14 50 22 85q5 19 3.5 36.5t-9.5 37.5q-11 27 -29 45q-11 12 -11 16q0 8 8 8q9 -1 16 -8q9 -7 21 -6q6 1 12 -1q10 -4 21 -6
q14 -3 24 -5q10 -3 20 -1q9 2 19 2q7 -1 14.5 2.5t15.5 2.5q7 0 14 3q5 3 15 1.5t10.5 -4t-1.5 -4.5t-11 -7q-4 -2 -9.5 -6.5t-10 -8.5t-8 -8t-4.5 -6q-5 -11 8 -66q3 -14 6 -30q2 -12 7 -24q9 -23 23 -90q9 -41 15 -62q12 -40 20 -74q9 -45 24 -89q8 -25 14 -50
q11 -46 25 -71q9 -17 18 -37q7 -15 16 -29q4 -8 19 -21.5t26 -21.5q9 -7 15 -12q6 -4 11 -7q9 -4 9 -11q0 -4 -5.5 -6t-9.5 0q-12 7 -72 24q-41 12 -84 11q-30 0 -49 -3q-22 -4 -50 -13.5t-32 -14.5q-4 -4 -9.5 -1.5t-5.5 8.5q0 4 11.5 14.5t20.5 14.5q32 15 45 27
q11 9 13 29q2 13 -5 55l-3 18l-8 4l-16 10q-22 16 -74 27q-43 7 -87 9h-9l-1 -6q-2 -10 -4 -41t-1 -39q1 -17 19 -45q5 -8 9 -12.5t8.5 -7.5t13.5 -8q8 -4 15 -8q2 -2 1.5 -5.5t-2.5 -5.5q-3 -2 -52 0q-103 5 -174 -4zM207 258l-6 -16q9 -4 18 -6q4 -1 29 -1q20 -1 40 3
q65 12 65 15q0 1 -5 12q-4 11 -7 23.5t-7.5 24t-6 16.5t-4.5 10q-3 9 -3 18q-4 36 -8 46q-1 5 -4 18q-3 11 -6 21q-3 8 -5 15q-1 8 -4 14q-4 9 -5 18t-5 17l-3 7l-6 -19q-16 -55 -22 -86q-4 -19 -13.5 -48.5t-12.5 -40.5q-6 -25 -19 -61z" />
    <glyph glyph-name="A" unicode="&#xc5;" horiz-adv-x="606" 
d="M0 17l-4 4q-2 3 -3 6q2 7 9 8q10 0 42 15q11 5 25 18t23 31q25 48 46 136q10 45 26 89q7 21 15 47q14 45 26 78q16 44 16 54q1 7 3 13q14 50 22 85q5 19 3.5 36.5t-9.5 37.5q-11 27 -29 45q-11 12 -11 16q0 8 8 8q9 -1 16 -8q9 -7 21 -6q6 1 12 -1q10 -4 21 -6
q14 -3 24 -5q10 -3 20 -1q9 2 19 2q7 -1 14.5 2.5t15.5 2.5q7 0 14 3q5 3 15 1.5t10.5 -4t-1.5 -4.5t-11 -7q-4 -2 -9.5 -6.5t-10 -8.5t-8 -8t-4.5 -6q-5 -11 8 -66q3 -14 6 -30q2 -12 7 -24q9 -23 23 -90q9 -41 15 -62q12 -40 20 -74q9 -45 24 -89q8 -25 14 -50
q11 -46 25 -71q9 -17 18 -37q7 -15 16 -29q4 -8 19 -21.5t26 -21.5q9 -7 15 -12q6 -4 11 -7q9 -4 9 -11q0 -4 -5.5 -6t-9.5 0q-12 7 -72 24q-41 12 -84 11q-30 0 -49 -3q-22 -4 -50 -13.5t-32 -14.5q-4 -4 -9.5 -1.5t-5.5 8.5q0 4 11.5 14.5t20.5 14.5q32 15 45 27
q11 9 13 29q2 13 -5 55l-3 18l-8 4l-16 10q-22 16 -74 27q-43 7 -87 9h-9l-1 -6q-2 -10 -4 -41t-1 -39q1 -17 19 -45q5 -8 9 -12.5t8.5 -7.5t13.5 -8q8 -4 15 -8q2 -2 1.5 -5.5t-2.5 -5.5q-3 -2 -52 0q-103 5 -174 -4zM207 258l-6 -16q9 -4 18 -6q4 -1 29 -1q20 -1 40 3
q65 12 65 15q0 1 -5 12q-4 11 -7 23.5t-7.5 24t-6 16.5t-4.5 10q-3 9 -3 18q-4 36 -8 46q-1 5 -4 18q-3 11 -6 21q-3 8 -5 15q-1 8 -4 14q-4 9 -5 18t-5 17l-3 7l-6 -19q-16 -55 -22 -86q-4 -19 -13.5 -48.5t-12.5 -40.5q-6 -25 -19 -61z" />
    <glyph glyph-name="A" unicode="&#xc4;" horiz-adv-x="606" 
d="M0 17l-4 4q-2 3 -3 6q2 7 9 8q10 0 42 15q11 5 25 18t23 31q25 48 46 136q10 45 26 89q7 21 15 47q14 45 26 78q16 44 16 54q1 7 3 13q14 50 22 85q5 19 3.5 36.5t-9.5 37.5q-11 27 -29 45q-11 12 -11 16q0 8 8 8q9 -1 16 -8q9 -7 21 -6q6 1 12 -1q10 -4 21 -6
q14 -3 24 -5q10 -3 20 -1q9 2 19 2q7 -1 14.5 2.5t15.5 2.5q7 0 14 3q5 3 15 1.5t10.5 -4t-1.5 -4.5t-11 -7q-4 -2 -9.5 -6.5t-10 -8.5t-8 -8t-4.5 -6q-5 -11 8 -66q3 -14 6 -30q2 -12 7 -24q9 -23 23 -90q9 -41 15 -62q12 -40 20 -74q9 -45 24 -89q8 -25 14 -50
q11 -46 25 -71q9 -17 18 -37q7 -15 16 -29q4 -8 19 -21.5t26 -21.5q9 -7 15 -12q6 -4 11 -7q9 -4 9 -11q0 -4 -5.5 -6t-9.5 0q-12 7 -72 24q-41 12 -84 11q-30 0 -49 -3q-22 -4 -50 -13.5t-32 -14.5q-4 -4 -9.5 -1.5t-5.5 8.5q0 4 11.5 14.5t20.5 14.5q32 15 45 27
q11 9 13 29q2 13 -5 55l-3 18l-8 4l-16 10q-22 16 -74 27q-43 7 -87 9h-9l-1 -6q-2 -10 -4 -41t-1 -39q1 -17 19 -45q5 -8 9 -12.5t8.5 -7.5t13.5 -8q8 -4 15 -8q2 -2 1.5 -5.5t-2.5 -5.5q-3 -2 -52 0q-103 5 -174 -4zM207 258l-6 -16q9 -4 18 -6q4 -1 29 -1q20 -1 40 3
q65 12 65 15q0 1 -5 12q-4 11 -7 23.5t-7.5 24t-6 16.5t-4.5 10q-3 9 -3 18q-4 36 -8 46q-1 5 -4 18q-3 11 -6 21q-3 8 -5 15q-1 8 -4 14q-4 9 -5 18t-5 17l-3 7l-6 -19q-16 -55 -22 -86q-4 -19 -13.5 -48.5t-12.5 -40.5q-6 -25 -19 -61z" />
    <glyph glyph-name="A" unicode="&#xc3;" horiz-adv-x="606" 
d="M0 17l-4 4q-2 3 -3 6q2 7 9 8q10 0 42 15q11 5 25 18t23 31q25 48 46 136q10 45 26 89q7 21 15 47q14 45 26 78q16 44 16 54q1 7 3 13q14 50 22 85q5 19 3.5 36.5t-9.5 37.5q-11 27 -29 45q-11 12 -11 16q0 8 8 8q9 -1 16 -8q9 -7 21 -6q6 1 12 -1q10 -4 21 -6
q14 -3 24 -5q10 -3 20 -1q9 2 19 2q7 -1 14.5 2.5t15.5 2.5q7 0 14 3q5 3 15 1.5t10.5 -4t-1.5 -4.5t-11 -7q-4 -2 -9.5 -6.5t-10 -8.5t-8 -8t-4.5 -6q-5 -11 8 -66q3 -14 6 -30q2 -12 7 -24q9 -23 23 -90q9 -41 15 -62q12 -40 20 -74q9 -45 24 -89q8 -25 14 -50
q11 -46 25 -71q9 -17 18 -37q7 -15 16 -29q4 -8 19 -21.5t26 -21.5q9 -7 15 -12q6 -4 11 -7q9 -4 9 -11q0 -4 -5.5 -6t-9.5 0q-12 7 -72 24q-41 12 -84 11q-30 0 -49 -3q-22 -4 -50 -13.5t-32 -14.5q-4 -4 -9.5 -1.5t-5.5 8.5q0 4 11.5 14.5t20.5 14.5q32 15 45 27
q11 9 13 29q2 13 -5 55l-3 18l-8 4l-16 10q-22 16 -74 27q-43 7 -87 9h-9l-1 -6q-2 -10 -4 -41t-1 -39q1 -17 19 -45q5 -8 9 -12.5t8.5 -7.5t13.5 -8q8 -4 15 -8q2 -2 1.5 -5.5t-2.5 -5.5q-3 -2 -52 0q-103 5 -174 -4zM207 258l-6 -16q9 -4 18 -6q4 -1 29 -1q20 -1 40 3
q65 12 65 15q0 1 -5 12q-4 11 -7 23.5t-7.5 24t-6 16.5t-4.5 10q-3 9 -3 18q-4 36 -8 46q-1 5 -4 18q-3 11 -6 21q-3 8 -5 15q-1 8 -4 14q-4 9 -5 18t-5 17l-3 7l-6 -19q-16 -55 -22 -86q-4 -19 -13.5 -48.5t-12.5 -40.5q-6 -25 -19 -61z" />
    <glyph glyph-name="A" unicode="&#xc2;" horiz-adv-x="606" 
d="M0 17l-4 4q-2 3 -3 6q2 7 9 8q10 0 42 15q11 5 25 18t23 31q25 48 46 136q10 45 26 89q7 21 15 47q14 45 26 78q16 44 16 54q1 7 3 13q14 50 22 85q5 19 3.5 36.5t-9.5 37.5q-11 27 -29 45q-11 12 -11 16q0 8 8 8q9 -1 16 -8q9 -7 21 -6q6 1 12 -1q10 -4 21 -6
q14 -3 24 -5q10 -3 20 -1q9 2 19 2q7 -1 14.5 2.5t15.5 2.5q7 0 14 3q5 3 15 1.5t10.5 -4t-1.5 -4.5t-11 -7q-4 -2 -9.5 -6.5t-10 -8.5t-8 -8t-4.5 -6q-5 -11 8 -66q3 -14 6 -30q2 -12 7 -24q9 -23 23 -90q9 -41 15 -62q12 -40 20 -74q9 -45 24 -89q8 -25 14 -50
q11 -46 25 -71q9 -17 18 -37q7 -15 16 -29q4 -8 19 -21.5t26 -21.5q9 -7 15 -12q6 -4 11 -7q9 -4 9 -11q0 -4 -5.5 -6t-9.5 0q-12 7 -72 24q-41 12 -84 11q-30 0 -49 -3q-22 -4 -50 -13.5t-32 -14.5q-4 -4 -9.5 -1.5t-5.5 8.5q0 4 11.5 14.5t20.5 14.5q32 15 45 27
q11 9 13 29q2 13 -5 55l-3 18l-8 4l-16 10q-22 16 -74 27q-43 7 -87 9h-9l-1 -6q-2 -10 -4 -41t-1 -39q1 -17 19 -45q5 -8 9 -12.5t8.5 -7.5t13.5 -8q8 -4 15 -8q2 -2 1.5 -5.5t-2.5 -5.5q-3 -2 -52 0q-103 5 -174 -4zM207 258l-6 -16q9 -4 18 -6q4 -1 29 -1q20 -1 40 3
q65 12 65 15q0 1 -5 12q-4 11 -7 23.5t-7.5 24t-6 16.5t-4.5 10q-3 9 -3 18q-4 36 -8 46q-1 5 -4 18q-3 11 -6 21q-3 8 -5 15q-1 8 -4 14q-4 9 -5 18t-5 17l-3 7l-6 -19q-16 -55 -22 -86q-4 -19 -13.5 -48.5t-12.5 -40.5q-6 -25 -19 -61z" />
    <glyph glyph-name="A" unicode="&#xc1;" horiz-adv-x="606" 
d="M0 17l-4 4q-2 3 -3 6q2 7 9 8q10 0 42 15q11 5 25 18t23 31q25 48 46 136q10 45 26 89q7 21 15 47q14 45 26 78q16 44 16 54q1 7 3 13q14 50 22 85q5 19 3.5 36.5t-9.5 37.5q-11 27 -29 45q-11 12 -11 16q0 8 8 8q9 -1 16 -8q9 -7 21 -6q6 1 12 -1q10 -4 21 -6
q14 -3 24 -5q10 -3 20 -1q9 2 19 2q7 -1 14.5 2.5t15.5 2.5q7 0 14 3q5 3 15 1.5t10.5 -4t-1.5 -4.5t-11 -7q-4 -2 -9.5 -6.5t-10 -8.5t-8 -8t-4.5 -6q-5 -11 8 -66q3 -14 6 -30q2 -12 7 -24q9 -23 23 -90q9 -41 15 -62q12 -40 20 -74q9 -45 24 -89q8 -25 14 -50
q11 -46 25 -71q9 -17 18 -37q7 -15 16 -29q4 -8 19 -21.5t26 -21.5q9 -7 15 -12q6 -4 11 -7q9 -4 9 -11q0 -4 -5.5 -6t-9.5 0q-12 7 -72 24q-41 12 -84 11q-30 0 -49 -3q-22 -4 -50 -13.5t-32 -14.5q-4 -4 -9.5 -1.5t-5.5 8.5q0 4 11.5 14.5t20.5 14.5q32 15 45 27
q11 9 13 29q2 13 -5 55l-3 18l-8 4l-16 10q-22 16 -74 27q-43 7 -87 9h-9l-1 -6q-2 -10 -4 -41t-1 -39q1 -17 19 -45q5 -8 9 -12.5t8.5 -7.5t13.5 -8q8 -4 15 -8q2 -2 1.5 -5.5t-2.5 -5.5q-3 -2 -52 0q-103 5 -174 -4zM207 258l-6 -16q9 -4 18 -6q4 -1 29 -1q20 -1 40 3
q65 12 65 15q0 1 -5 12q-4 11 -7 23.5t-7.5 24t-6 16.5t-4.5 10q-3 9 -3 18q-4 36 -8 46q-1 5 -4 18q-3 11 -6 21q-3 8 -5 15q-1 8 -4 14q-4 9 -5 18t-5 17l-3 7l-6 -19q-16 -55 -22 -86q-4 -19 -13.5 -48.5t-12.5 -40.5q-6 -25 -19 -61z" />
    <glyph glyph-name="A" unicode="&#xc0;" horiz-adv-x="606" 
d="M0 17l-4 4q-2 3 -3 6q2 7 9 8q10 0 42 15q11 5 25 18t23 31q25 48 46 136q10 45 26 89q7 21 15 47q14 45 26 78q16 44 16 54q1 7 3 13q14 50 22 85q5 19 3.5 36.5t-9.5 37.5q-11 27 -29 45q-11 12 -11 16q0 8 8 8q9 -1 16 -8q9 -7 21 -6q6 1 12 -1q10 -4 21 -6
q14 -3 24 -5q10 -3 20 -1q9 2 19 2q7 -1 14.5 2.5t15.5 2.5q7 0 14 3q5 3 15 1.5t10.5 -4t-1.5 -4.5t-11 -7q-4 -2 -9.5 -6.5t-10 -8.5t-8 -8t-4.5 -6q-5 -11 8 -66q3 -14 6 -30q2 -12 7 -24q9 -23 23 -90q9 -41 15 -62q12 -40 20 -74q9 -45 24 -89q8 -25 14 -50
q11 -46 25 -71q9 -17 18 -37q7 -15 16 -29q4 -8 19 -21.5t26 -21.5q9 -7 15 -12q6 -4 11 -7q9 -4 9 -11q0 -4 -5.5 -6t-9.5 0q-12 7 -72 24q-41 12 -84 11q-30 0 -49 -3q-22 -4 -50 -13.5t-32 -14.5q-4 -4 -9.5 -1.5t-5.5 8.5q0 4 11.5 14.5t20.5 14.5q32 15 45 27
q11 9 13 29q2 13 -5 55l-3 18l-8 4l-16 10q-22 16 -74 27q-43 7 -87 9h-9l-1 -6q-2 -10 -4 -41t-1 -39q1 -17 19 -45q5 -8 9 -12.5t8.5 -7.5t13.5 -8q8 -4 15 -8q2 -2 1.5 -5.5t-2.5 -5.5q-3 -2 -52 0q-103 5 -174 -4zM207 258l-6 -16q9 -4 18 -6q4 -1 29 -1q20 -1 40 3
q65 12 65 15q0 1 -5 12q-4 11 -7 23.5t-7.5 24t-6 16.5t-4.5 10q-3 9 -3 18q-4 36 -8 46q-1 5 -4 18q-3 11 -6 21q-3 8 -5 15q-1 8 -4 14q-4 9 -5 18t-5 17l-3 7l-6 -19q-16 -55 -22 -86q-4 -19 -13.5 -48.5t-12.5 -40.5q-6 -25 -19 -61z" />
    <glyph glyph-name="B" unicode="B" horiz-adv-x="573" 
d="M100 226q2 60 3 95q1 29 -1 57q-4 56 0 111q7 71 5 88q-5 29 -15 58q-5 15 -25 37q-21 22 -46 38q-17 9 -9 17q7 8 26 -2q39 -20 90 -15q40 4 66 10q24 5 34 7q7 1 14 3q11 4 57 4q16 0 36 -2.5t38 -7t28 -9.5q35 -18 51 -31q9 -8 23 -18q28 -21 31 -34t9 -25q4 -8 4 -26
q0 -16 2 -39q1 -33 -9 -51q-6 -9 -10 -17q-4 -12 -17 -26.5t-22 -20.5q-5 -3 -26 -14q-10 -6 -20 -13q-3 -3 -14 -11l-12 -8l11 -4q25 -11 49 -25q5 -3 19.5 -16t21.5 -18q17 -14 21 -21q3 -7 7 -13q4 -7 6 -15q1 -7 5 -13q9 -12 10.5 -15.5t1.5 -11.5q1 -11 1 -19
q2 -7 -1 -13q-3 -10 -3 -20q-1 -10 -3 -20q-2 -5 -2 -10q-2 -11 -7 -21q-6 -16 -10 -25q-4 -11 -11 -21q-7 -11 -9 -15q-5 -7 -11 -13q-9 -8 -17 -17q-17 -15 -38 -23q-40 -16 -72 -24q-31 -8 -64 -5q-16 2 -42 3q-41 1 -60 6q-5 2 -27 5t-33 5q-18 2 -65 -5q-24 -3 -47 -11
q-9 -3 -12 0t-3 8q0 4 2 6t14 9q29 18 43 37q6 9 13.5 31.5t9.5 40.5q2 12 4 20q5 20 7 88zM403.5 291.5q-8.5 7.5 -18.5 16.5q-25 24 -76 33q-14 3 -53.5 2t-43.5 -2l-4 -1l1 -16q1 -16 2 -29q2 -16 -2 -70q-1 -19 -1 -43.5t4 -41.5q7 -31 11.5 -41.5t13.5 -19.5
q7 -9 18 -11q7 -2 13 -4q5 -1 9 -3q21 -10 44 -8q17 0 29 7q9 4 18 10q4 4 14 12q16 11 23 21.5t15 33.5q11 32 13 66q1 23 -1 35.5t-11 29.5q-9 16 -17.5 23.5zM205 456l-1 -40l26 1q28 1 33 2q33 2 60 17q12 8 23 14q9 5 20 19q16 22 22.5 37.5t9.5 38.5q2 17 1 34l-2 16
l-25 26q-25 26 -40 34l-16 9l-21 -1q-16 0 -31 -3q-7 -2 -13 -2q-4 1 -7 -6q-5 -9 -10 -17q-17 -28 -21 -85q-2 -28 -4 -40q-4 -27 -4 -54z" />
    <glyph glyph-name="C" unicode="C" horiz-adv-x="627" 
d="M35 276q-5 19 -9 71q-1 29 7 76q7 34 25 83q11 30 15 41q11 32 36 70q37 55 75 80q13 8 22 14q6 4 12 7q5 2 19 7q13 5 26 7q11 2 20.5 4t18.5 3q9 2 18.5 3.5t15.5 -0.5q7 -3 15 -3q8 1 15 -3t16 -4q31 -3 43 -10q7 -4 14 -7q21 -5 50 -34q19 -19 24 -26l6 -7l5 15
q3 7 10 22t14.5 29t11.5 19q7 9 16.5 13t15.5 1q4 -2 3.5 -7t-3.5 -8q-11 -10 -17 -34q-3 -14 -5 -75t0 -112q1 -27 5 -54q4 -21 5 -25t-4 -7q-2 -2 -5 -3q-7 0 -17 13q-4 5 -9 20t-5 21q0 8 -17 53q-6 17 -19 30q-27 28 -38 48q-4 6 -9 12q-4 4 -9 12q-7 9 -18.5 16.5
t-19.5 8.5q-6 1 -11 3t-9 3q-5 0 -9 2q-5 2 -10 2q-7 0 -14 2q-10 3 -46 0q-14 -1 -25 -9q-33 -20 -46 -37q-19 -23 -36 -51q-7 -12 -10 -25q-4 -17 -10 -33t-7 -43q-1 -38 -9 -75q-7 -31 -4 -64q3 -18 9 -73q4 -32 10 -49q7 -24 19 -46q8 -16 13 -33q6 -18 8.5 -23
t12.5 -18t15 -15q11 -5 21 -11q16 -9 24 -11t21 0q10 2 20 6q9 3 18 5q40 9 78 25q25 11 34 28q4 8 10 14q5 6 9 13q3 6 8 11q3 4 10 15.5t12.5 23t5.5 14.5q3 12 8 23q10 24 21 57q3 9 8 17q7 5 13 -5q2 -4 -1 -25q-13 -73 -13 -146q0 -55 21 -133q3 -13 -5.5 -16t-17.5 7
q-10 14 -15 30q-3 11 -7 21q-4 9 -7 18q-2 8 -6 14q-6 10 -7.5 8t-13.5 -17q-24 -28 -44 -43t-48 -25q-19 -7 -52 -11q-7 0 -14 -3q-8 -4 -32 -1q-11 1 -26 2q-10 1 -19 3q-5 2 -10 2t-10 1q-5 2 -14.5 3.5t-34.5 18.5q-4 2 -9 4q-8 4 -27 21q-6 6 -13 10q-7 5 -23 28
q-3 5 -8 9q-5 3 -20 18.5t-17 18.5q-3 8 -4 17q-2 20 -11 38q-4 7 -6 15q-3 9 -5 16q-8 27 -14 54q-1 9 -4 20z" />
    <glyph glyph-name="C" unicode="&#xc7;" horiz-adv-x="627" 
d="M35 276q-5 19 -9 71q-1 29 7 76q7 34 25 83q11 30 15 41q11 32 36 70q37 55 75 80q13 8 22 14q6 4 12 7q5 2 19 7q13 5 26 7q11 2 20.5 4t18.5 3q9 2 18.5 3.5t15.5 -0.5q7 -3 15 -3q8 1 15 -3t16 -4q31 -3 43 -10q7 -4 14 -7q21 -5 50 -34q19 -19 24 -26l6 -7l5 15
q3 7 10 22t14.5 29t11.5 19q7 9 16.5 13t15.5 1q4 -2 3.5 -7t-3.5 -8q-11 -10 -17 -34q-3 -14 -5 -75t0 -112q1 -27 5 -54q4 -21 5 -25t-4 -7q-2 -2 -5 -3q-7 0 -17 13q-4 5 -9 20t-5 21q0 8 -17 53q-6 17 -19 30q-27 28 -38 48q-4 6 -9 12q-4 4 -9 12q-7 9 -18.5 16.5
t-19.5 8.5q-6 1 -11 3t-9 3q-5 0 -9 2q-5 2 -10 2q-7 0 -14 2q-10 3 -46 0q-14 -1 -25 -9q-33 -20 -46 -37q-19 -23 -36 -51q-7 -12 -10 -25q-4 -17 -10 -33t-7 -43q-1 -38 -9 -75q-7 -31 -4 -64q3 -18 9 -73q4 -32 10 -49q7 -24 19 -46q8 -16 13 -33q6 -18 8.5 -23
t12.5 -18t15 -15q11 -5 21 -11q16 -9 24 -11t21 0q10 2 20 6q9 3 18 5q40 9 78 25q25 11 34 28q4 8 10 14q5 6 9 13q3 6 8 11q3 4 10 15.5t12.5 23t5.5 14.5q3 12 8 23q10 24 21 57q3 9 8 17q7 5 13 -5q2 -4 -1 -25q-13 -73 -13 -146q0 -55 21 -133q3 -13 -5.5 -16t-17.5 7
q-10 14 -15 30q-3 11 -7 21q-4 9 -7 18q-2 8 -6 14q-6 10 -7.5 8t-13.5 -17q-24 -28 -44 -43t-48 -25q-19 -7 -52 -11q-7 0 -14 -3q-8 -4 -32 -1q-11 1 -26 2q-10 1 -19 3q-5 2 -10 2t-10 1q-5 2 -14.5 3.5t-34.5 18.5q-4 2 -9 4q-8 4 -27 21q-6 6 -13 10q-7 5 -23 28
q-3 5 -8 9q-5 3 -20 18.5t-17 18.5q-3 8 -4 17q-2 20 -11 38q-4 7 -6 15q-3 9 -5 16q-8 27 -14 54q-1 9 -4 20z" />
    <glyph glyph-name="D" unicode="D" horiz-adv-x="661" 
d="M87 88q11 17 16 43q3 16 2 19q-3 5 -2.5 15.5t4.5 18.5q4 10 6.5 32t0.5 38q-2 18 0 158q0 11 -0.5 39t-1.5 53.5t-1 31.5q-6 55 -10 74.5t-14 38.5q-5 11 -12 21q-7 8 -40 25q-18 10 -23.5 15t-2.5 9q4 8 14 4q19 -7 66 -10q29 -2 51.5 0.5t79.5 13.5q17 4 35 4
q53 -2 78 -7q14 -3 21 -4q16 -3 31 -7q23 -7 28.5 -6t20.5 -6t18 -8q9 -4 17 -10q9 -6 18 -11q11 -4 34 -27.5t37 -45.5q16 -24 43 -74q22 -39 27 -73q1 -10 4 -25q2 -11 1 -22q-1 -9 -2 -47q0 -86 -4 -104q-6 -26 -23 -72q-1 -4 -4 -13q-3 -12 -23 -43q-22 -34 -43 -53
q-39 -37 -78 -55q-8 -4 -23 -10t-28 -10t-15 -4q-7 -1 -14 -4q-12 -3 -25 -5q-38 -5 -60 -2q-7 2 -29 8q-56 16 -74 19q-52 7 -101 -4l-31 -7q-15 -3 -29 -10q-15 -7 -19 -3q-5 6 1 18q3 6 19.5 23.5t22.5 21.5q18 12 36 39zM220 257q-6 -28 2 -50q4 -12 6 -24
q1 -11 10.5 -49t15.5 -47q14 -20 39 -26q7 -1 16 -3q18 -4 25 0q13 6 28 7q8 2 17 5q5 2 12 3q6 0 19.5 10t18.5 19q3 5 7 10q5 6 8.5 13t7.5 13q13 16 25 51q6 17 12 31.5t8 35.5q4 47 1 84q-2 28 -3 29q-1 2 -2.5 27.5t-0.5 38.5q1 29 0 37.5t-7 24.5q-17 47 -37 71
q-9 11 -16 21q-17 27 -40 38q-15 8 -47 9q-22 1 -32 6q-14 8 -21.5 10t-27.5 3q-24 1 -27 3q-2 1 -3 -3l-1 -20q-1 -24 -0.5 -58.5t-2.5 -46.5q-8 -27 -6 -97q2 -49 2 -51q-5 -7 -4 -73q0 -40 -2 -52z" />
    <glyph glyph-name="E" unicode="E" horiz-adv-x="571" 
d="M339 7q-40 -4 -67 4q-16 5 -60 -2q-11 -1 -45 -2q-10 -1 -27.5 -1.5t-21.5 -0.5q-14 0 -26 -4q-8 -3 -15 -4t-13 -3q-10 -3 -26 -7q-24 -5 -46 -16q-6 -2 -9 0q-7 6 -1 13q3 4 11 9t13 6q9 1 28.5 14.5t32.5 26.5q29 28 40 64q13 43 6 73q-2 10 -3 91v100q1 32 0 127
q-1 78 -3.5 85t-2.5 22q1 30 -8 47q-8 16 -24 25q-17 10 -49 16q-20 4 -14 17q3 6 6.5 7t13.5 -1q23 -5 73 -7q33 -2 44 -3q54 -7 140 -3q38 2 85 8t94 18q33 8 37 9q10 0 10 -15q0 -7 -2 -14q-3 -8 -4 -16.5t-4 -16.5q-6 -9 -1 -18q2 -5 0.5 -21.5t-2 -47.5t-3.5 -38
q-2 -6 -1 -12q1 -8 0 -15q-1 -6 -1.5 -7t-3.5 -1q-9 0 -13.5 12.5t-10.5 50.5q-6 36 -18 52t-38 22q-22 4 -45 1q-8 -2 -17 -2q-8 0 -15 -3q-15 -6 -37 -1q-6 2 -11 1q-15 -2 -31 -2q-23 0 -26 -1.5t-6 -13.5q-11 -43 -5 -74q1 -7 3 -30q2 -24 2 -34q2 -18 1 -58
q-1 -19 2.5 -26t9.5 -9.5t27 -4.5q23 -3 31 -5q15 -4 30 1q21 5 31 14q3 2 13 24t11 29q1 8 6 20t7 13q8 4 13 -3q3 -4 -2 -26q-11 -48 -11 -60l-2 -16q-8 -50 -4 -135q1 -27 -1 -30q-3 -3 -7 -4t-7 2q-5 4 -8 38q-1 22 -3 34q-5 29 -17 43q-6 7 -24 11q-8 2 -24 2t-23 -3
q-9 -2 -15 -3q-5 -1 -9 -5q-8 -8 -15 -5q-2 1 -6 -0.5t-5 -3.5q-1 -3 0.5 -41.5t3.5 -49.5q3 -19 -3 -66q-3 -26 1 -52t12 -39q6 -9 13.5 -12.5t14.5 -6.5q8 -3 17 -4t18 -3q6 -3 49 -2.5t54 3.5q6 2 13 5t13.5 7t12.5 7.5t9 6.5q6 7 18.5 23.5t14.5 21.5t8.5 32.5t6.5 31.5
q0 3 1.5 10t3.5 15t4.5 15.5t4.5 12.5q8 16 17 13q6 -2 7 -15.5t1 -89.5q0 -59 0.5 -79t1.5 -29q4 -21 7 -44q1 -9 -8 -11t-28 4q-15 4 -30 7q-12 2 -25 6q-10 4 -33 3q-21 0 -43 2q-19 2 -39 0z" />
    <glyph glyph-name="E" unicode="&#xcb;" horiz-adv-x="571" 
d="M339 7q-40 -4 -67 4q-16 5 -60 -2q-11 -1 -45 -2q-10 -1 -27.5 -1.5t-21.5 -0.5q-14 0 -26 -4q-8 -3 -15 -4t-13 -3q-10 -3 -26 -7q-24 -5 -46 -16q-6 -2 -9 0q-7 6 -1 13q3 4 11 9t13 6q9 1 28.5 14.5t32.5 26.5q29 28 40 64q13 43 6 73q-2 10 -3 91v100q1 32 0 127
q-1 78 -3.5 85t-2.5 22q1 30 -8 47q-8 16 -24 25q-17 10 -49 16q-20 4 -14 17q3 6 6.5 7t13.5 -1q23 -5 73 -7q33 -2 44 -3q54 -7 140 -3q38 2 85 8t94 18q33 8 37 9q10 0 10 -15q0 -7 -2 -14q-3 -8 -4 -16.5t-4 -16.5q-6 -9 -1 -18q2 -5 0.5 -21.5t-2 -47.5t-3.5 -38
q-2 -6 -1 -12q1 -8 0 -15q-1 -6 -1.5 -7t-3.5 -1q-9 0 -13.5 12.5t-10.5 50.5q-6 36 -18 52t-38 22q-22 4 -45 1q-8 -2 -17 -2q-8 0 -15 -3q-15 -6 -37 -1q-6 2 -11 1q-15 -2 -31 -2q-23 0 -26 -1.5t-6 -13.5q-11 -43 -5 -74q1 -7 3 -30q2 -24 2 -34q2 -18 1 -58
q-1 -19 2.5 -26t9.5 -9.5t27 -4.5q23 -3 31 -5q15 -4 30 1q21 5 31 14q3 2 13 24t11 29q1 8 6 20t7 13q8 4 13 -3q3 -4 -2 -26q-11 -48 -11 -60l-2 -16q-8 -50 -4 -135q1 -27 -1 -30q-3 -3 -7 -4t-7 2q-5 4 -8 38q-1 22 -3 34q-5 29 -17 43q-6 7 -24 11q-8 2 -24 2t-23 -3
q-9 -2 -15 -3q-5 -1 -9 -5q-8 -8 -15 -5q-2 1 -6 -0.5t-5 -3.5q-1 -3 0.5 -41.5t3.5 -49.5q3 -19 -3 -66q-3 -26 1 -52t12 -39q6 -9 13.5 -12.5t14.5 -6.5q8 -3 17 -4t18 -3q6 -3 49 -2.5t54 3.5q6 2 13 5t13.5 7t12.5 7.5t9 6.5q6 7 18.5 23.5t14.5 21.5t8.5 32.5t6.5 31.5
q0 3 1.5 10t3.5 15t4.5 15.5t4.5 12.5q8 16 17 13q6 -2 7 -15.5t1 -89.5q0 -59 0.5 -79t1.5 -29q4 -21 7 -44q1 -9 -8 -11t-28 4q-15 4 -30 7q-12 2 -25 6q-10 4 -33 3q-21 0 -43 2q-19 2 -39 0z" />
    <glyph glyph-name="E" unicode="&#xca;" horiz-adv-x="571" 
d="M339 7q-40 -4 -67 4q-16 5 -60 -2q-11 -1 -45 -2q-10 -1 -27.5 -1.5t-21.5 -0.5q-14 0 -26 -4q-8 -3 -15 -4t-13 -3q-10 -3 -26 -7q-24 -5 -46 -16q-6 -2 -9 0q-7 6 -1 13q3 4 11 9t13 6q9 1 28.5 14.5t32.5 26.5q29 28 40 64q13 43 6 73q-2 10 -3 91v100q1 32 0 127
q-1 78 -3.5 85t-2.5 22q1 30 -8 47q-8 16 -24 25q-17 10 -49 16q-20 4 -14 17q3 6 6.5 7t13.5 -1q23 -5 73 -7q33 -2 44 -3q54 -7 140 -3q38 2 85 8t94 18q33 8 37 9q10 0 10 -15q0 -7 -2 -14q-3 -8 -4 -16.5t-4 -16.5q-6 -9 -1 -18q2 -5 0.5 -21.5t-2 -47.5t-3.5 -38
q-2 -6 -1 -12q1 -8 0 -15q-1 -6 -1.5 -7t-3.5 -1q-9 0 -13.5 12.5t-10.5 50.5q-6 36 -18 52t-38 22q-22 4 -45 1q-8 -2 -17 -2q-8 0 -15 -3q-15 -6 -37 -1q-6 2 -11 1q-15 -2 -31 -2q-23 0 -26 -1.5t-6 -13.5q-11 -43 -5 -74q1 -7 3 -30q2 -24 2 -34q2 -18 1 -58
q-1 -19 2.5 -26t9.5 -9.5t27 -4.5q23 -3 31 -5q15 -4 30 1q21 5 31 14q3 2 13 24t11 29q1 8 6 20t7 13q8 4 13 -3q3 -4 -2 -26q-11 -48 -11 -60l-2 -16q-8 -50 -4 -135q1 -27 -1 -30q-3 -3 -7 -4t-7 2q-5 4 -8 38q-1 22 -3 34q-5 29 -17 43q-6 7 -24 11q-8 2 -24 2t-23 -3
q-9 -2 -15 -3q-5 -1 -9 -5q-8 -8 -15 -5q-2 1 -6 -0.5t-5 -3.5q-1 -3 0.5 -41.5t3.5 -49.5q3 -19 -3 -66q-3 -26 1 -52t12 -39q6 -9 13.5 -12.5t14.5 -6.5q8 -3 17 -4t18 -3q6 -3 49 -2.5t54 3.5q6 2 13 5t13.5 7t12.5 7.5t9 6.5q6 7 18.5 23.5t14.5 21.5t8.5 32.5t6.5 31.5
q0 3 1.5 10t3.5 15t4.5 15.5t4.5 12.5q8 16 17 13q6 -2 7 -15.5t1 -89.5q0 -59 0.5 -79t1.5 -29q4 -21 7 -44q1 -9 -8 -11t-28 4q-15 4 -30 7q-12 2 -25 6q-10 4 -33 3q-21 0 -43 2q-19 2 -39 0z" />
    <glyph glyph-name="E" unicode="&#xc9;" horiz-adv-x="571" 
d="M339 7q-40 -4 -67 4q-16 5 -60 -2q-11 -1 -45 -2q-10 -1 -27.5 -1.5t-21.5 -0.5q-14 0 -26 -4q-8 -3 -15 -4t-13 -3q-10 -3 -26 -7q-24 -5 -46 -16q-6 -2 -9 0q-7 6 -1 13q3 4 11 9t13 6q9 1 28.5 14.5t32.5 26.5q29 28 40 64q13 43 6 73q-2 10 -3 91v100q1 32 0 127
q-1 78 -3.5 85t-2.5 22q1 30 -8 47q-8 16 -24 25q-17 10 -49 16q-20 4 -14 17q3 6 6.5 7t13.5 -1q23 -5 73 -7q33 -2 44 -3q54 -7 140 -3q38 2 85 8t94 18q33 8 37 9q10 0 10 -15q0 -7 -2 -14q-3 -8 -4 -16.5t-4 -16.5q-6 -9 -1 -18q2 -5 0.5 -21.5t-2 -47.5t-3.5 -38
q-2 -6 -1 -12q1 -8 0 -15q-1 -6 -1.5 -7t-3.5 -1q-9 0 -13.5 12.5t-10.5 50.5q-6 36 -18 52t-38 22q-22 4 -45 1q-8 -2 -17 -2q-8 0 -15 -3q-15 -6 -37 -1q-6 2 -11 1q-15 -2 -31 -2q-23 0 -26 -1.5t-6 -13.5q-11 -43 -5 -74q1 -7 3 -30q2 -24 2 -34q2 -18 1 -58
q-1 -19 2.5 -26t9.5 -9.5t27 -4.5q23 -3 31 -5q15 -4 30 1q21 5 31 14q3 2 13 24t11 29q1 8 6 20t7 13q8 4 13 -3q3 -4 -2 -26q-11 -48 -11 -60l-2 -16q-8 -50 -4 -135q1 -27 -1 -30q-3 -3 -7 -4t-7 2q-5 4 -8 38q-1 22 -3 34q-5 29 -17 43q-6 7 -24 11q-8 2 -24 2t-23 -3
q-9 -2 -15 -3q-5 -1 -9 -5q-8 -8 -15 -5q-2 1 -6 -0.5t-5 -3.5q-1 -3 0.5 -41.5t3.5 -49.5q3 -19 -3 -66q-3 -26 1 -52t12 -39q6 -9 13.5 -12.5t14.5 -6.5q8 -3 17 -4t18 -3q6 -3 49 -2.5t54 3.5q6 2 13 5t13.5 7t12.5 7.5t9 6.5q6 7 18.5 23.5t14.5 21.5t8.5 32.5t6.5 31.5
q0 3 1.5 10t3.5 15t4.5 15.5t4.5 12.5q8 16 17 13q6 -2 7 -15.5t1 -89.5q0 -59 0.5 -79t1.5 -29q4 -21 7 -44q1 -9 -8 -11t-28 4q-15 4 -30 7q-12 2 -25 6q-10 4 -33 3q-21 0 -43 2q-19 2 -39 0z" />
    <glyph glyph-name="E" unicode="&#xc8;" horiz-adv-x="571" 
d="M339 7q-40 -4 -67 4q-16 5 -60 -2q-11 -1 -45 -2q-10 -1 -27.5 -1.5t-21.5 -0.5q-14 0 -26 -4q-8 -3 -15 -4t-13 -3q-10 -3 -26 -7q-24 -5 -46 -16q-6 -2 -9 0q-7 6 -1 13q3 4 11 9t13 6q9 1 28.5 14.5t32.5 26.5q29 28 40 64q13 43 6 73q-2 10 -3 91v100q1 32 0 127
q-1 78 -3.5 85t-2.5 22q1 30 -8 47q-8 16 -24 25q-17 10 -49 16q-20 4 -14 17q3 6 6.5 7t13.5 -1q23 -5 73 -7q33 -2 44 -3q54 -7 140 -3q38 2 85 8t94 18q33 8 37 9q10 0 10 -15q0 -7 -2 -14q-3 -8 -4 -16.5t-4 -16.5q-6 -9 -1 -18q2 -5 0.5 -21.5t-2 -47.5t-3.5 -38
q-2 -6 -1 -12q1 -8 0 -15q-1 -6 -1.5 -7t-3.5 -1q-9 0 -13.5 12.5t-10.5 50.5q-6 36 -18 52t-38 22q-22 4 -45 1q-8 -2 -17 -2q-8 0 -15 -3q-15 -6 -37 -1q-6 2 -11 1q-15 -2 -31 -2q-23 0 -26 -1.5t-6 -13.5q-11 -43 -5 -74q1 -7 3 -30q2 -24 2 -34q2 -18 1 -58
q-1 -19 2.5 -26t9.5 -9.5t27 -4.5q23 -3 31 -5q15 -4 30 1q21 5 31 14q3 2 13 24t11 29q1 8 6 20t7 13q8 4 13 -3q3 -4 -2 -26q-11 -48 -11 -60l-2 -16q-8 -50 -4 -135q1 -27 -1 -30q-3 -3 -7 -4t-7 2q-5 4 -8 38q-1 22 -3 34q-5 29 -17 43q-6 7 -24 11q-8 2 -24 2t-23 -3
q-9 -2 -15 -3q-5 -1 -9 -5q-8 -8 -15 -5q-2 1 -6 -0.5t-5 -3.5q-1 -3 0.5 -41.5t3.5 -49.5q3 -19 -3 -66q-3 -26 1 -52t12 -39q6 -9 13.5 -12.5t14.5 -6.5q8 -3 17 -4t18 -3q6 -3 49 -2.5t54 3.5q6 2 13 5t13.5 7t12.5 7.5t9 6.5q6 7 18.5 23.5t14.5 21.5t8.5 32.5t6.5 31.5
q0 3 1.5 10t3.5 15t4.5 15.5t4.5 12.5q8 16 17 13q6 -2 7 -15.5t1 -89.5q0 -59 0.5 -79t1.5 -29q4 -21 7 -44q1 -9 -8 -11t-28 4q-15 4 -30 7q-12 2 -25 6q-10 4 -33 3q-21 0 -43 2q-19 2 -39 0z" />
    <glyph glyph-name="F" unicode="F" horiz-adv-x="524" 
d="M2 -30q-1 2 -0.5 9t2.5 9q7 5 14 9l22 11t14.5 8t11 7t7.5 6t7 8q17 22 24 58q2 8 5 24q6 27 7.5 50.5t0.5 101.5q-1 95 -3 108q-6 32 -2 48q3 10 2 49q0 23 -1 80q-1 41 -3 44q-2 6 -3 13q-4 28 -23 48q-11 13 -36 25q-20 10 -33 10q-4 0 -7 2.5t-3 6.5q0 11 19 11
q5 0 15 -1.5t18.5 -3t10.5 -2.5q3 -2 85 -9q27 -2 38 -4q25 -3 68 -2.5t59 4.5q7 1 22 4l26 3q21 3 59.5 14t53.5 17q21 10 30 5q5 -3 0 -23q-7 -24 -6 -107v-88v-20l-4 -4q-4 -3 -8 0q-8 4 -11 26q-9 54 -22 74q-6 10 -9 14q-3 5 -12 13.5t-15.5 11.5t-19 8.5t-26.5 4.5
q-85 -5 -99 -7q-11 -3 -21 0q-9 3 -19 3h-8l-2 -8q-2 -14 -2 -28q-1 -20 1 -32q3 -13 5 -120q1 -53 3.5 -54t33 -2.5t39.5 0.5q19 5 33 19q11 17 20 36q15 29 18 33q2 4 6 4.5t7 -2.5q4 -3 0 -41q-10 -79 5 -110q5 -11 7 -24t5 -26q3 -17 -1 -20q-7 -7 -14 2q-8 11 -13 24
q0 1 -8.5 13t-12.5 16q-5 4 -11 7q-8 4 -44 4t-46 2q-10 1 -19 1t-9 -3q-1 -4 -0.5 -67.5t0.5 -103.5q3 -97 13 -109q12 -13 29 -17q9 -2 18 -5q13 -4 26 -6q10 -1 14.5 -2t6.5 -3t2 -6q0 -3 -3 -6q-2 -3 -29 -2q-47 1 -93 -4q-26 -3 -43 -4t-41 -2q-23 -1 -45 -4
q-52 -11 -70 -25q-9 -7 -13 -2z" />
    <glyph glyph-name="G" unicode="G" horiz-adv-x="681" 
d="M551 40q-18 -20 -38 -27q-8 -3 -15 -7q-7 -3 -15 -4q-34 -4 -47 -10q-8 -3 -16 -4q-9 -2 -15 -3q-17 -5 -34 -6q-7 -1 -13 -3q-7 -2 -36 -2t-42 2q-7 0 -14 3q-6 3 -12 3q-10 2 -41 18q-5 2 -14 7q-13 6 -25 14q-14 9 -23 14q-8 5 -15 12q-5 5 -11 9q-5 5 -8 11
q-3 7 -7.5 13.5t-6.5 13.5q-3 14 -12 26q-5 9 -9 18q-2 8 -12 29q-25 54 -27 64q-2 9 -7 17q-10 17 -9 84q0 34 4 68q3 23 3 29q0 12 16.5 67.5t26.5 77.5q13 27 40 58q26 27 54 51q41 33 64 40l18 6q6 3 13 3q8 1 14 5q11 5 22 5q7 1 15 0q10 -3 21 -3q12 0 24 -3
q3 -2 6 -1q7 0 15 -3q16 -4 45 -17t46 -25q23 -14 44 -31q3 -3 6 -4q1 0 6 11q24 47 29 50q11 7 14 -4q0 -17 -2 -34q-3 -32 0 -63q1 -33 -0.5 -70.5t-1.5 -64.5q1 -33 -5 -35q-7 -2 -11.5 4.5t-9.5 23.5q-3 12 -8 27q-6 15 -11 31q-9 27 -24 51q-22 37 -45 52
q-22 15 -32 15q-6 1 -11 4q-8 5 -27 6q-10 1 -20 1q-5 -1 -9 1q-5 2 -21.5 2t-27.5 -2q-13 -2 -32 -16q-8 -6 -16 -11q-17 -10 -35 -35q-9 -13 -17 -23q-26 -33 -35 -93q-3 -27 -7 -52q-7 -49 -2 -98q3 -24 5 -53t5 -46q7 -40 22 -78q9 -19 24 -44t22 -31q1 -1 12 -11
q24 -21 43 -27q14 -3 29 -4q20 -1 28 -2q17 -2 33 5q8 4 17 6q8 1 18 5t10 6q3 7 7 12q7 10 11 22q2 9 6 16q5 9 9 18q6 13 7 31q5 52 4 69q-1 12 -8 23q-14 25 -20.5 31.5t-23.5 15.5q-12 6 -26 10q-4 1 -8 4q-3 3 -3 6.5t3 6.5t13 1q21 -4 55 1q43 6 69 8q19 1 37 5t35 6
q13 2 19 4t28 14q29 15 29 -2q0 -7 -30 -29q-31 -22 -43 -40q-13 -19 -13 -90q0 -41 -5 -82q-7 -54 -32 -80z" />
    <glyph glyph-name="H" unicode="H" horiz-adv-x="718" 
d="M116.5 296.5q0.5 86.5 2.5 99.5q2 11 2 75t-1 90q-1 18 -4 36q-3 11 -4 19q-1 6 -4 12q-2 4 -2 8q0 9 -16 27q-8 10 -28.5 24.5t-37.5 22.5q-8 3 -14 8q-3 3 -3 7t2 6q5 5 15 0q4 -2 7 -3t6 -3q4 -4 33 -12q9 -2 16 -4q6 -2 13 -3q11 0 23 -2q46 -8 71 -3q13 2 59 3
q9 1 15 5q15 9 32 12q5 1 8 -2t4 -6q0 -6 -20 -15l-14 -8q-3 -3 -7 -3t-12.5 -10t-16.5 -23.5t-11 -21.5q-3 -12 -4.5 -35.5t-0.5 -36.5q3 -28 -1 -56q-2 -14 0 -27q1 -16 1 -26q1 -25 8 -49q2 -6 4.5 -8t16.5 -9l19 -10l11 1q13 0 25 -3q26 -5 70.5 -3.5t57.5 8.5q5 2 19 2
q26 -1 27 9q0 4 3 6q6 3 7.5 12.5t2.5 41.5q1 40 2.5 46.5t3 31t-0.5 39.5q-3 14 -4 30q-3 18 -10 35q-11 30 -25 42q-6 6 -12 6t-10 3q-14 9 -30 12q-19 4 -20 11t4 11q7 5 73 -4q13 -3 26 -1q42 6 46 4q1 -1 33 -2q50 -3 92 6q9 3 25 4.5t19 -1.5q5 -4 2 -11
q-1 -1 -6 -3.5t-11.5 -5.5l-13 -6t-10.5 -4q-22 -7 -40 -23q-7 -8 -13 -21l-5 -14l1 -33q0 -33 -2.5 -52t-0.5 -48.5t2 -131.5q-1 -99 0 -114q0 -12 -1 -41q0 -22 2 -43q3 -15 4.5 -37t3.5 -30q6 -27 17 -51q10 -17 23 -32q4 -3 11.5 -7.5t15.5 -7.5t14 -4q5 -1 10.5 -4.5
t5.5 -6.5t-2 -6q-5 -7 -21 -1q-5 2 -10 5q-3 2 -6 3q-5 2 -10 5q-9 5 -19 4q-27 0 -42 7q-8 3 -25 4q-54 4 -61 7q-10 4 -21 0q-9 -3 -18 -4l-14 -2q-1 -1 -21 -5q-29 -7 -34 -14q-3 -2 -6 -2t-5 3q-4 4 -1 10q1 3 14 12t25 15q33 17 52.5 53.5t10.5 64.5q-2 7 -1 25.5
t-2 28.5q-2 9 -2 19q-1 26 -5 51q-2 12 0 23q2 12 0 23q-2 13 -3.5 16t-6.5 4q-21 2 -42 -1q-8 -2 -25 -2t-26 2q-6 2 -12 2q-13 -2 -25 -3q-40 -2 -52 -6q-9 -3 -31 -3q-14 1 -28 -1q-4 -1 -9.5 -5.5t-5.5 -6.5q-1 -2 -3 -4q-2 -3 -2.5 -44.5t0.5 -46.5q1 -11 0 -23
q-2 -15 1 -30q2 -13 5 -28q5 -32 10 -39l8 -14q8 -14 28 -27q6 -4 12 -9q9 -7 20 -13q12 -7 14.5 -11t-2.5 -9q-3 -3 -7.5 -2.5t-22.5 7.5q-48 18 -57 18l-18 2q-24 4 -36 -1q-8 -4 -37.5 -4t-40.5 -4q-27 -10 -55 -16q-11 -2 -22 -6q-5 -2 -9 -3q-8 1 -8 9q0 6 17 13
q11 4 21 10q15 10 31 27t22 30q7 18 11 51q2 16 5.5 38.5t4 109z" />
    <glyph glyph-name="I" unicode="I" horiz-adv-x="339" 
d="M29 1q-17 -6 -20 -3q-3 2 -3 6.5t3 6.5q2 1 23 11q23 11 59 38q15 11 22 29q1 5 4 9q2 8 1 16q0 15 2 29q5 58 3 98q-3 35 -3 75t-2 71q-2 38 -1 131q0 82 -3 105q-2 9 -7.5 20.5t-8.5 12.5q-8 4 -15 10q-10 7 -16 9t-22 3q-24 2 -26 11q-2 7 4 10.5t20 3.5q11 0 64 -1.5
t57 -2.5q5 -1 28.5 3.5t30.5 7.5q13 6 23 10q16 7 21 10q3 2 28.5 10t27.5 8q9 0 9 -12q0 -7 -10 -13q-6 -3 -25 -15q-35 -23 -46 -45q-5 -10 -8 -15q-8 -13 -9 -44q-2 -24 0 -47q2 -26 1 -122q-1 -66 -3 -79.5t-1.5 -75.5t-2 -84.5t1.5 -51t4.5 -30.5t2.5 -15q5 -23 18 -44
q8 -12 38 -28q19 -11 23 -14q3 -2 6 -2t5 -3.5t2 -6.5q0 -7 -14 -7q-5 0 -10 1q-1 1 -40.5 3t-53.5 3q-14 2 -30 3q-9 0 -19 2q-3 1 -18.5 4.5t-40.5 3.5q-20 0 -32 -2t-42 -11z" />
    <glyph glyph-name="I" unicode="&#xcf;" horiz-adv-x="339" 
d="M29 1q-17 -6 -20 -3q-3 2 -3 6.5t3 6.5q2 1 23 11q23 11 59 38q15 11 22 29q1 5 4 9q2 8 1 16q0 15 2 29q5 58 3 98q-3 35 -3 75t-2 71q-2 38 -1 131q0 82 -3 105q-2 9 -7.5 20.5t-8.5 12.5q-8 4 -15 10q-10 7 -16 9t-22 3q-24 2 -26 11q-2 7 4 10.5t20 3.5q11 0 64 -1.5
t57 -2.5q5 -1 28.5 3.5t30.5 7.5q13 6 23 10q16 7 21 10q3 2 28.5 10t27.5 8q9 0 9 -12q0 -7 -10 -13q-6 -3 -25 -15q-35 -23 -46 -45q-5 -10 -8 -15q-8 -13 -9 -44q-2 -24 0 -47q2 -26 1 -122q-1 -66 -3 -79.5t-1.5 -75.5t-2 -84.5t1.5 -51t4.5 -30.5t2.5 -15q5 -23 18 -44
q8 -12 38 -28q19 -11 23 -14q3 -2 6 -2t5 -3.5t2 -6.5q0 -7 -14 -7q-5 0 -10 1q-1 1 -40.5 3t-53.5 3q-14 2 -30 3q-9 0 -19 2q-3 1 -18.5 4.5t-40.5 3.5q-20 0 -32 -2t-42 -11z" />
    <glyph glyph-name="I" unicode="&#xce;" horiz-adv-x="339" 
d="M29 1q-17 -6 -20 -3q-3 2 -3 6.5t3 6.5q2 1 23 11q23 11 59 38q15 11 22 29q1 5 4 9q2 8 1 16q0 15 2 29q5 58 3 98q-3 35 -3 75t-2 71q-2 38 -1 131q0 82 -3 105q-2 9 -7.5 20.5t-8.5 12.5q-8 4 -15 10q-10 7 -16 9t-22 3q-24 2 -26 11q-2 7 4 10.5t20 3.5q11 0 64 -1.5
t57 -2.5q5 -1 28.5 3.5t30.5 7.5q13 6 23 10q16 7 21 10q3 2 28.5 10t27.5 8q9 0 9 -12q0 -7 -10 -13q-6 -3 -25 -15q-35 -23 -46 -45q-5 -10 -8 -15q-8 -13 -9 -44q-2 -24 0 -47q2 -26 1 -122q-1 -66 -3 -79.5t-1.5 -75.5t-2 -84.5t1.5 -51t4.5 -30.5t2.5 -15q5 -23 18 -44
q8 -12 38 -28q19 -11 23 -14q3 -2 6 -2t5 -3.5t2 -6.5q0 -7 -14 -7q-5 0 -10 1q-1 1 -40.5 3t-53.5 3q-14 2 -30 3q-9 0 -19 2q-3 1 -18.5 4.5t-40.5 3.5q-20 0 -32 -2t-42 -11z" />
    <glyph glyph-name="I" unicode="&#xcd;" horiz-adv-x="339" 
d="M29 1q-17 -6 -20 -3q-3 2 -3 6.5t3 6.5q2 1 23 11q23 11 59 38q15 11 22 29q1 5 4 9q2 8 1 16q0 15 2 29q5 58 3 98q-3 35 -3 75t-2 71q-2 38 -1 131q0 82 -3 105q-2 9 -7.5 20.5t-8.5 12.5q-8 4 -15 10q-10 7 -16 9t-22 3q-24 2 -26 11q-2 7 4 10.5t20 3.5q11 0 64 -1.5
t57 -2.5q5 -1 28.5 3.5t30.5 7.5q13 6 23 10q16 7 21 10q3 2 28.5 10t27.5 8q9 0 9 -12q0 -7 -10 -13q-6 -3 -25 -15q-35 -23 -46 -45q-5 -10 -8 -15q-8 -13 -9 -44q-2 -24 0 -47q2 -26 1 -122q-1 -66 -3 -79.5t-1.5 -75.5t-2 -84.5t1.5 -51t4.5 -30.5t2.5 -15q5 -23 18 -44
q8 -12 38 -28q19 -11 23 -14q3 -2 6 -2t5 -3.5t2 -6.5q0 -7 -14 -7q-5 0 -10 1q-1 1 -40.5 3t-53.5 3q-14 2 -30 3q-9 0 -19 2q-3 1 -18.5 4.5t-40.5 3.5q-20 0 -32 -2t-42 -11z" />
    <glyph glyph-name="I" unicode="&#xcc;" horiz-adv-x="339" 
d="M29 1q-17 -6 -20 -3q-3 2 -3 6.5t3 6.5q2 1 23 11q23 11 59 38q15 11 22 29q1 5 4 9q2 8 1 16q0 15 2 29q5 58 3 98q-3 35 -3 75t-2 71q-2 38 -1 131q0 82 -3 105q-2 9 -7.5 20.5t-8.5 12.5q-8 4 -15 10q-10 7 -16 9t-22 3q-24 2 -26 11q-2 7 4 10.5t20 3.5q11 0 64 -1.5
t57 -2.5q5 -1 28.5 3.5t30.5 7.5q13 6 23 10q16 7 21 10q3 2 28.5 10t27.5 8q9 0 9 -12q0 -7 -10 -13q-6 -3 -25 -15q-35 -23 -46 -45q-5 -10 -8 -15q-8 -13 -9 -44q-2 -24 0 -47q2 -26 1 -122q-1 -66 -3 -79.5t-1.5 -75.5t-2 -84.5t1.5 -51t4.5 -30.5t2.5 -15q5 -23 18 -44
q8 -12 38 -28q19 -11 23 -14q3 -2 6 -2t5 -3.5t2 -6.5q0 -7 -14 -7q-5 0 -10 1q-1 1 -40.5 3t-53.5 3q-14 2 -30 3q-9 0 -19 2q-3 1 -18.5 4.5t-40.5 3.5q-20 0 -32 -2t-42 -11z" />
    <glyph glyph-name="J" unicode="J" horiz-adv-x="433" 
d="M424 745q4 0 6.5 -5.5t1.5 -9.5q-2 -7 -48 -33q-35 -18 -42 -25q-12 -10 -7 -19q2 -3 -1 -18q-8 -40 -3 -133q3 -57 -1 -80q-3 -14 -2.5 -133t-1.5 -141q-3 -43 -11 -72t-19 -38q-6 -4 -22.5 -12t-33 -15t-21.5 -8q-9 -2 -18 -5q-11 -4 -22 -6q-10 -1 -20 -4
q-21 -6 -41 0q-48 14 -82 60q-15 22 -18.5 35.5t-3.5 54.5q0 38 3 56q8 40 19 56q16 20 39 33l12 6h15q23 -1 38 -16q33 -34 30 -66q-1 -8 -5 -19.5t-9.5 -21t-9.5 -10.5q-6 -1 -8.5 3.5t0.5 10.5l7 21q5 18 2.5 28t-18.5 27q-9 9 -14.5 11.5t-17.5 2.5h-12l-5 -9
q-10 -17 -11 -51q-1 -38 6 -63q3 -9 5 -12t11 -11q15 -14 21.5 -16.5t20.5 -2.5q16 0 24 5q8 6 17 10q19 9 28 28q5 9 8 19q2 9 2 25t-4 127q-4 105 0 150q3 29 1.5 90t-6.5 88q-4 25 -7 32t-13.5 13.5t-66.5 19.5q-23 5 -23 13q0 6 10 10q5 2 27 -1t37 -7q28 -9 57 -9
q29 -2 57 6q9 2 33 7q33 8 67 18q31 9 43 6z" />
    <glyph glyph-name="K" unicode="K" horiz-adv-x="714" 
d="M111 122q3 23 4 31q3 20 3 40q-2 56 2 107q1 23 -4 85q-2 22 0 43q3 60 -3 161q-2 33 -6.5 47.5t-17.5 26.5q-7 7 -14 11.5t-16 8t-27 7.5q-10 3 -19 7q-8 4 -8 9t3.5 8.5t15.5 2.5q20 -2 39 -7q38 -8 107 -8q38 0 51.5 4t42 4.5t40.5 3.5q31 8 37 5q5 -3 3 -13
q-1 -7 -9 -11q-5 -2 -18 -9q-11 -6 -22 -10q-26 -7 -40 -15q-7 -4 -13 -9q-8 -16 -8 -141q0 -69 -2 -102q-1 -33 0 -41l1 -9l4 3q10 9 18 19.5t18 19.5t18 19q15 16 32 34t31 37q20 24 45 49q41 43 56 73q10 20 3 36q-3 7 -48 30q-9 5 -19 11q-3 3 -2.5 7.5t3.5 7.5
q4 3 19 3q14 0 29 2q12 2 57 2q52 1 85 6q14 2 31 5q28 4 56 12q20 5 24 2q1 -2 1 -7t-2 -6q-12 -6 -25 -11q-42 -16 -75 -47q-8 -7 -22 -17q-38 -29 -58 -56q-12 -14 -20 -23t-25.5 -31.5t-38.5 -47.5l-22 -26l2 -7q2 -7 6.5 -19.5t7.5 -23.5q6 -19 20 -48t21 -38
q17 -21 27 -47q7 -16 16 -32q7 -11 14 -24q6 -12 16 -27q10 -16 21 -38q8 -16 17 -30q6 -8 14 -21q10 -17 38 -42q14 -12 25 -26q7 -8 15 -15q9 -8 23 -15.5t20 -7.5q7 0 9 -5t-3 -11q-3 -3 -9 -3t-40 5q-22 2 -44.5 4.5t-45 3.5t-44.5 2q-100 3 -136 -10q-18 -6 -22 -4
q-9 4 6 20q5 6 8 8t7 3.5t14 3.5q12 3 19 5q27 8 36 18q3 4 3 17t-4 22q-4 6 -6 12q-3 8 -8 15q-29 47 -33 59q-2 5 -6 10t-14 26.5t-17.5 34t-13.5 26.5q-6 13 -14 24q-12 16 -22 33q-6 10 -11 20q-2 8 -7 15l-4 6l-15 -16q-16 -17 -21.5 -24.5t-21.5 -22.5l-16 -16v-27
q0 -27 -2 -48q-4 -43 -1 -87q1 -7 3 -16.5t4 -18.5t4.5 -16.5t4.5 -10.5q7 -14 36 -33q14 -8 26 -19l12 -10q4 -2 4.5 -6.5t-2.5 -7.5q-4 -3 -19 2q-55 16 -118 13q-25 -3 -50 2q-16 2 -32 0q-35 -3 -58 -12q-24 -9 -29 -4q-3 3 -0.5 10.5t7.5 7.5q2 0 17 8t21 13
q16 12 30.5 40.5t19.5 56.5z" />
    <glyph glyph-name="L" unicode="L" horiz-adv-x="555" 
d="M338 7q-40 -4 -67 4q-16 5 -60 -2q-11 -1 -45 -2q-6 -1 -14.5 -1h-14.5t-11.5 -0.5t-8.5 -0.5q-13 0 -26 -4q-4 -1 -7.5 -2t-7.5 -2q-7 -1 -13 -3q-10 -3 -26 -7q-24 -5 -46 -16q-6 -2 -9 0q-7 6 -1 13q3 4 11 9t13 6q9 1 28.5 14.5t32.5 26.5q29 29 40 64q13 43 6 73
q-2 10 -2.5 91.5t-0.5 99.5q1 32 0 127q-1 78 -3.5 85t-2.5 22q1 30 -8 47q-8 16 -24 25q-17 10 -49 16q-20 4 -14 17q3 6 6.5 7t13.5 -1q23 -5 73 -7q11 -1 27 -2t17 -1q10 -1 32.5 1.5t55.5 2.5q13 0 32.5 5.5t26.5 5.5q2 0 1.5 -5t-1.5 -11l-1 -5q-9 -5 -19 -8
q-18 -5 -20 -6t-3.5 -2l-3 -2t-2.5 -2t-3 -2t-3 -2q-8 -5 -11 -12t-3.5 -17t-1.5 -15q-11 -43 -5 -74q1 -7 3 -30q0 -4 0.5 -12t1 -13.5t0.5 -8.5q2 -18 1 -58q-1 -7 -2 -19.5t-1 -17.5q1 -4 1.5 -10t1 -9.5t0.5 -5.5q0 -3 -0.5 -7.5t-1 -11.5t-0.5 -11q0 -1 0.5 -8.5
t-0.5 -7.5q-1 -3 0.5 -41.5t3.5 -49.5q3 -19 -3 -66q-3 -26 1 -52t12 -39q6 -9 14 -13l14 -6q8 -3 17 -4t18 -3q6 -3 49 -2.5t54 3.5q12 4 27 12t21 14q6 7 18.5 23.5t14.5 21.5t8.5 32.5t6.5 31.5q0 6 5 25t9 28q8 16 17 13q6 -2 7 -15.5t1 -89.5q0 -93 2 -108q4 -21 7 -44
q1 -9 -8 -11t-28 4q-15 4 -30 7q-12 2 -25 6q-10 4 -33 3q-21 0 -43 2q-19 2 -39 0z" />
    <glyph glyph-name="M" unicode="M" horiz-adv-x="869" 
d="M443 216q4 9 13 30t19 52q10 30 18 48q7 18 21 53q15 35 20.5 52.5t12.5 34.5q7 16 15 35q7 19 14 32q14 31 25 63q2 8 6 16q5 12 8 24q8 25 19 50q6 12 29 1q9 -4 32 -3q30 0 73.5 4.5t61.5 9.5q24 7 29 2q2 -1 2.5 -6.5t-1.5 -8.5q-11 -9 -24 -16q-6 -3 -20 -13
q-16 -11 -24 -16q-21 -15 -26.5 -31t-6.5 -68q-1 -36 -2 -57q-4 -49 -6 -260q0 -89 2 -118t4.5 -39t9.5 -22q14 -24 42 -37q16 -8 30 -16q8 -5 17 -8q7 0 8.5 -6.5t-3.5 -9.5q-4 -3 -27 0.5t-44 8.5q-47 12 -82 13q-20 1 -41 -2q-53 -10 -102 -15l-32 -3l-3 3q-3 4 -2.5 8.5
t9.5 9.5q5 2 10 6q6 3 12 5q7 2 14 6q3 3 7 5t7 5t7 4q5 3 10 7q5 5 12 9q7 6 12 13q6 9 8 30q2 24 -1 115q-2 75 -1 151q0 77 -2.5 107.5t-1.5 57.5v20t0 7q-4 -5 -31 -69q-17 -42 -38 -102q-25 -73 -41 -108q-4 -10 -11 -24q-7 -17 -13 -34q-6 -20 -13 -37
q-27 -67 -28 -82q0 -5 2.5 -8t12.5 -11q15 -12 10 -19q-5 -8 -18 -1q-6 4 -26 13l-20 9h-18q-21 0 -63 -13q-25 -8 -29 -4q-6 5 -2 11q11 10 24 17q11 6 11 14q0 12 -30 83l-10 26q-6 18 -15 35q-11 22 -15 34q-1 3 -5.5 14.5t-6.5 16.5q-8 22 -14 40q-4 14 -10 28
q-5 11 -9 23q-7 23 -18 45q-14 29 -22 49.5t-12 29.5l-4 9v-40q0 -39 -3.5 -64.5t-1.5 -48.5q3 -55 0 -111q-2 -45 2.5 -108t12.5 -84q5 -14 20.5 -32.5t33.5 -28.5q15 -10 27 -19q13 -9 14 -14q2 -5 -2 -8q-3 -3 -25.5 -0.5t-24.5 3t-33 3.5t-56 1q-33 -1 -66 -6
q-12 -2 -27 -4t-21 -2.5t-9 2.5q-3 2 -3 6.5t3 6.5q17 12 34 22q29 17 42 30q13 12 20 26q8 17 9.5 32.5t1.5 88.5q0 85 3 112q5 59 2 97q-6 73 -4 109q1 46 -1 66q-2 13 -4 33q-1 18 -4.5 25.5t-15.5 21.5q-11 13 -19 15q-17 6 -59 29q-10 6 -11 11q0 6 4 10t9 3
q20 -3 40 -9q4 -2 13.5 -4.5t22 -5t24 -5t21 -4t12.5 -1.5q8 0 23.5 3.5t31 9t22.5 9.5q9 5 14 1t10 -22q15 -48 21 -59q4 -9 11 -26t12 -26q4 -9 6 -20q3 -12 22 -57q16 -41 25 -69q11 -38 22 -63q4 -12 10 -26q7 -19 21.5 -49.5t31.5 -80.5q3 -8 7 -16z" />
    <glyph glyph-name="N" unicode="N" horiz-adv-x="701" 
d="M625 -24q-30 12 -88 7q-24 -2 -27 0t-3.5 6t1.5 6q6 3 11 4q14 4 14 11t-14 26q-5 7 -10 15q-3 7 -7 13q-8 12 -13 21q-9 14 -20 27q-25 31 -46 66q-14 25 -49 69q-12 16 -21 29q-10 14 -21 31q-12 17 -18 28q-17 31 -36 56q-49 64 -66 99q-5 11 -12 21q-5 7 -10 17
q-13 22 -18 23q0 -4 -1.5 -42.5t-2.5 -61.5q-2 -22 -3 -68l-3 -69q-2 -29 0 -87t6 -81q2 -12 5 -29q2 -12 5 -24q3 -8 9 -18.5t8 -10.5q5 -3 10 -8q10 -8 22 -14q12 -7 22 -15q7 -6 14 -11q5 -2 5.5 -6.5t-3.5 -7.5q-3 -3 -12 -1q-7 2 -15 4q-14 5 -40.5 9.5t-39.5 4.5
q-37 0 -102 -8q-32 -5 -35 -2q-4 5 -3 9t7 7t15 3q5 0 20 8t21 13q11 9 21.5 36t13.5 50q6 51 5 125q-1 64 -2.5 70t-1 55.5t2.5 59.5t2 43.5t-2 45.5q-2 10 -3 35q0 30 -7 59q-2 9 -7.5 20t-12.5 21t-13.5 15t-16.5 15q-13 13 -44 29q-18 8 -16 17q2 4 5.5 5.5t18.5 -5.5
q25 -12 43 -13q15 -1 33 -2q19 -2 42 -2q34 -1 66 12q12 5 16 2q9 -5 -2 -18q-4 -3 -6 -8q0 -4 32 -45q21 -27 26 -34q49 -72 60 -91q6 -11 18 -26q22 -29 59 -84q12 -18 23 -37q16 -32 39 -60q24 -29 50 -71l11 -17l2 7q1 7 1 173t-1 182q-1 18 -1 25q0 15 -12 27
q-9 9 -11 9q-6 1 -12 4q-9 4 -19 2q-11 -1 -21 1.5t-14.5 8t-0.5 10.5q5 7 49 5q62 -4 90 1q24 5 47 14q15 5 31 9q18 4 25 5.5t10 -1.5q7 -7 0 -14q-7 -9 -33 -18q-12 -5 -23 -12q-14 -8 -19 -11q-8 -5 -14 -12q-12 -14 -16 -38q-9 -48 -5 -205q2 -56 5 -70.5t0.5 -31
t-4.5 -25.5q-7 -32 -4 -93q2 -29 3 -64q1 -59 13 -98q3 -12 5.5 -15.5t9.5 -7.5q6 -4 17.5 -16.5t11.5 -15.5t-2 -6q-4 -5 -17 0z" />
    <glyph glyph-name="N" unicode="&#xd1;" horiz-adv-x="701" 
d="M625 -24q-30 12 -88 7q-24 -2 -27 0t-3.5 6t1.5 6q6 3 11 4q14 4 14 11t-14 26q-5 7 -10 15q-3 7 -7 13q-8 12 -13 21q-9 14 -20 27q-25 31 -46 66q-14 25 -49 69q-12 16 -21 29q-10 14 -21 31q-12 17 -18 28q-17 31 -36 56q-49 64 -66 99q-5 11 -12 21q-5 7 -10 17
q-13 22 -18 23q0 -4 -1.5 -42.5t-2.5 -61.5q-2 -22 -3 -68l-3 -69q-2 -29 0 -87t6 -81q2 -12 5 -29q2 -12 5 -24q3 -8 9 -18.5t8 -10.5q5 -3 10 -8q10 -8 22 -14q12 -7 22 -15q7 -6 14 -11q5 -2 5.5 -6.5t-3.5 -7.5q-3 -3 -12 -1q-7 2 -15 4q-14 5 -40.5 9.5t-39.5 4.5
q-37 0 -102 -8q-32 -5 -35 -2q-4 5 -3 9t7 7t15 3q5 0 20 8t21 13q11 9 21.5 36t13.5 50q6 51 5 125q-1 64 -2.5 70t-1 55.5t2.5 59.5t2 43.5t-2 45.5q-2 10 -3 35q0 30 -7 59q-2 9 -7.5 20t-12.5 21t-13.5 15t-16.5 15q-13 13 -44 29q-18 8 -16 17q2 4 5.5 5.5t18.5 -5.5
q25 -12 43 -13q15 -1 33 -2q19 -2 42 -2q34 -1 66 12q12 5 16 2q9 -5 -2 -18q-4 -3 -6 -8q0 -4 32 -45q21 -27 26 -34q49 -72 60 -91q6 -11 18 -26q22 -29 59 -84q12 -18 23 -37q16 -32 39 -60q24 -29 50 -71l11 -17l2 7q1 7 1 173t-1 182q-1 18 -1 25q0 15 -12 27
q-9 9 -11 9q-6 1 -12 4q-9 4 -19 2q-11 -1 -21 1.5t-14.5 8t-0.5 10.5q5 7 49 5q62 -4 90 1q24 5 47 14q15 5 31 9q18 4 25 5.5t10 -1.5q7 -7 0 -14q-7 -9 -33 -18q-12 -5 -23 -12q-14 -8 -19 -11q-8 -5 -14 -12q-12 -14 -16 -38q-9 -48 -5 -205q2 -56 5 -70.5t0.5 -31
t-4.5 -25.5q-7 -32 -4 -93q2 -29 3 -64q1 -59 13 -98q3 -12 5.5 -15.5t9.5 -7.5q6 -4 17.5 -16.5t11.5 -15.5t-2 -6q-4 -5 -17 0z" />
    <glyph glyph-name="O" unicode="O" horiz-adv-x="699" 
d="M649 495q12 -36 21 -126q1 -16 0.5 -42t-2.5 -36l-5 -20q-3 -11 -4 -24q-4 -36 -10 -43q-3 -6 -4 -11q-8 -37 -25 -56q-4 -3 -6 -8q0 -2 -4.5 -9t-10.5 -14t-10 -10q-11 -9 -21 -19q-18 -18 -40 -32q-5 -3 -11 -8q-7 -5 -15 -8t-16 -8q-9 -5 -18 -8q-11 -3 -22 -7
q-12 -5 -25 -5q-11 -1 -22 -4q-10 -3 -19 -2q-25 -1 -47 -9q-10 -3 -20 0q-5 1 -17 3q-11 3 -20 7q-10 3 -20 5q-17 3 -30 15q-11 11 -33 19q-12 4 -22 14q-9 8 -18 15q-16 12 -27 30q-6 10 -15 18q-34 35 -41 48q-6 12 -14.5 38t-10.5 40q-4 33 -12 65q-7 26 -8 41.5
t2 42.5q8 70 15 91q3 13 6 27q5 33 16 50q3 5 19 30q15 24 23 34q10 11 23 29q9 14 23 24q13 11 19 16q22 19 47 30q32 14 52 14q5 0 10 3q14 9 76 8q40 0 47.5 -1.5t18.5 -3.5q29 -5 54 -21q10 -6 21 -10q22 -9 41 -22q10 -7 28 -23.5t21.5 -22t12.5 -19.5q8 -13 14 -26
q3 -8 7 -15q11 -18 18 -49q4 -17 10 -35zM536 285q8 34 6 55q-2 16 -6 83q-3 61 -9 81q-8 26 -22 57q-5 13 -11 29q-19 46 -36 55q-5 3 -18 11q-9 6 -18 10q-6 2 -25 8q-37 13 -52 13q-6 0 -13 3q-7 2 -17 0q-9 -3 -27.5 -12t-25.5 -15q-23 -19 -42 -41q-15 -17 -22 -30
q-4 -8 -9.5 -24t-10 -31.5t-5.5 -20.5q-1 -8 -3 -20q-2 -10 -4.5 -49t-2.5 -57q0 -15 2.5 -35t2.5 -39q0 -38 5 -76q4 -20 18 -55q7 -17 19 -45q14 -34 30 -49q29 -26 58 -30q10 -1 20 -5q18 -7 38 -7q16 0 30 6q15 6 21 8q21 8 42 20q12 8 22 17q14 12 21 17q9 7 21 42
q6 19 12 35t7 46.5t4 44.5z" />
    <glyph glyph-name="O" unicode="&#xd8;" horiz-adv-x="699" 
d="M649 495q12 -36 21 -126q1 -16 0.5 -42t-2.5 -36l-5 -20q-3 -11 -4 -24q-4 -36 -10 -43q-3 -6 -4 -11q-8 -37 -25 -56q-4 -3 -6 -8q0 -2 -4.5 -9t-10.5 -14t-10 -10q-11 -9 -21 -19q-18 -18 -40 -32q-5 -3 -11 -8q-7 -5 -15 -8t-16 -8q-9 -5 -18 -8q-11 -3 -22 -7
q-12 -5 -25 -5q-11 -1 -22 -4q-10 -3 -19 -2q-25 -1 -47 -9q-10 -3 -20 0q-5 1 -17 3q-11 3 -20 7q-10 3 -20 5q-17 3 -30 15q-11 11 -33 19q-12 4 -22 14q-9 8 -18 15q-16 12 -27 30q-6 10 -15 18q-34 35 -41 48q-6 12 -14.5 38t-10.5 40q-4 33 -12 65q-7 26 -8 41.5
t2 42.5q8 70 15 91q3 13 6 27q5 33 16 50q3 5 19 30q15 24 23 34q10 11 23 29q9 14 23 24q13 11 19 16q22 19 47 30q32 14 52 14q5 0 10 3q14 9 76 8q40 0 47.5 -1.5t18.5 -3.5q29 -5 54 -21q10 -6 21 -10q22 -9 41 -22q10 -7 28 -23.5t21.5 -22t12.5 -19.5q8 -13 14 -26
q3 -8 7 -15q11 -18 18 -49q4 -17 10 -35zM536 285q8 34 6 55q-2 16 -6 83q-3 61 -9 81q-8 26 -22 57q-5 13 -11 29q-19 46 -36 55q-5 3 -18 11q-9 6 -18 10q-6 2 -25 8q-37 13 -52 13q-6 0 -13 3q-7 2 -17 0q-9 -3 -27.5 -12t-25.5 -15q-23 -19 -42 -41q-15 -17 -22 -30
q-4 -8 -9.5 -24t-10 -31.5t-5.5 -20.5q-1 -8 -3 -20q-2 -10 -4.5 -49t-2.5 -57q0 -15 2.5 -35t2.5 -39q0 -38 5 -76q4 -20 18 -55q7 -17 19 -45q14 -34 30 -49q29 -26 58 -30q10 -1 20 -5q18 -7 38 -7q16 0 30 6q15 6 21 8q21 8 42 20q12 8 22 17q14 12 21 17q9 7 21 42
q6 19 12 35t7 46.5t4 44.5z" />
    <glyph glyph-name="O" unicode="&#xd6;" horiz-adv-x="699" 
d="M649 495q12 -36 21 -126q1 -16 0.5 -42t-2.5 -36l-5 -20q-3 -11 -4 -24q-4 -36 -10 -43q-3 -6 -4 -11q-8 -37 -25 -56q-4 -3 -6 -8q0 -2 -4.5 -9t-10.5 -14t-10 -10q-11 -9 -21 -19q-18 -18 -40 -32q-5 -3 -11 -8q-7 -5 -15 -8t-16 -8q-9 -5 -18 -8q-11 -3 -22 -7
q-12 -5 -25 -5q-11 -1 -22 -4q-10 -3 -19 -2q-25 -1 -47 -9q-10 -3 -20 0q-5 1 -17 3q-11 3 -20 7q-10 3 -20 5q-17 3 -30 15q-11 11 -33 19q-12 4 -22 14q-9 8 -18 15q-16 12 -27 30q-6 10 -15 18q-34 35 -41 48q-6 12 -14.5 38t-10.5 40q-4 33 -12 65q-7 26 -8 41.5
t2 42.5q8 70 15 91q3 13 6 27q5 33 16 50q3 5 19 30q15 24 23 34q10 11 23 29q9 14 23 24q13 11 19 16q22 19 47 30q32 14 52 14q5 0 10 3q14 9 76 8q40 0 47.5 -1.5t18.5 -3.5q29 -5 54 -21q10 -6 21 -10q22 -9 41 -22q10 -7 28 -23.5t21.5 -22t12.5 -19.5q8 -13 14 -26
q3 -8 7 -15q11 -18 18 -49q4 -17 10 -35zM536 285q8 34 6 55q-2 16 -6 83q-3 61 -9 81q-8 26 -22 57q-5 13 -11 29q-19 46 -36 55q-5 3 -18 11q-9 6 -18 10q-6 2 -25 8q-37 13 -52 13q-6 0 -13 3q-7 2 -17 0q-9 -3 -27.5 -12t-25.5 -15q-23 -19 -42 -41q-15 -17 -22 -30
q-4 -8 -9.5 -24t-10 -31.5t-5.5 -20.5q-1 -8 -3 -20q-2 -10 -4.5 -49t-2.5 -57q0 -15 2.5 -35t2.5 -39q0 -38 5 -76q4 -20 18 -55q7 -17 19 -45q14 -34 30 -49q29 -26 58 -30q10 -1 20 -5q18 -7 38 -7q16 0 30 6q15 6 21 8q21 8 42 20q12 8 22 17q14 12 21 17q9 7 21 42
q6 19 12 35t7 46.5t4 44.5z" />
    <glyph glyph-name="O" unicode="&#xd5;" horiz-adv-x="699" 
d="M649 495q12 -36 21 -126q1 -16 0.5 -42t-2.5 -36l-5 -20q-3 -11 -4 -24q-4 -36 -10 -43q-3 -6 -4 -11q-8 -37 -25 -56q-4 -3 -6 -8q0 -2 -4.5 -9t-10.5 -14t-10 -10q-11 -9 -21 -19q-18 -18 -40 -32q-5 -3 -11 -8q-7 -5 -15 -8t-16 -8q-9 -5 -18 -8q-11 -3 -22 -7
q-12 -5 -25 -5q-11 -1 -22 -4q-10 -3 -19 -2q-25 -1 -47 -9q-10 -3 -20 0q-5 1 -17 3q-11 3 -20 7q-10 3 -20 5q-17 3 -30 15q-11 11 -33 19q-12 4 -22 14q-9 8 -18 15q-16 12 -27 30q-6 10 -15 18q-34 35 -41 48q-6 12 -14.5 38t-10.5 40q-4 33 -12 65q-7 26 -8 41.5
t2 42.5q8 70 15 91q3 13 6 27q5 33 16 50q3 5 19 30q15 24 23 34q10 11 23 29q9 14 23 24q13 11 19 16q22 19 47 30q32 14 52 14q5 0 10 3q14 9 76 8q40 0 47.5 -1.5t18.5 -3.5q29 -5 54 -21q10 -6 21 -10q22 -9 41 -22q10 -7 28 -23.5t21.5 -22t12.5 -19.5q8 -13 14 -26
q3 -8 7 -15q11 -18 18 -49q4 -17 10 -35zM536 285q8 34 6 55q-2 16 -6 83q-3 61 -9 81q-8 26 -22 57q-5 13 -11 29q-19 46 -36 55q-5 3 -18 11q-9 6 -18 10q-6 2 -25 8q-37 13 -52 13q-6 0 -13 3q-7 2 -17 0q-9 -3 -27.5 -12t-25.5 -15q-23 -19 -42 -41q-15 -17 -22 -30
q-4 -8 -9.5 -24t-10 -31.5t-5.5 -20.5q-1 -8 -3 -20q-2 -10 -4.5 -49t-2.5 -57q0 -15 2.5 -35t2.5 -39q0 -38 5 -76q4 -20 18 -55q7 -17 19 -45q14 -34 30 -49q29 -26 58 -30q10 -1 20 -5q18 -7 38 -7q16 0 30 6q15 6 21 8q21 8 42 20q12 8 22 17q14 12 21 17q9 7 21 42
q6 19 12 35t7 46.5t4 44.5z" />
    <glyph glyph-name="O" unicode="&#xd4;" horiz-adv-x="699" 
d="M649 495q12 -36 21 -126q1 -16 0.5 -42t-2.5 -36l-5 -20q-3 -11 -4 -24q-4 -36 -10 -43q-3 -6 -4 -11q-8 -37 -25 -56q-4 -3 -6 -8q0 -2 -4.5 -9t-10.5 -14t-10 -10q-11 -9 -21 -19q-18 -18 -40 -32q-5 -3 -11 -8q-7 -5 -15 -8t-16 -8q-9 -5 -18 -8q-11 -3 -22 -7
q-12 -5 -25 -5q-11 -1 -22 -4q-10 -3 -19 -2q-25 -1 -47 -9q-10 -3 -20 0q-5 1 -17 3q-11 3 -20 7q-10 3 -20 5q-17 3 -30 15q-11 11 -33 19q-12 4 -22 14q-9 8 -18 15q-16 12 -27 30q-6 10 -15 18q-34 35 -41 48q-6 12 -14.5 38t-10.5 40q-4 33 -12 65q-7 26 -8 41.5
t2 42.5q8 70 15 91q3 13 6 27q5 33 16 50q3 5 19 30q15 24 23 34q10 11 23 29q9 14 23 24q13 11 19 16q22 19 47 30q32 14 52 14q5 0 10 3q14 9 76 8q40 0 47.5 -1.5t18.5 -3.5q29 -5 54 -21q10 -6 21 -10q22 -9 41 -22q10 -7 28 -23.5t21.5 -22t12.5 -19.5q8 -13 14 -26
q3 -8 7 -15q11 -18 18 -49q4 -17 10 -35zM536 285q8 34 6 55q-2 16 -6 83q-3 61 -9 81q-8 26 -22 57q-5 13 -11 29q-19 46 -36 55q-5 3 -18 11q-9 6 -18 10q-6 2 -25 8q-37 13 -52 13q-6 0 -13 3q-7 2 -17 0q-9 -3 -27.5 -12t-25.5 -15q-23 -19 -42 -41q-15 -17 -22 -30
q-4 -8 -9.5 -24t-10 -31.5t-5.5 -20.5q-1 -8 -3 -20q-2 -10 -4.5 -49t-2.5 -57q0 -15 2.5 -35t2.5 -39q0 -38 5 -76q4 -20 18 -55q7 -17 19 -45q14 -34 30 -49q29 -26 58 -30q10 -1 20 -5q18 -7 38 -7q16 0 30 6q15 6 21 8q21 8 42 20q12 8 22 17q14 12 21 17q9 7 21 42
q6 19 12 35t7 46.5t4 44.5z" />
    <glyph glyph-name="O" unicode="&#xd3;" horiz-adv-x="699" 
d="M649 495q12 -36 21 -126q1 -16 0.5 -42t-2.5 -36l-5 -20q-3 -11 -4 -24q-4 -36 -10 -43q-3 -6 -4 -11q-8 -37 -25 -56q-4 -3 -6 -8q0 -2 -4.5 -9t-10.5 -14t-10 -10q-11 -9 -21 -19q-18 -18 -40 -32q-5 -3 -11 -8q-7 -5 -15 -8t-16 -8q-9 -5 -18 -8q-11 -3 -22 -7
q-12 -5 -25 -5q-11 -1 -22 -4q-10 -3 -19 -2q-25 -1 -47 -9q-10 -3 -20 0q-5 1 -17 3q-11 3 -20 7q-10 3 -20 5q-17 3 -30 15q-11 11 -33 19q-12 4 -22 14q-9 8 -18 15q-16 12 -27 30q-6 10 -15 18q-34 35 -41 48q-6 12 -14.5 38t-10.5 40q-4 33 -12 65q-7 26 -8 41.5
t2 42.5q8 70 15 91q3 13 6 27q5 33 16 50q3 5 19 30q15 24 23 34q10 11 23 29q9 14 23 24q13 11 19 16q22 19 47 30q32 14 52 14q5 0 10 3q14 9 76 8q40 0 47.5 -1.5t18.5 -3.5q29 -5 54 -21q10 -6 21 -10q22 -9 41 -22q10 -7 28 -23.5t21.5 -22t12.5 -19.5q8 -13 14 -26
q3 -8 7 -15q11 -18 18 -49q4 -17 10 -35zM536 285q8 34 6 55q-2 16 -6 83q-3 61 -9 81q-8 26 -22 57q-5 13 -11 29q-19 46 -36 55q-5 3 -18 11q-9 6 -18 10q-6 2 -25 8q-37 13 -52 13q-6 0 -13 3q-7 2 -17 0q-9 -3 -27.5 -12t-25.5 -15q-23 -19 -42 -41q-15 -17 -22 -30
q-4 -8 -9.5 -24t-10 -31.5t-5.5 -20.5q-1 -8 -3 -20q-2 -10 -4.5 -49t-2.5 -57q0 -15 2.5 -35t2.5 -39q0 -38 5 -76q4 -20 18 -55q7 -17 19 -45q14 -34 30 -49q29 -26 58 -30q10 -1 20 -5q18 -7 38 -7q16 0 30 6q15 6 21 8q21 8 42 20q12 8 22 17q14 12 21 17q9 7 21 42
q6 19 12 35t7 46.5t4 44.5z" />
    <glyph glyph-name="O" unicode="&#xd2;" horiz-adv-x="699" 
d="M649 495q12 -36 21 -126q1 -16 0.5 -42t-2.5 -36l-5 -20q-3 -11 -4 -24q-4 -36 -10 -43q-3 -6 -4 -11q-8 -37 -25 -56q-4 -3 -6 -8q0 -2 -4.5 -9t-10.5 -14t-10 -10q-11 -9 -21 -19q-18 -18 -40 -32q-5 -3 -11 -8q-7 -5 -15 -8t-16 -8q-9 -5 -18 -8q-11 -3 -22 -7
q-12 -5 -25 -5q-11 -1 -22 -4q-10 -3 -19 -2q-25 -1 -47 -9q-10 -3 -20 0q-5 1 -17 3q-11 3 -20 7q-10 3 -20 5q-17 3 -30 15q-11 11 -33 19q-12 4 -22 14q-9 8 -18 15q-16 12 -27 30q-6 10 -15 18q-34 35 -41 48q-6 12 -14.5 38t-10.5 40q-4 33 -12 65q-7 26 -8 41.5
t2 42.5q8 70 15 91q3 13 6 27q5 33 16 50q3 5 19 30q15 24 23 34q10 11 23 29q9 14 23 24q13 11 19 16q22 19 47 30q32 14 52 14q5 0 10 3q14 9 76 8q40 0 47.5 -1.5t18.5 -3.5q29 -5 54 -21q10 -6 21 -10q22 -9 41 -22q10 -7 28 -23.5t21.5 -22t12.5 -19.5q8 -13 14 -26
q3 -8 7 -15q11 -18 18 -49q4 -17 10 -35zM536 285q8 34 6 55q-2 16 -6 83q-3 61 -9 81q-8 26 -22 57q-5 13 -11 29q-19 46 -36 55q-5 3 -18 11q-9 6 -18 10q-6 2 -25 8q-37 13 -52 13q-6 0 -13 3q-7 2 -17 0q-9 -3 -27.5 -12t-25.5 -15q-23 -19 -42 -41q-15 -17 -22 -30
q-4 -8 -9.5 -24t-10 -31.5t-5.5 -20.5q-1 -8 -3 -20q-2 -10 -4.5 -49t-2.5 -57q0 -15 2.5 -35t2.5 -39q0 -38 5 -76q4 -20 18 -55q7 -17 19 -45q14 -34 30 -49q29 -26 58 -30q10 -1 20 -5q18 -7 38 -7q16 0 30 6q15 6 21 8q21 8 42 20q12 8 22 17q14 12 21 17q9 7 21 42
q6 19 12 35t7 46.5t4 44.5z" />
    <glyph glyph-name="P" unicode="P" horiz-adv-x="591" 
d="M31 703q7 -2 45 -2q42 0 77 8l28 4q21 2 41 7q29 7 46 8.5t65 0.5q55 0 78 -3t46 -12q40 -16 59 -44q9 -12 19 -22q8 -7 10.5 -10t7 -12t7.5 -18t11 -34q10 -25 7 -52q-1 -15 -3 -33q-3 -30 -13 -45q-15 -22 -34 -41q-7 -6 -13 -14q-7 -10 -23.5 -22.5t-35 -22
t-32.5 -11.5q-8 -2 -18 -5q-17 -5 -47.5 -10t-37.5 -4q-9 0 -17 -2q-16 -4 -32 -3h-23t-2 -11q3 -39 1 -52q-3 -11 -3 -40q-1 -77 4 -100q2 -9 4 -22q2 -18 16 -34q9 -9 14 -16q7 -7 15 -12q9 -5 15 -9q26 -17 33 -19q6 -1 8 -6t-2 -8q-3 -3 -20 -2q-14 0 -27 2q-13 3 -26 8
q-25 9 -70 12q-74 5 -104 -1q-16 -4 -24 -5l-28 -8q-17 -5 -22 -5t-8 5q-3 6 4 10q14 9 27 20q11 9 29 21q29 20 36 33q2 4 9 23t7 35q1 14 -1 28q-3 18 -3 37q0 24 3.5 38t2.5 35q-1 18 -4 35q-3 13 -2 82q0 68 1 78q0 9 -2 25q-5 57 -6 92q0 7 -1 18q-2 10 -1 20l2 8
l-11 13q-8 9 -17 16q-11 5 -22.5 7.5t-21.5 6.5q-6 3 -14 6q-7 2 -15 6t-14 8t-7 5q-4 6 2 11q7 7 27 0zM250 457q-2 -21 -1 -41l1 -32l9 -1q9 -1 40 -2t35 -1q5 1 10 1q18 3 31 16q5 6 12 9q6 1 10 7q4 5 9 9q6 4 14 26q7 17 10 44q2 18 2 36q-5 65 -8 72q-9 20 -35 37
q-8 6 -17 10q-6 2 -11 4q-11 4 -22 5q-11 2 -21 4q-25 7 -36 6q-10 -1 -21 -1l-10 1l1 -25q1 -24 2 -34q2 -6 1 -12q-1 -9 1 -17q2 -16 -1 -42q-2 -25 -3 -47t-2 -32z" />
    <glyph glyph-name="Q" unicode="Q" horiz-adv-x="708" 
d="M667 487q3 -14 6 -23q4 -14 6.5 -58t0.5 -63q-6 -53 -24 -103q-6 -16 -14 -48q-12 -46 -23 -62q-14 -18 -26 -37q-11 -18 -28 -31q-6 -3 -13 -9l-8 -6l4 -3q5 -3 12 -10q7 -6 16 -10t27.5 -18t27.5 -23q7 -6 16 -8q5 -1 10 -6t5 -8q0 -7 -7 -8q-9 3 -17 7q-27 12 -64 16
q-12 2 -24 6q-63 19 -119 11q-15 -2 -36 -3q-16 -1 -31 -4q-11 -3 -22 -3q-14 -1 -28 -3q-19 -3 -38 -3q-34 0 -66 -10q-19 -6 -20.5 -6t-34.5 -14q-47 -20 -62 -33q-8 -7 -14 -4q-7 6 1 16q10 12 18 26q2 3 20 16.5t29 19.5q28 14 37 25l6 7l-14 12q-11 10 -23 18
q-16 10 -29 23q-24 26 -38 58q-2 3 -4 8t-3.5 8.5l-3 7t-2.5 5.5q-34 78 -41 116q-4 25 -4.5 70.5t2.5 74.5q11 78 36 129q13 26 38.5 63t41.5 53q17 17 50 34q10 6 24 15q11 8 17.5 10t37.5 8q29 6 36 7q46 9 114 -5q13 -2 20 -3q15 -2 39.5 -13t37.5 -22q7 -5 16 -10
q16 -8 34 -29q19 -21 28 -38q10 -17 13 -22q3 -6 11 -21q9 -16 14 -24q5 -9 10 -19q4 -8 8 -17q4 -5 6 -12q2 -9 5 -18zM540 341q1 55 -2 86q-5 50 -11 65l-4 16q-2 9 -8 28q-21 72 -50 89q-6 3 -23 15q-24 17 -38 21l-12 6q-11 5 -23 6q-9 1 -19 3q-4 1 -9 1q-3 0 -6 2
q-3 5 -29 -1q-9 -1 -18 -3q-4 0 -17.5 -8.5t-21.5 -17.5q-11 -10 -22.5 -27.5t-21.5 -37t-16 -36.5q-17 -54 -25 -111q-1 -19 -0.5 -78.5t3.5 -83.5q6 -64 34 -132q21 -52 56 -70q13 -6 25 -12.5t28.5 -7.5t22.5 -2q8 -2 27 -2t29 2q40 8 63 24q8 5 14 17q8 13 18 24
q14 15 23 39q3 8 6 15q4 12 7 24q15 66 17 82t3 65z" />
    <glyph glyph-name="R" unicode="R" horiz-adv-x="712" 
d="M723 -14q-3 -2 -24 1q-51 8 -110 5q-79 -4 -106 -16q-14 -6 -30 -8q-16 -3 -19 -3t-6 3q-6 10 12 19q29 14 35 21q4 4 3 16q-1 10 -5 19q-4 8 -11.5 25.5t-18.5 35.5q-9 17 -17 34q-8 22 -20 39q-8 12 -12.5 25t-12.5 25q-10 14 -14 22q-9 16 -23 33.5t-18 17.5
q-5 1 -10 3q-9 3 -40 4q-18 0 -35 2q-2 1 -2 -1v-9q1 -10 3 -37t2.5 -28t2.5 -32q2 -56 10 -87q2 -7 3 -15q0 -5 6.5 -22.5t11.5 -26.5q6 -12 18.5 -23.5t20.5 -12.5q12 -2 12 -10q0 -7 -5.5 -9.5t-12.5 1.5q-28 14 -106 20q-44 4 -104 -8q-15 -2 -39 -9t-28 -9
q-5 -4 -11 -2t-6 7.5t9 9.5q11 6 24.5 18.5t18.5 20.5q2 6 10 16q14 22 19.5 34.5t12.5 37.5l7 27l1 53q0 52 -2 87t0 70q2 25 0 49q-1 13 0.5 25.5t0.5 19.5q-5 20 -6 58q0 19 -2 36q-2 14 0 28q5 31 -1 47q-8 20 -18 32q-17 21 -44 28q-38 11 -42 18q-2 4 -0.5 7.5
t4.5 5.5q5 2 17 0q25 -5 62 -8t50 -1q11 2 22 2q10 0 28 1q122 11 163 9q50 -2 85 -14q12 -4 30 -15t23 -17q19 -22 24 -32q3 -8 17 -35q17 -34 19 -64q1 -28 -6 -71q-3 -16 -9 -26q-7 -10 -13 -21q-5 -11 -23 -28q-35 -35 -48 -41q-9 -5 -20 -11l-10 -5l5 -3q7 -5 12 -12
q6 -9 10 -13t19.5 -28t22.5 -33q9 -11 54 -100q29 -55 45 -76q12 -14 46 -37q28 -19 51 -29q27 -11 33.5 -14.5t7.5 -7.5q0 -5 -3 -8zM412 528q0 26 -0.5 36t-3 18t-8.5 24q-6 13 -16 22q-8 7 -17 13q-6 3 -10 7q-7 5 -29 13q-23 8 -40 8q-12 0 -31 -1t-21 -3t5 -34v-33
t-1.5 -58t-2.5 -52q-4 -47 -2 -94l1 -12h8q8 1 23 3t33 3.5t33 8.5q10 6 22 9q6 0 15 4.5t11 7.5q6 8 23 40q8 15 8 70z" />
    <glyph glyph-name="S" unicode="S" horiz-adv-x="489" 
d="M453 142l-4 -10q-5 -23 -14 -33q-4 -5 -7 -10t-7.5 -8.5t-6.5 -9.5q-10 -22 -37 -43q-9 -8 -16 -14q-11 -11 -23 -13q-7 0 -13 -3q-20 -8 -41 -10q-15 -1 -21 -1q-8 -1 -17 0q-10 1 -25 9q-13 6 -27 11q-14 4 -27 10q-17 8 -31 23q-12 12 -21 24q-5 7 -10 13l-4 4l-4 -10
q-13 -42 -27 -56q-5 -5 -10 -5q-6 0 -7.5 5.5t-1.5 27.5q0 27 -4 53q-3 30 -7 128q-1 41 -0.5 49t6.5 8q5 0 9 -3q9 -7 14 -52q2 -24 9 -48q9 -24 20 -35q5 -5 18 -16q25 -24 48 -50q7 -8 26 -14q10 -4 20 -9q17 -9 44 -5q15 1 19 -0.5t5 -0.5q2 2 5 3q9 4 16 10q8 7 18 12
q4 2 9 7.5t5 8.5l4 8q4 5 5 11q1 5 3 10q5 10 4.5 45.5t-6.5 46.5q-12 25 -54 51q-5 3 -20 13q-30 22 -39 22l-16 10q-8 6 -17 11q-7 0 -26 17q-13 12 -21 18t-14 12q-6 5 -12 8q-11 6 -28 39q-6 13 -17 23q-10 9 -13.5 16t-8.5 26q-3 11 -6 21t-3 45t2 45q3 9 4 19
q3 13 8 25q19 43 54 77q14 14 26 20q13 6 21 10q8 3 37 3q19 0 37 -1q9 -2 17 -2q9 0 31 -10q14 -6 27 -13q5 -4 15 -11q16 -10 42 -37q12 -12 13 -10q0 3 2 10q3 7 11 28q4 9 7.5 15.5t6.5 9.5t5.5 3t5.5 -3q5 -5 1 -20q-2 -12 -6 -70t-4 -89q0 -27 -2 -33.5t-11 -4.5
q-2 1 -2.5 1.5t-1.5 3t-2 6t-2 11.5q-6 33 -20 62q-9 18 -26.5 36t-23.5 26q-5 6 -10 11q-4 4 -14 10.5t-12 6.5q-5 1 -10 4q-15 8 -38 5q-24 -3 -45 -14q-10 -5 -15 -9t-16 -18q-6 -8 -8.5 -12.5t-4 -10.5t-1.5 -17q-1 -19 2 -29t5 -17q8 -32 57 -60q8 -5 15 -11
q11 -8 23 -16q15 -8 31 -19t32 -21q40 -24 72 -60q37 -40 47 -64q4 -10 15 -32q8 -15 14 -32q6 -27 5 -54q-3 -37 -9 -48z" />
    <glyph glyph-name="T" unicode="T" horiz-adv-x="624" 
d="M616 713q3 -6 -4 -19q-16 -31 -22 -106q-1 -22 -3.5 -39t-2.5 -26q0 -22 -4 -25q-6 -3 -11 2q-3 2 -3 14q0 13 -4 26q-5 14 -5 16q0 5 -22 50q-8 16 -17 22q-27 18 -74 22q-9 1 -39 0t-31 -2q-5 -4 -5 -93q0 -57 1 -194q1 -135 -1 -157.5t0 -40.5q2 -19 3 -38
q0 -20 3 -31q6 -19 20 -33q20 -22 62 -43q10 -5 17 -10q5 -3 10 -4q8 -2 9 -10q0 -3 -3 -6q-4 -3 -37 4q-22 4 -58 8q-33 5 -67 3q-69 -2 -116 -5q-50 -4 -62 -11q-9 -4 -14 2q-3 3 -2.5 7t4.5 6q2 2 6 3q2 0 27 15q47 26 63 44q14 17 19 33t5 50q0 29 -2 44q-3 35 -3 123
t3 121q2 18 2 54.5t-2 53.5q-3 23 -2 93q1 11 0 22q-1 1 -38.5 -1t-46.5 -3q-32 -6 -44 -13q-11 -7 -19 -16q-12 -12 -26 -36t-23 -43q-20 -42 -27 -43q-4 0 -8 3t-4 7q0 1 2.5 10t6 18t5.5 12q2 9 3 18q1 15 2 26q1 12 -2 25q-2 11 -1 23t-9 39q-5 12 -8 22q-3 8 -8 16
q-6 10 0 15.5t17 -2.5q43 -31 99 -35q11 -1 76.5 0.5t73.5 3.5q18 3 125 -3q53 -2 106 3q66 7 88 12q18 4 22 -3z" />
    <glyph glyph-name="U" unicode="U" horiz-adv-x="662" 
d="M420 3q-8 -6 -43 -11t-56 -2q-34 4 -66 14q-58 20 -71 27q-4 3 -8 5q-4 0 -19 17t-23 30q-21 34 -29 73q-4 16 -5.5 47t-3.5 55q0 3 -1.5 25.5t-2.5 34.5q-2 37 -1 77q3 141 5 151q2 8 1 39q-1 30 -4 46t-13 35q-8 17 -27 32.5t-38 20.5q-6 1 -11 4q-2 1 -2 6t2 7
q5 5 20 -1q12 -4 84 -16q32 -6 80.5 -7t83.5 3q14 1 29 1q4 0 7 -4t2 -8t-14 -8q-14 -4 -28.5 -11.5t-25.5 -16.5t-16 -17q-8 -12 -9 -114q-1 -95 -1 -115.5v-67.5q-1 -127 4 -151q8 -40 10.5 -49t11.5 -30q7 -15 12 -18q7 -4 12 -11q21 -24 66 -35q17 -4 42 -4h24l15 6
q14 5 15 5q2 0 14.5 12t15.5 18q7 10 16 20q23 27 31 58q3 14 9 66q2 24 3 152q0 199 -8 252q-2 8 -10 19q-7 9 -15 17q-15 15 -50 27q-17 6 -19 11q-1 4 1.5 7.5t6.5 3.5q15 -4 30 -10q29 -10 39 -12.5t32 -2.5q35 0 61 10q11 4 33 9.5t29 5.5q4 1 7.5 -2t3.5 -8
q0 -3 -4 -6t-21 -12q-16 -8 -31 -18q-10 -7 -16 -11q-5 -3 -10.5 -11t-5.5 -13q-1 -6 -2 -11q-3 -8 -4.5 -115.5t0.5 -164.5q4 -120 2 -143q-5 -42 -15 -69q-5 -13 -6 -18q-8 -22 -20 -41q-14 -17 -29 -32q-23 -25 -35.5 -34.5t-25.5 -12.5q-8 -1 -15 -5z" />
    <glyph glyph-name="U" unicode="&#xdc;" horiz-adv-x="662" 
d="M420 3q-8 -6 -43 -11t-56 -2q-34 4 -66 14q-58 20 -71 27q-4 3 -8 5q-4 0 -19 17t-23 30q-21 34 -29 73q-4 16 -5.5 47t-3.5 55q0 3 -1.5 25.5t-2.5 34.5q-2 37 -1 77q3 141 5 151q2 8 1 39q-1 30 -4 46t-13 35q-8 17 -27 32.5t-38 20.5q-6 1 -11 4q-2 1 -2 6t2 7
q5 5 20 -1q12 -4 84 -16q32 -6 80.5 -7t83.5 3q14 1 29 1q4 0 7 -4t2 -8t-14 -8q-14 -4 -28.5 -11.5t-25.5 -16.5t-16 -17q-8 -12 -9 -114q-1 -95 -1 -115.5v-67.5q-1 -127 4 -151q8 -40 10.5 -49t11.5 -30q7 -15 12 -18q7 -4 12 -11q21 -24 66 -35q17 -4 42 -4h24l15 6
q14 5 15 5q2 0 14.5 12t15.5 18q7 10 16 20q23 27 31 58q3 14 9 66q2 24 3 152q0 199 -8 252q-2 8 -10 19q-7 9 -15 17q-15 15 -50 27q-17 6 -19 11q-1 4 1.5 7.5t6.5 3.5q15 -4 30 -10q29 -10 39 -12.5t32 -2.5q35 0 61 10q11 4 33 9.5t29 5.5q4 1 7.5 -2t3.5 -8
q0 -3 -4 -6t-21 -12q-16 -8 -31 -18q-10 -7 -16 -11q-5 -3 -10.5 -11t-5.5 -13q-1 -6 -2 -11q-3 -8 -4.5 -115.5t0.5 -164.5q4 -120 2 -143q-5 -42 -15 -69q-5 -13 -6 -18q-8 -22 -20 -41q-14 -17 -29 -32q-23 -25 -35.5 -34.5t-25.5 -12.5q-8 -1 -15 -5z" />
    <glyph glyph-name="U" unicode="&#xdb;" horiz-adv-x="662" 
d="M420 3q-8 -6 -43 -11t-56 -2q-34 4 -66 14q-58 20 -71 27q-4 3 -8 5q-4 0 -19 17t-23 30q-21 34 -29 73q-4 16 -5.5 47t-3.5 55q0 3 -1.5 25.5t-2.5 34.5q-2 37 -1 77q3 141 5 151q2 8 1 39q-1 30 -4 46t-13 35q-8 17 -27 32.5t-38 20.5q-6 1 -11 4q-2 1 -2 6t2 7
q5 5 20 -1q12 -4 84 -16q32 -6 80.5 -7t83.5 3q14 1 29 1q4 0 7 -4t2 -8t-14 -8q-14 -4 -28.5 -11.5t-25.5 -16.5t-16 -17q-8 -12 -9 -114q-1 -95 -1 -115.5v-67.5q-1 -127 4 -151q8 -40 10.5 -49t11.5 -30q7 -15 12 -18q7 -4 12 -11q21 -24 66 -35q17 -4 42 -4h24l15 6
q14 5 15 5q2 0 14.5 12t15.5 18q7 10 16 20q23 27 31 58q3 14 9 66q2 24 3 152q0 199 -8 252q-2 8 -10 19q-7 9 -15 17q-15 15 -50 27q-17 6 -19 11q-1 4 1.5 7.5t6.5 3.5q15 -4 30 -10q29 -10 39 -12.5t32 -2.5q35 0 61 10q11 4 33 9.5t29 5.5q4 1 7.5 -2t3.5 -8
q0 -3 -4 -6t-21 -12q-16 -8 -31 -18q-10 -7 -16 -11q-5 -3 -10.5 -11t-5.5 -13q-1 -6 -2 -11q-3 -8 -4.5 -115.5t0.5 -164.5q4 -120 2 -143q-5 -42 -15 -69q-5 -13 -6 -18q-8 -22 -20 -41q-14 -17 -29 -32q-23 -25 -35.5 -34.5t-25.5 -12.5q-8 -1 -15 -5z" />
    <glyph glyph-name="U" unicode="&#xda;" horiz-adv-x="662" 
d="M420 3q-8 -6 -43 -11t-56 -2q-34 4 -66 14q-58 20 -71 27q-4 3 -8 5q-4 0 -19 17t-23 30q-21 34 -29 73q-4 16 -5.5 47t-3.5 55q0 3 -1.5 25.5t-2.5 34.5q-2 37 -1 77q3 141 5 151q2 8 1 39q-1 30 -4 46t-13 35q-8 17 -27 32.5t-38 20.5q-6 1 -11 4q-2 1 -2 6t2 7
q5 5 20 -1q12 -4 84 -16q32 -6 80.5 -7t83.5 3q14 1 29 1q4 0 7 -4t2 -8t-14 -8q-14 -4 -28.5 -11.5t-25.5 -16.5t-16 -17q-8 -12 -9 -114q-1 -95 -1 -115.5v-67.5q-1 -127 4 -151q8 -40 10.5 -49t11.5 -30q7 -15 12 -18q7 -4 12 -11q21 -24 66 -35q17 -4 42 -4h24l15 6
q14 5 15 5q2 0 14.5 12t15.5 18q7 10 16 20q23 27 31 58q3 14 9 66q2 24 3 152q0 199 -8 252q-2 8 -10 19q-7 9 -15 17q-15 15 -50 27q-17 6 -19 11q-1 4 1.5 7.5t6.5 3.5q15 -4 30 -10q29 -10 39 -12.5t32 -2.5q35 0 61 10q11 4 33 9.5t29 5.5q4 1 7.5 -2t3.5 -8
q0 -3 -4 -6t-21 -12q-16 -8 -31 -18q-10 -7 -16 -11q-5 -3 -10.5 -11t-5.5 -13q-1 -6 -2 -11q-3 -8 -4.5 -115.5t0.5 -164.5q4 -120 2 -143q-5 -42 -15 -69q-5 -13 -6 -18q-8 -22 -20 -41q-14 -17 -29 -32q-23 -25 -35.5 -34.5t-25.5 -12.5q-8 -1 -15 -5z" />
    <glyph glyph-name="U" unicode="&#xd9;" horiz-adv-x="662" 
d="M420 3q-8 -6 -43 -11t-56 -2q-34 4 -66 14q-58 20 -71 27q-4 3 -8 5q-4 0 -19 17t-23 30q-21 34 -29 73q-4 16 -5.5 47t-3.5 55q0 3 -1.5 25.5t-2.5 34.5q-2 37 -1 77q3 141 5 151q2 8 1 39q-1 30 -4 46t-13 35q-8 17 -27 32.5t-38 20.5q-6 1 -11 4q-2 1 -2 6t2 7
q5 5 20 -1q12 -4 84 -16q32 -6 80.5 -7t83.5 3q14 1 29 1q4 0 7 -4t2 -8t-14 -8q-14 -4 -28.5 -11.5t-25.5 -16.5t-16 -17q-8 -12 -9 -114q-1 -95 -1 -115.5v-67.5q-1 -127 4 -151q8 -40 10.5 -49t11.5 -30q7 -15 12 -18q7 -4 12 -11q21 -24 66 -35q17 -4 42 -4h24l15 6
q14 5 15 5q2 0 14.5 12t15.5 18q7 10 16 20q23 27 31 58q3 14 9 66q2 24 3 152q0 199 -8 252q-2 8 -10 19q-7 9 -15 17q-15 15 -50 27q-17 6 -19 11q-1 4 1.5 7.5t6.5 3.5q15 -4 30 -10q29 -10 39 -12.5t32 -2.5q35 0 61 10q11 4 33 9.5t29 5.5q4 1 7.5 -2t3.5 -8
q0 -3 -4 -6t-21 -12q-16 -8 -31 -18q-10 -7 -16 -11q-5 -3 -10.5 -11t-5.5 -13q-1 -6 -2 -11q-3 -8 -4.5 -115.5t0.5 -164.5q4 -120 2 -143q-5 -42 -15 -69q-5 -13 -6 -18q-8 -22 -20 -41q-14 -17 -29 -32q-23 -25 -35.5 -34.5t-25.5 -12.5q-8 -1 -15 -5z" />
    <glyph glyph-name="V" unicode="V" horiz-adv-x="652" 
d="M640 713q15 2 17 -6q1 -8 -6 -12q-40 -14 -51 -26q-4 -5 -13.5 -22.5t-18 -37t-12.5 -31.5q-2 -7 -11 -29q-20 -51 -27 -74q-3 -10 -11 -31q-23 -55 -46 -125q-10 -30 -15 -40q-5 -15 -8 -29q-5 -18 -18.5 -58t-16.5 -52t-9 -30q-9 -30 -24 -84q-9 -33 -16 -37
q-4 -3 -25.5 -3t-23.5 2q-5 8 -8 17q-5 14 -8 21q-21 48 -41 125q-18 66 -26 88q-2 7 -5 19.5t-13 41.5q-9 30 -16 53q-16 52 -33 94q-11 27 -23 63q-41 128 -61 152q-6 7 -11 14q-6 9 -29.5 28.5t-31.5 22.5q-7 2 -8 6q-1 6 3.5 9.5t10.5 0.5q8 -2 17 -4q12 -1 26 -4
q39 -7 117 -9q80 -2 120 3q13 1 28 1q16 0 19 -3q2 -3 1 -7t-4 -5q-12 -5 -24 -8q-29 -8 -57 -22q-17 -10 -19 -30l-2 -12q0 -5 2 -9q4 -9 12 -51q11 -56 32 -109q13 -32 15 -41q3 -9 11 -30q17 -42 39 -115q9 -32 22 -62l8 -14l1 2q5 9 27 81q21 69 66 184q10 27 21 60
t16 45q13 38 15 62q1 16 -1 20q-1 3 -13 9.5t-21 8.5q-25 5 -41 7q-8 1 -15 5t-7 9q0 8 7.5 9.5t28.5 -1.5q53 -7 106 -8q41 0 82 8z" />
    <glyph glyph-name="W" unicode="W" horiz-adv-x="860" 
d="M559 15q-9 32 -17 69q-9 41 -25 93q-6 22 -11 42t-11 42q-5 20 -18 70q-12 47 -15 56q-2 9 -4 17q-2 10 -19 62q-4 13 -7 28q-1 4 -3 11.5t-4 14t-3 6.5q-4 0 -29 -107q-2 -10 -8 -33t-9 -36q-8 -45 -33 -120q-11 -35 -15 -52q-10 -49 -18 -77q-6 -25 -11 -47
q-9 -42 -14 -52q-7 -10 -20 -12q-28 0 -35 4q-3 1 -3 4t-2 4q-6 5 -13 39q-3 15 -8 33t-11 42q-5 24 -7 33t-5 25q-4 18 -11 36q-7 20 -9 25q-5 25 -7 51q-1 11 -4 28q-4 17 -8 44q-4 22 -10 43q-5 16 -9 30q-10 41 -32 107q-12 35 -14 44t-4 19q-2 12 -13 43.5t-15 37.5
q-3 5 -18.5 20.5t-27.5 26.5q-16 14 -16 17q1 4 4 6q4 3 18 -2q25 -10 69 -15q14 -1 27 -3q48 -9 120 -9q41 -1 43 -3q5 -6 -1 -12q-10 -5 -21 -8q-34 -10 -43 -29q-3 -6 -1 -18t1 -25q-1 -15 2 -30q6 -37 17 -74q7 -20 17 -61q8 -33 15 -70l6 -24q9 -21 15 -62q2 -14 6 -29
q5 -17 9 -34l6 -16l4 14q3 13 7 23q8 23 22 83q13 55 33 108q8 21 17 51q10 31 11 34q2 5 4 18q12 57 14 69t0 19q-1 5 -5.5 11t-7.5 6q-4 0 -6 6t2 9q2 2 38 -3q51 -7 101 0q6 1 9.5 -2t3.5 -8q-1 -5 -11 -10q-6 -3 -12 -7q-5 -6 15 -64q12 -38 14 -48q3 -10 18.5 -65
t22 -82t11.5 -41q17 -49 28 -101l2 -8l5 17q10 29 16 59q2 13 6 24q5 17 16 72q8 39 21 78q11 34 17 93q5 42 4.5 56.5t-7.5 26.5q-10 20 -26 27q-7 4 -20 10q-11 6 -15.5 8.5t-6.5 4t-2 4.5q0 4 2 7q3 3 46 0q16 -2 55.5 0.5t58.5 5.5q18 4 54 9q11 1 13 -2q5 -5 2 -12
q-9 -5 -18 -8q-39 -14 -56 -45q-20 -34 -31 -91q-3 -15 -7 -27q-12 -41 -21 -109q-2 -18 -8 -40q-5 -23 -11 -51q-6 -29 -7 -33q-2 -6 -3 -12q-2 -8 -6 -15q-4 -10 -6 -21q-3 -12 -7 -22.5t-10 -48.5q-10 -52 -25 -116q-5 -21 -6 -27t-4.5 -20.5t-4.5 -26.5q-1 -10 -4 -18
q-4 -7 -9.5 -9t-23.5 -2l-21 -1l-6 4q-6 4 -12 26z" />
    <glyph glyph-name="X" unicode="X" horiz-adv-x="693" 
d="M681 -10q-7 1 -24 3q-19 4 -68 8q-72 5 -144 3q-36 -1 -46 -3q-11 -1 -29 -4q-19 -2 -22 0q-8 5 -1 15q5 7 33 14q23 7 34 15t17 22q3 7 5 15q0 8 -24 49q-19 33 -32 58q-20 39 -45 76q-18 29 -19 29t-2 -1.5t-2.5 -3.5t-3.5 -4.5t-5 -6.5t-6 -9q-13 -17 -23 -31
q-22 -28 -32 -42t-17 -26t-18 -32q-12 -23 -14 -32.5t0 -22.5q4 -20 20 -32q21 -14 45 -22q5 -1 18 -9t15 -12q2 -2 2 -5.5t-3 -5.5t-6.5 -1.5t-21.5 5.5q-12 3 -26 5q-11 2 -30 5q-29 5 -84.5 3t-91.5 -9q-11 -2 -23 -2q-2 0 -5 5t-2 7q2 5 18 15q18 11 35 25q9 6 18 13
q19 13 86 96q14 17 24 28q32 33 55 72q36 60 44 70l6 8l-5 7q-4 8 -10 21q-8 15 -17 30q-11 16 -20 31t-19 30l-33 50q-23 34 -30 46q-6 11 -13 21q-7 11 -17 26q-9 16 -18 27q-8 12 -15 21q-9 14 -25 28q-22 19 -27 19q-7 1 -13.5 4t-12.5 4q-4 -1 -7 2t-3 7q0 9 9.5 9.5
t33.5 -7.5q30 -9 61 -13q13 -2 63 -1.5t68 4.5q19 3 33 5t23 5q8 2 15.5 3.5t10.5 2.5t8 -3t5 -8t-3 -7q-7 -6 -27 -15.5t-30 -11.5q-7 -1 -12 -5q-12 -11 27 -77q10 -18 17 -31t20 -33q28 -42 43 -70q2 -3 5 3q17 26 32 52q10 18 24 39q49 70 52 96q0 8 -5 13q-6 6 -35 16
q-17 6 -15 15q2 6 10.5 7t49.5 1q50 0 77 4q40 7 65 17q19 7 25 9q4 1 9 4t12 1q5 -5 5 -12q0 -5 -30 -23q-63 -37 -88 -62q-10 -11 -44 -58q-5 -8 -18 -25q-34 -48 -41 -60q-3 -4 -10 -14q-10 -11 -38 -53l-10 -14l16 -34q25 -50 47 -80q21 -29 39 -61q58 -100 84 -139
q20 -29 44 -54q19 -16 41 -27q36 -17 24 -28q-2 -2 -5 -3q-1 0 -7 1z" />
    <glyph glyph-name="Y" unicode="Y" horiz-adv-x="642" 
d="M633 732q8 4 13 -1q8 -8 -4 -18q-21 -17 -60 -45q-13 -9 -22.5 -20.5t-38.5 -55.5q-22 -32 -29 -49q-11 -25 -26 -49q-9 -13 -25 -45.5t-24.5 -47.5t-17.5 -33t-15 -29q-9 -14 -11 -23t-3 -28q0 -22 -2 -56q-3 -72 2 -97q4 -19 7 -33q7 -34 41 -70q12 -12 16 -15t11 -5
q9 -3 12 -5t3 -6q0 -7 -11 -9q-7 -1 -13 2q-14 8 -66.5 12.5t-95.5 1.5q-51 -3 -102 -11q-17 -4 -22 -2.5t-5 9.5t32 19q14 4 27 10q34 20 40 89q0 10 2 21q1 2 2 35q2 34 3 72l2 38l-5 11q-5 10 -10 18t-31 60t-32 68q-7 17 -16 34q-20 32 -33 68q-4 11 -9 21q-2 4 -4 7
q-1 4 -3 8l-6 14q-2 5 -7.5 14t-11.5 18.5t-12 18t-9 11.5q-20 20 -45 35q-26 15 -26 18q-1 6 3 11q3 3 17 1q23 -5 53 -12q12 -2 58 -5t77 0q39 3 77 10q19 3 24 1q3 -2 4 -6t-1 -8q-6 -8 -40 -24q-23 -11 -29 -22q-4 -8 -2.5 -17t9.5 -35q21 -67 36 -92q4 -6 14 -29
q29 -62 37 -77q7 -12 13 -25q2 -7 6 -12q2 3 4 7q3 7 16 29q8 14 31.5 60t44 88.5t23.5 49.5q4 11 3 23q-1 19 -12 29q-5 5 -31 14q-15 5 -24 8.5t-14 7t-6 6.5t1 7q5 7 13 4q8 -2 17 -3q25 -2 50 -7q24 -6 63 5q18 4 38 9q14 3 28 7q31 13 39 17z" />
    <glyph glyph-name="Y" unicode="&#x178;" horiz-adv-x="642" 
d="M633 732q8 4 13 -1q8 -8 -4 -18q-21 -17 -60 -45q-13 -9 -22.5 -20.5t-38.5 -55.5q-22 -32 -29 -49q-11 -25 -26 -49q-9 -13 -25 -45.5t-24.5 -47.5t-17.5 -33t-15 -29q-9 -14 -11 -23t-3 -28q0 -22 -2 -56q-3 -72 2 -97q4 -19 7 -33q7 -34 41 -70q12 -12 16 -15t11 -5
q9 -3 12 -5t3 -6q0 -7 -11 -9q-7 -1 -13 2q-14 8 -66.5 12.5t-95.5 1.5q-51 -3 -102 -11q-17 -4 -22 -2.5t-5 9.5t32 19q14 4 27 10q34 20 40 89q0 10 2 21q1 2 2 35q2 34 3 72l2 38l-5 11q-5 10 -10 18t-31 60t-32 68q-7 17 -16 34q-20 32 -33 68q-4 11 -9 21q-2 4 -4 7
q-1 4 -3 8l-6 14q-2 5 -7.5 14t-11.5 18.5t-12 18t-9 11.5q-20 20 -45 35q-26 15 -26 18q-1 6 3 11q3 3 17 1q23 -5 53 -12q12 -2 58 -5t77 0q39 3 77 10q19 3 24 1q3 -2 4 -6t-1 -8q-6 -8 -40 -24q-23 -11 -29 -22q-4 -8 -2.5 -17t9.5 -35q21 -67 36 -92q4 -6 14 -29
q29 -62 37 -77q7 -12 13 -25q2 -7 6 -12q2 3 4 7q3 7 16 29q8 14 31.5 60t44 88.5t23.5 49.5q4 11 3 23q-1 19 -12 29q-5 5 -31 14q-15 5 -24 8.5t-14 7t-6 6.5t1 7q5 7 13 4q8 -2 17 -3q25 -2 50 -7q24 -6 63 5q18 4 38 9q14 3 28 7q31 13 39 17z" />
    <glyph glyph-name="Y" unicode="&#xdd;" horiz-adv-x="642" 
d="M633 732q8 4 13 -1q8 -8 -4 -18q-21 -17 -60 -45q-13 -9 -22.5 -20.5t-38.5 -55.5q-22 -32 -29 -49q-11 -25 -26 -49q-9 -13 -25 -45.5t-24.5 -47.5t-17.5 -33t-15 -29q-9 -14 -11 -23t-3 -28q0 -22 -2 -56q-3 -72 2 -97q4 -19 7 -33q7 -34 41 -70q12 -12 16 -15t11 -5
q9 -3 12 -5t3 -6q0 -7 -11 -9q-7 -1 -13 2q-14 8 -66.5 12.5t-95.5 1.5q-51 -3 -102 -11q-17 -4 -22 -2.5t-5 9.5t32 19q14 4 27 10q34 20 40 89q0 10 2 21q1 2 2 35q2 34 3 72l2 38l-5 11q-5 10 -10 18t-31 60t-32 68q-7 17 -16 34q-20 32 -33 68q-4 11 -9 21q-2 4 -4 7
q-1 4 -3 8l-6 14q-2 5 -7.5 14t-11.5 18.5t-12 18t-9 11.5q-20 20 -45 35q-26 15 -26 18q-1 6 3 11q3 3 17 1q23 -5 53 -12q12 -2 58 -5t77 0q39 3 77 10q19 3 24 1q3 -2 4 -6t-1 -8q-6 -8 -40 -24q-23 -11 -29 -22q-4 -8 -2.5 -17t9.5 -35q21 -67 36 -92q4 -6 14 -29
q29 -62 37 -77q7 -12 13 -25q2 -7 6 -12q2 3 4 7q3 7 16 29q8 14 31.5 60t44 88.5t23.5 49.5q4 11 3 23q-1 19 -12 29q-5 5 -31 14q-15 5 -24 8.5t-14 7t-6 6.5t1 7q5 7 13 4q8 -2 17 -3q25 -2 50 -7q24 -6 63 5q18 4 38 9q14 3 28 7q31 13 39 17z" />
    <glyph glyph-name="Z" unicode="Z" horiz-adv-x="595" 
d="M252 152q-16 -32 -24 -46q-22 -40 -22 -43t29 2q21 4 123 8q113 5 119 8q11 6 20 24q12 26 21 54q4 14 18 43.5t19 34.5q2 2 5.5 2t5.5 -3q5 -5 -1 -19q-9 -21 -16 -73.5t-4 -77.5q5 -40 16 -62q5 -8 8 -17q0 -1 -2 -3t-4 -3.5t-3 -1.5q-2 0 -17 5q-21 8 -44 12
q-42 8 -79 9q-32 2 -53 4q-47 2 -95 0q-21 -2 -41 -3q-28 -2 -71 -8q-73 -9 -129 -5q-14 1 -17.5 2.5t-3.5 6.5t9 16q10 11 17 24q12 22 43 76q8 15 16 28q21 40 44 75q10 16 21 36q11 19 22 39q12 19 32 53.5t27 45.5q26 37 46 75q10 19 15 26q3 4 5 8q0 1 18.5 38.5
t27.5 52.5q6 11 11 22q2 6 5 11q6 10 11 20l6 13l-16 1q-16 1 -59 3q-42 1 -54 3q-25 4 -50 -2q-16 -4 -18 -4q-4 -1 -8 -4q-6 -4 -13 -6q-17 -5 -34 -23q-15 -15 -36 -54.5t-26 -62.5q-5 -16 -11 -16q-9 0 -9 13t2.5 40.5t4.5 32.5q2 10 10 70q2 17 6 38q7 33 3 51
q-1 5 2 8q7 6 15 -2q15 -14 35 -16q77 -8 154 -2q28 2 50 -0.5t87.5 -3.5t90 1.5t41.5 3.5q14 1 18 0t5 -7q1 -4 -11.5 -17t-13.5 -21q-2 -13 -18 -32q-7 -8 -28.5 -45.5t-24.5 -45.5q-3 -13 -27 -52q-11 -17 -16 -26q-5 -10 -11 -19q-40 -60 -74 -123q-12 -24 -19 -36
q-6 -12 -11 -24q-17 -39 -39 -75q-16 -25 -31 -55z" />
    <glyph glyph-name="bracketleft" unicode="[" horiz-adv-x="331" 
d="M295 92q9 -1 10 -9q0 -4 -7 -40q-5 -27 -8 -55q-1 -18 -4.5 -39.5t-2.5 -54.5t-2 -36q-7 -6 -52 -10q-14 -1 -34 -3q-27 -3 -82 -2h-30q-23 0 -36.5 1.5t-18.5 -0.5q-11 -3 -22 -2q-17 0 -19 3q-7 8 -3 17q3 5 11 7.5t16 3.5q16 2 23 8q8 7 19 39q4 13 10 64q2 22 2 72
t-2 63q-2 12 -3 25q0 15 -2 30q-3 16 -0.5 19.5t1 51t-3 69.5t-1.5 97q-2 88 6 169q2 15 1.5 44.5t0.5 87.5q2 73 -3 91q-7 16 -18 30q-5 7 -9 13q-4 7 -10 12q-10 10 -1 16q4 3 13 0q31 -10 64 -15q14 -2 42 -3l28 -1l16 5q16 6 31 6q37 -1 45 3q16 4 33 5q9 1 13 -2
q5 -6 -2 -33q-5 -19 -5 -57q0 -42 -7 -42t-10 13q-4 24 -9 33q-13 22 -58 19q-14 -1 -24.5 -2.5t-13.5 -5.5q-5 -8 -6.5 -19.5t-2.5 -55.5q-1 -56 -3.5 -92t-2 -85t-1.5 -125.5t0 -87t2 -151t1 -148t2.5 -46t-0.5 -41.5q-5 -8 14 -20q14 -10 29 0q25 16 43 66q4 13 12 32
t13 37q9 31 18 31z" />
    <glyph glyph-name="backslash" unicode="\" horiz-adv-x="348" 
d="M342 -14q33 -35 33 -42q0 -8 -8 -8q-5 0 -13 9q-7 8 -17 13q-8 3 -16 9q-7 5 -17 11q-16 10 -61 9q-22 0 -31 -2t-25 -9q-15 -8 -20 0t7 15q5 3 11 5q5 3 8 7l4 7v31q0 31 -6 63t-12 53t-12 50q-13 60 -32 130q-24 82 -33 130q-5 30 -11.5 52t-13.5 59q-8 46 -16 70
q-5 16 -9 31q-3 11 -8 21q-4 8 -7 17q-6 13 -15 25q-10 16 -15 23q-3 7 -9 12q-18 17 -8 25q6 4 12 -2q5 -3 10 -5q15 -5 28 -12q18 -10 38 -15q14 -3 27 -8q17 -7 44 -7q20 0 23 -3q2 -3 2 -7t-7.5 -8t-12.5 -13q-7 -14 -4 -50q2 -23 10.5 -70t14.5 -72q5 -19 12 -52
t17 -75q10 -39 18 -70q7 -29 10 -36q13 -35 41 -148q15 -64 34 -108q13 -30 35 -55z" />
    <glyph glyph-name="bracketright" unicode="]" horiz-adv-x="359" 
d="M372 877q7 -8 3 -18q-3 -5 -11 -7l-16 -4q-16 -2 -23 -7q-8 -7 -19 -40q-5 -12 -10 -63q-2 -23 -2 -72.5t2 -62.5t3 -26q0 -15 2 -29q3 -16 0.5 -19.5t-1 -51.5t3 -70t1.5 -97q2 -87 -6 -168q-2 -16 -1.5 -45t-1.5 -87q-1 -73 4 -91q7 -17 18 -31q5 -7 9 -13t9 -12
q11 -10 3 -16q-5 -3 -13 1q-19 7 -65 14q-14 2 -42 3l-28 1l-16 -5q-16 -6 -31 -5q-38 0 -45 -4q-16 -4 -33 -5q-9 -1 -13 3q-5 5 2 32q5 19 5 57q0 30 1 36.5t6 6.5q7 0 10 -14q4 -23 9 -32q13 -23 58 -20q14 1 24.5 2.5t13.5 6.5q5 7 6.5 18.5t2.5 55.5q1 57 3.5 93
t2 84.5t1.5 125.5t0 87t-2 151t-1 148.5t-2.5 45.5t0.5 41q5 8 -14 21q-15 9 -29 0q-25 -17 -43 -67q-4 -12 -12 -31.5t-13 -36.5q-9 -32 -18 -32q-9 1 -10 10q0 3 7 40q5 27 8 54q0 18 4 40t3 55t2 35q7 6 52 10q18 2 34 3q27 3 82 2h30t36.5 -1.5t18.5 0.5q11 3 22 2
q17 0 19 -2z" />
    <glyph glyph-name="asciicircum" unicode="^" horiz-adv-x="475" 
d="M441 567q3 -5 -1 -9q-2 -2 -16 -1q-72 7 -115 2q-17 -2 -22 -3q-9 -1 -17 -6q-29 -13 -34 -8l-2 4q0 3 8.5 10t15.5 10t17.5 14t14.5 20q3 6 2 20q-2 29 -10 58q-3 8 -13 29l-10 20l-12 -17q-31 -46 -45 -68q-22 -32 -30 -52q-4 -11 -3.5 -13.5t9.5 -6.5q5 -3 11 -5
q4 -1 7 -2q5 -2 10 -3q4 0 8 -3q6 -3 6 -7q0 -5 -3 -6t-16 -2q-16 -1 -33 -2q-18 -1 -41 -1q-34 0 -53 -7q-28 -11 -34.5 -12.5t-8.5 2.5q-2 2 -2 4q0 3 12 12q13 9 48 51q20 23 29 33q25 27 44 60q8 14 31.5 50.5t31.5 46.5q11 15 17 22q7 11 17 9q14 -2 25 -17
q15 -20 27 -57q20 -60 39 -87q9 -13 11 -17q3 -6 11.5 -14.5t19 -16.5t19.5 -14q29 -16 30 -20z" />
    <glyph glyph-name="underscore" unicode="_" horiz-adv-x="587" 
d="M552 19q8 -13 0 -19q-4 -2 -35 -1q-30 1 -177 1t-173 -2q-28 -1 -67 -3q-40 -2 -43 -4q-10 -7 -19 -1q-5 3 -8 8q-1 3 1 6t5 3t7 21q3 13 -2 25q-5 13 -3 19.5t11 4.5q30 -5 60 -7q27 -1 60 -4q33 -2 56.5 -2t41.5 -1q15 -2 89 -0.5t103 3.5q34 2 66 11q14 4 17 1.5
t3 -17.5q0 -10 2 -20q1 -6 1 -11q1 -6 4 -11z" />
    <glyph glyph-name="grave" unicode="`" horiz-adv-x="192" 
d="M138 679q-1 -42 6 -78q10 -53 10 -61q-1 -4 -6 -5q-2 -1 -4.5 1.5t-6 6.5t-13.5 8q-14 5 -18.5 12t-6.5 24q-1 14 -6 27q-3 9 -7 19q-2 2 -7 14q-8 20 -19 39q-4 7 -7 14q-8 18 -21 32q-8 7 -14 13q-5 5 -11 9q-12 8 -12 14t6 7q7 0 35 -9q15 -5 22 -6q7 -2 15 -4
q23 -8 54 -8q13 0 25 -2q6 -4 -2 -14l-8 -12l-4 -7v-34z" />
    <glyph glyph-name="a" unicode="a" horiz-adv-x="454" 
d="M432 5q12 -2 12 -9q0 -13 -19 -8q-21 6 -56.5 8t-60.5 -2q-9 -1 -25 -7t-22 -10q-5 -3 -11 -4q-5 0 -9 -3q-9 -6 -14 0q-5 5 4 17q4 4 8 7q2 0 9.5 8.5t10.5 13.5q6 14 8 28q0 2 -3 -2q-5 -3 -9.5 -6l-10.5 -7q-21 -14 -30 -17q-9 -2 -17 -7q-6 -3 -13 -5q-5 -1 -10 -4
q-18 -12 -59 -12q-21 0 -40 11q-7 4 -18 17t-15 20q-12 28 -12 50q2 33 12 65q9 21 23 40q12 15 45 37q6 4 19 13q14 9 39.5 22t35.5 15q14 3 27 9l16 6q8 2 16 6l9 4v30q0 42 -9 56q-11 16 -29 19q-16 2 -31 2q-22 0 -30 -5q-10 -6 -17 -14q-12 -13 -20 -31.5t-6 -29.5
q2 -7 5.5 -14.5t5 -8t14 3t15.5 5.5q5 3 9 32q2 21 14 12q3 -2 3 -12q-1 -12 -4 -24q-3 -13 -9 -20q-6 -6 -14 -8q-9 -3 -16 -7q-17 -9 -38 -9q-34 0 -53 24q-16 23 -20 49q-2 19 5.5 35t29.5 37q7 7 26.5 17.5t33.5 15.5q13 4 49 4q75 2 93 -4q8 -3 17 -4q18 -3 29 -6
t19 -8t17 -14q15 -15 18.5 -30.5t2.5 -61.5q-1 -39 -2 -60q-1 -22 -3 -72.5t0.5 -85.5t2.5 -49.5t4 -24.5q4 -7 9 -13q4 -3 19 -11t20 -9zM276 196q1 48 -1 48q-7 -2 -13 -5q-9 -5 -17 -8q-10 -3 -58 -32q-18 -11 -34 -42q-7 -15 -9 -30q-3 -23 9 -46q6 -11 14 -15l8 -5
l22 1l23 1l12 7q15 9 26 20l14 13v10q0 9 1 22q2 13 3 61z" />
    <glyph glyph-name="a" unicode="&#xe5;" horiz-adv-x="454" 
d="M432 5q12 -2 12 -9q0 -13 -19 -8q-21 6 -56.5 8t-60.5 -2q-9 -1 -25 -7t-22 -10q-5 -3 -11 -4q-5 0 -9 -3q-9 -6 -14 0q-5 5 4 17q4 4 8 7q2 0 9.5 8.5t10.5 13.5q6 14 8 28q0 2 -3 -2q-5 -3 -9.5 -6l-10.5 -7q-21 -14 -30 -17q-9 -2 -17 -7q-6 -3 -13 -5q-5 -1 -10 -4
q-18 -12 -59 -12q-21 0 -40 11q-7 4 -18 17t-15 20q-12 28 -12 50q2 33 12 65q9 21 23 40q12 15 45 37q6 4 19 13q14 9 39.5 22t35.5 15q14 3 27 9l16 6q8 2 16 6l9 4v30q0 42 -9 56q-11 16 -29 19q-16 2 -31 2q-22 0 -30 -5q-10 -6 -17 -14q-12 -13 -20 -31.5t-6 -29.5
q2 -7 5.5 -14.5t5 -8t14 3t15.5 5.5q5 3 9 32q2 21 14 12q3 -2 3 -12q-1 -12 -4 -24q-3 -13 -9 -20q-6 -6 -14 -8q-9 -3 -16 -7q-17 -9 -38 -9q-34 0 -53 24q-16 23 -20 49q-2 19 5.5 35t29.5 37q7 7 26.5 17.5t33.5 15.5q13 4 49 4q75 2 93 -4q8 -3 17 -4q18 -3 29 -6
t19 -8t17 -14q15 -15 18.5 -30.5t2.5 -61.5q-1 -39 -2 -60q-1 -22 -3 -72.5t0.5 -85.5t2.5 -49.5t4 -24.5q4 -7 9 -13q4 -3 19 -11t20 -9zM276 196q1 48 -1 48q-7 -2 -13 -5q-9 -5 -17 -8q-10 -3 -58 -32q-18 -11 -34 -42q-7 -15 -9 -30q-3 -23 9 -46q6 -11 14 -15l8 -5
l22 1l23 1l12 7q15 9 26 20l14 13v10q0 9 1 22q2 13 3 61z" />
    <glyph glyph-name="a" unicode="&#xe4;" horiz-adv-x="454" 
d="M432 5q12 -2 12 -9q0 -13 -19 -8q-21 6 -56.5 8t-60.5 -2q-9 -1 -25 -7t-22 -10q-5 -3 -11 -4q-5 0 -9 -3q-9 -6 -14 0q-5 5 4 17q4 4 8 7q2 0 9.5 8.5t10.5 13.5q6 14 8 28q0 2 -3 -2q-5 -3 -9.5 -6l-10.5 -7q-21 -14 -30 -17q-9 -2 -17 -7q-6 -3 -13 -5q-5 -1 -10 -4
q-18 -12 -59 -12q-21 0 -40 11q-7 4 -18 17t-15 20q-12 28 -12 50q2 33 12 65q9 21 23 40q12 15 45 37q6 4 19 13q14 9 39.5 22t35.5 15q14 3 27 9l16 6q8 2 16 6l9 4v30q0 42 -9 56q-11 16 -29 19q-16 2 -31 2q-22 0 -30 -5q-10 -6 -17 -14q-12 -13 -20 -31.5t-6 -29.5
q2 -7 5.5 -14.5t5 -8t14 3t15.5 5.5q5 3 9 32q2 21 14 12q3 -2 3 -12q-1 -12 -4 -24q-3 -13 -9 -20q-6 -6 -14 -8q-9 -3 -16 -7q-17 -9 -38 -9q-34 0 -53 24q-16 23 -20 49q-2 19 5.5 35t29.5 37q7 7 26.5 17.5t33.5 15.5q13 4 49 4q75 2 93 -4q8 -3 17 -4q18 -3 29 -6
t19 -8t17 -14q15 -15 18.5 -30.5t2.5 -61.5q-1 -39 -2 -60q-1 -22 -3 -72.5t0.5 -85.5t2.5 -49.5t4 -24.5q4 -7 9 -13q4 -3 19 -11t20 -9zM276 196q1 48 -1 48q-7 -2 -13 -5q-9 -5 -17 -8q-10 -3 -58 -32q-18 -11 -34 -42q-7 -15 -9 -30q-3 -23 9 -46q6 -11 14 -15l8 -5
l22 1l23 1l12 7q15 9 26 20l14 13v10q0 9 1 22q2 13 3 61z" />
    <glyph glyph-name="a" unicode="&#xe3;" horiz-adv-x="454" 
d="M432 5q12 -2 12 -9q0 -13 -19 -8q-21 6 -56.5 8t-60.5 -2q-9 -1 -25 -7t-22 -10q-5 -3 -11 -4q-5 0 -9 -3q-9 -6 -14 0q-5 5 4 17q4 4 8 7q2 0 9.5 8.5t10.5 13.5q6 14 8 28q0 2 -3 -2q-5 -3 -9.5 -6l-10.5 -7q-21 -14 -30 -17q-9 -2 -17 -7q-6 -3 -13 -5q-5 -1 -10 -4
q-18 -12 -59 -12q-21 0 -40 11q-7 4 -18 17t-15 20q-12 28 -12 50q2 33 12 65q9 21 23 40q12 15 45 37q6 4 19 13q14 9 39.5 22t35.5 15q14 3 27 9l16 6q8 2 16 6l9 4v30q0 42 -9 56q-11 16 -29 19q-16 2 -31 2q-22 0 -30 -5q-10 -6 -17 -14q-12 -13 -20 -31.5t-6 -29.5
q2 -7 5.5 -14.5t5 -8t14 3t15.5 5.5q5 3 9 32q2 21 14 12q3 -2 3 -12q-1 -12 -4 -24q-3 -13 -9 -20q-6 -6 -14 -8q-9 -3 -16 -7q-17 -9 -38 -9q-34 0 -53 24q-16 23 -20 49q-2 19 5.5 35t29.5 37q7 7 26.5 17.5t33.5 15.5q13 4 49 4q75 2 93 -4q8 -3 17 -4q18 -3 29 -6
t19 -8t17 -14q15 -15 18.5 -30.5t2.5 -61.5q-1 -39 -2 -60q-1 -22 -3 -72.5t0.5 -85.5t2.5 -49.5t4 -24.5q4 -7 9 -13q4 -3 19 -11t20 -9zM276 196q1 48 -1 48q-7 -2 -13 -5q-9 -5 -17 -8q-10 -3 -58 -32q-18 -11 -34 -42q-7 -15 -9 -30q-3 -23 9 -46q6 -11 14 -15l8 -5
l22 1l23 1l12 7q15 9 26 20l14 13v10q0 9 1 22q2 13 3 61z" />
    <glyph glyph-name="a" unicode="&#xe2;" horiz-adv-x="454" 
d="M432 5q12 -2 12 -9q0 -13 -19 -8q-21 6 -56.5 8t-60.5 -2q-9 -1 -25 -7t-22 -10q-5 -3 -11 -4q-5 0 -9 -3q-9 -6 -14 0q-5 5 4 17q4 4 8 7q2 0 9.5 8.5t10.5 13.5q6 14 8 28q0 2 -3 -2q-5 -3 -9.5 -6l-10.5 -7q-21 -14 -30 -17q-9 -2 -17 -7q-6 -3 -13 -5q-5 -1 -10 -4
q-18 -12 -59 -12q-21 0 -40 11q-7 4 -18 17t-15 20q-12 28 -12 50q2 33 12 65q9 21 23 40q12 15 45 37q6 4 19 13q14 9 39.5 22t35.5 15q14 3 27 9l16 6q8 2 16 6l9 4v30q0 42 -9 56q-11 16 -29 19q-16 2 -31 2q-22 0 -30 -5q-10 -6 -17 -14q-12 -13 -20 -31.5t-6 -29.5
q2 -7 5.5 -14.5t5 -8t14 3t15.5 5.5q5 3 9 32q2 21 14 12q3 -2 3 -12q-1 -12 -4 -24q-3 -13 -9 -20q-6 -6 -14 -8q-9 -3 -16 -7q-17 -9 -38 -9q-34 0 -53 24q-16 23 -20 49q-2 19 5.5 35t29.5 37q7 7 26.5 17.5t33.5 15.5q13 4 49 4q75 2 93 -4q8 -3 17 -4q18 -3 29 -6
t19 -8t17 -14q15 -15 18.5 -30.5t2.5 -61.5q-1 -39 -2 -60q-1 -22 -3 -72.5t0.5 -85.5t2.5 -49.5t4 -24.5q4 -7 9 -13q4 -3 19 -11t20 -9zM276 196q1 48 -1 48q-7 -2 -13 -5q-9 -5 -17 -8q-10 -3 -58 -32q-18 -11 -34 -42q-7 -15 -9 -30q-3 -23 9 -46q6 -11 14 -15l8 -5
l22 1l23 1l12 7q15 9 26 20l14 13v10q0 9 1 22q2 13 3 61z" />
    <glyph glyph-name="a" unicode="&#xe1;" horiz-adv-x="454" 
d="M432 5q12 -2 12 -9q0 -13 -19 -8q-21 6 -56.5 8t-60.5 -2q-9 -1 -25 -7t-22 -10q-5 -3 -11 -4q-5 0 -9 -3q-9 -6 -14 0q-5 5 4 17q4 4 8 7q2 0 9.5 8.5t10.5 13.5q6 14 8 28q0 2 -3 -2q-5 -3 -9.5 -6l-10.5 -7q-21 -14 -30 -17q-9 -2 -17 -7q-6 -3 -13 -5q-5 -1 -10 -4
q-18 -12 -59 -12q-21 0 -40 11q-7 4 -18 17t-15 20q-12 28 -12 50q2 33 12 65q9 21 23 40q12 15 45 37q6 4 19 13q14 9 39.5 22t35.5 15q14 3 27 9l16 6q8 2 16 6l9 4v30q0 42 -9 56q-11 16 -29 19q-16 2 -31 2q-22 0 -30 -5q-10 -6 -17 -14q-12 -13 -20 -31.5t-6 -29.5
q2 -7 5.5 -14.5t5 -8t14 3t15.5 5.5q5 3 9 32q2 21 14 12q3 -2 3 -12q-1 -12 -4 -24q-3 -13 -9 -20q-6 -6 -14 -8q-9 -3 -16 -7q-17 -9 -38 -9q-34 0 -53 24q-16 23 -20 49q-2 19 5.5 35t29.5 37q7 7 26.5 17.5t33.5 15.5q13 4 49 4q75 2 93 -4q8 -3 17 -4q18 -3 29 -6
t19 -8t17 -14q15 -15 18.5 -30.5t2.5 -61.5q-1 -39 -2 -60q-1 -22 -3 -72.5t0.5 -85.5t2.5 -49.5t4 -24.5q4 -7 9 -13q4 -3 19 -11t20 -9zM276 196q1 48 -1 48q-7 -2 -13 -5q-9 -5 -17 -8q-10 -3 -58 -32q-18 -11 -34 -42q-7 -15 -9 -30q-3 -23 9 -46q6 -11 14 -15l8 -5
l22 1l23 1l12 7q15 9 26 20l14 13v10q0 9 1 22q2 13 3 61z" />
    <glyph glyph-name="a" unicode="&#xe0;" horiz-adv-x="454" 
d="M432 5q12 -2 12 -9q0 -13 -19 -8q-21 6 -56.5 8t-60.5 -2q-9 -1 -25 -7t-22 -10q-5 -3 -11 -4q-5 0 -9 -3q-9 -6 -14 0q-5 5 4 17q4 4 8 7q2 0 9.5 8.5t10.5 13.5q6 14 8 28q0 2 -3 -2q-5 -3 -9.5 -6l-10.5 -7q-21 -14 -30 -17q-9 -2 -17 -7q-6 -3 -13 -5q-5 -1 -10 -4
q-18 -12 -59 -12q-21 0 -40 11q-7 4 -18 17t-15 20q-12 28 -12 50q2 33 12 65q9 21 23 40q12 15 45 37q6 4 19 13q14 9 39.5 22t35.5 15q14 3 27 9l16 6q8 2 16 6l9 4v30q0 42 -9 56q-11 16 -29 19q-16 2 -31 2q-22 0 -30 -5q-10 -6 -17 -14q-12 -13 -20 -31.5t-6 -29.5
q2 -7 5.5 -14.5t5 -8t14 3t15.5 5.5q5 3 9 32q2 21 14 12q3 -2 3 -12q-1 -12 -4 -24q-3 -13 -9 -20q-6 -6 -14 -8q-9 -3 -16 -7q-17 -9 -38 -9q-34 0 -53 24q-16 23 -20 49q-2 19 5.5 35t29.5 37q7 7 26.5 17.5t33.5 15.5q13 4 49 4q75 2 93 -4q8 -3 17 -4q18 -3 29 -6
t19 -8t17 -14q15 -15 18.5 -30.5t2.5 -61.5q-1 -39 -2 -60q-1 -22 -3 -72.5t0.5 -85.5t2.5 -49.5t4 -24.5q4 -7 9 -13q4 -3 19 -11t20 -9zM276 196q1 48 -1 48q-7 -2 -13 -5q-9 -5 -17 -8q-10 -3 -58 -32q-18 -11 -34 -42q-7 -15 -9 -30q-3 -23 9 -46q6 -11 14 -15l8 -5
l22 1l23 1l12 7q15 9 26 20l14 13v10q0 9 1 22q2 13 3 61z" />
    <glyph glyph-name="b" unicode="b" horiz-adv-x="499" 
d="M466 257q1 -4 2 -38.5t0 -44.5q-2 -22 -14 -51.5t-26 -47.5q-7 -11 -15 -21q-14 -20 -27.5 -31.5t-40.5 -24.5q-25 -12 -30 -13q-19 -3 -39 -3q-27 -1 -36 0.5t-23 6.5q-8 4 -16 5q-11 1 -29 17q-13 12 -14 10q0 -2 3 -10q6 -11 3 -15t-19 -5q-54 -4 -106 -19
q-21 -6 -29 -7t-10.5 3.5t-0.5 7.5q4 5 10 7q33 14 40 40q3 8 2 34t-3 34q-1 7 -0.5 80t2.5 120q6 153 1 170q-9 28 -4 52q2 20 1 40q0 52 1 66l1 13l-9 9q-8 9 -16 12t-27 5q-51 6 -56 11q-3 2 -3 7t2 6.5t43 2.5h41l20 7q19 7 43 17t52 28q20 13 39 28q8 8 17 13q6 4 10 2
q6 -4 3.5 -10t-15.5 -23q-21 -26 -26 -41q-4 -13 -7 -23l-4 -10l-1 -286l5 6q10 13 36.5 36t35.5 27q5 2 17 5t41 1q40 -2 51.5 -4t21.5 -9q33 -20 47.5 -45t26.5 -49q15 -31 19.5 -44.5t6 -32.5t2.5 -21zM347 197q3 7 3 25t-2.5 30t-3.5 35q-4 54 -12 71q-16 34 -58 38
q-30 4 -47 -3q-17 -6 -35 -21t-24 -28q-4 -7 -5.5 -77.5t-1.5 -112.5v-42l3 -5q4 -4 6 -9q2 -4 3 -4t10 -12l12 -16q3 -6 15 -13q7 -5 15 -7q5 -1 9 -3q18 -5 36 -4h13l10 8q9 7 17 12l8 5l7 23q15 44 19 91q1 9 3 19z" />
    <glyph glyph-name="c" unicode="c" horiz-adv-x="448" 
d="M407 113q6 -25 8 -51q0 -4 -3 -8q-3 -3 -14.5 -2t-17.5 -3q-21 -13 -38 -30q-21 -20 -38 -27.5t-48 -9.5q-49 -3 -62 2q-3 1 -17 6q-22 8 -41 22q-9 7 -18 13q-8 5 -25 22t-22 24t-11 14q-8 10 -18 38q-11 32 -12.5 41t-1.5 50q0 48 4 62q14 52 36 78q37 45 44 50
q6 4 12 10q11 10 47 30q10 5 20 8q10 2 16 5q9 2 18 2q11 0 25 1q24 3 47 -4q6 -2 19 -6q21 -7 39 -24q15 -14 22.5 -28t12.5 -41q5 -23 -1 -47q-5 -24 -16 -35q-10 -9 -16 -11t-22 -1q-68 3 -84 40q-4 10 -4 34q-1 14 1 28q3 10 14 4l6 -2v-15q0 -29 8 -33q4 -3 17 -3t14 3
q4 8 5 18l4 16l-5 8q-7 12 -18 21q-13 12 -21.5 15.5t-26.5 2.5l-18 -1l-12 -6q-12 -7 -24 -23q-22 -29 -31.5 -61.5t-9.5 -79.5q-1 -23 5 -46q10 -49 15 -65t16 -37q12 -23 35 -34l11 -6l21 1h21l17 8q24 12 36 27q7 9 14 17q11 12 28 55q6 15 7 17q2 6 3 13q4 45 9 66
q5 22 15 12q3 -3 2 -68t2 -76z" />
    <glyph glyph-name="c" unicode="&#xe7;" horiz-adv-x="448" 
d="M407 113q6 -25 8 -51q0 -4 -3 -8q-3 -3 -14.5 -2t-17.5 -3q-21 -13 -38 -30q-21 -20 -38 -27.5t-48 -9.5q-49 -3 -62 2q-3 1 -17 6q-22 8 -41 22q-9 7 -18 13q-8 5 -25 22t-22 24t-11 14q-8 10 -18 38q-11 32 -12.5 41t-1.5 50q0 48 4 62q14 52 36 78q37 45 44 50
q6 4 12 10q11 10 47 30q10 5 20 8q10 2 16 5q9 2 18 2q11 0 25 1q24 3 47 -4q6 -2 19 -6q21 -7 39 -24q15 -14 22.5 -28t12.5 -41q5 -23 -1 -47q-5 -24 -16 -35q-10 -9 -16 -11t-22 -1q-68 3 -84 40q-4 10 -4 34q-1 14 1 28q3 10 14 4l6 -2v-15q0 -29 8 -33q4 -3 17 -3t14 3
q4 8 5 18l4 16l-5 8q-7 12 -18 21q-13 12 -21.5 15.5t-26.5 2.5l-18 -1l-12 -6q-12 -7 -24 -23q-22 -29 -31.5 -61.5t-9.5 -79.5q-1 -23 5 -46q10 -49 15 -65t16 -37q12 -23 35 -34l11 -6l21 1h21l17 8q24 12 36 27q7 9 14 17q11 12 28 55q6 15 7 17q2 6 3 13q4 45 9 66
q5 22 15 12q3 -3 2 -68t2 -76z" />
    <glyph glyph-name="d" unicode="d" horiz-adv-x="546" 
d="M544 0q1 -7 -5 -11q-6 0 -11 2q-10 3 -40 7q-16 2 -49 -10q-22 -8 -34 -9.5t-43 -1.5h-35l-8 -4q-6 -4 -15 -5t-11 1q-2 3 -2 7t2.5 6t11.5 6q7 2 14 6q11 10 15 36l1 5l-8 -7q-4 -4 -9 -6q-6 -4 -11 -9q-7 -7 -16 -13q-5 -3 -10 -7q-4 -3 -19 -8t-23 -6q-10 -1 -26.5 2
t-21.5 6q-4 3 -9 4q-6 2 -17 5q-7 2 -13.5 5t-13.5 5q-20 7 -39 28q-16 18 -33 52q-25 49 -33 80q-3 12 -4 49.5t1 55.5q2 14 12 45.5t18 47.5q11 21 30.5 39.5t38.5 25t39 15.5q7 4 14 5t14 3q9 3 32 3q22 0 32.5 -3t23.5 -12q6 -4 17 -10q17 -10 29 -25l3 -5v29q1 32 1 60
q0 64 4 81q1 8 -1 16q-2 12 -4 26q0 11 -4 21l-3 7l-13 1q-69 5 -79 18q-8 10 1 17q5 4 20 4q18 0 60 11q61 14 122 51q31 19 39 19q4 -1 6 -4q6 -6 -2 -17q-5 -6 -13 -26t-11 -33q-6 -29 -7 -57q0 -11 -3 -40q-2 -28 -3 -78q-2 -50 0 -68q2 -31 2 -63q-1 -39 -1 -154
q-1 -55 -0.5 -84.5t2 -40t4.5 -22.5q3 -10 12 -18q7 -7 25 -19.5t29 -17.5q26 -13 28 -19zM336 172q6 81 2 94q-2 11 -3 23q-1 26 -2.5 31t-11.5 17q-18 23 -35 32q-6 4 -12 9q-9 8 -16.5 11t-25.5 4q-17 1 -22.5 0t-15.5 -7q-13 -8 -26 -29q-22 -36 -27 -95q-4 -66 8 -131
q7 -34 9 -40.5t9 -15.5q16 -25 31 -28q6 -1 11 -3q24 -13 50 -4q29 9 47 24q5 5 13 11q6 3 9 10q1 3 2 9q3 16 3 32q2 27 3 46z" />
    <glyph glyph-name="e" unicode="e" horiz-adv-x="453" 
d="M419 70q5 -28 -1 -31q-7 -4 -18 7l-8 9l-15 -16q-11 -12 -23 -23q-2 -2 -5 -4t-5.5 -4t-3.5 -3q-5 -4 -11 -4q-6 -1 -11 -4q-6 -3 -32 -11q-16 -5 -42.5 -6.5t-45.5 1.5q-10 2 -20 5q-8 3 -16 5q-7 2 -13 6q-11 9 -17 9q-5 1 -8 3q-6 4 -12 7q-21 11 -29 23
q-5 6 -12.5 22t-12.5 23q-7 12 -10 26q-5 18 -10 31q-4 11 -6 23q-1 9 -3 22q-2 12 -2 23q0 23 10 67q4 15 4 18q1 7 5 14q4 10 6 20q4 16 30 47q9 11 24.5 25.5t20.5 17.5q4 1 7 4q3 5 31 16q8 3 17 7q21 9 57 12q18 2 35 -2q16 -3 37 -13q35 -17 47 -37q5 -8 12 -16
q11 -13 18 -38q4 -12 4 -40v-29l-6 -16q-21 -59 -96 -106q-21 -14 -46 -21q-54 -16 -74 -16q-9 -1 -9 -2q0 -2 4 -13q8 -25 15 -35.5t24 -21.5q18 -12 33.5 -15t39.5 0q27 5 55 29q6 5 17 20.5t17 26.5q10 21 14 44q4 25 16 47q3 4 7 13q2 5 5 9.5t6 7t4 1.5q2 -1 1 -3
q-1 -6 -2 -11q-1 -15 -4 -29q-5 -26 -3.5 -49.5t9.5 -71.5zM149 178q3 -5 20 2q5 2 11 3q2 0 10.5 3t17.5 7t13 7q8 5 19 11q30 16 47 55q11 24 11 42q1 34 -14 65q-8 14 -12 18.5t-13 9.5q-8 4 -29 5l-22 1l-11 -5q-18 -10 -32 -38t-20 -79q-1 -16 0.5 -59.5t3.5 -47.5z
" />
    <glyph glyph-name="e" unicode="&#xeb;" horiz-adv-x="453" 
d="M419 70q5 -28 -1 -31q-7 -4 -18 7l-8 9l-15 -16q-11 -12 -23 -23q-2 -2 -5 -4t-5.5 -4t-3.5 -3q-5 -4 -11 -4q-6 -1 -11 -4q-6 -3 -32 -11q-16 -5 -42.5 -6.5t-45.5 1.5q-10 2 -20 5q-8 3 -16 5q-7 2 -13 6q-11 9 -17 9q-5 1 -8 3q-6 4 -12 7q-21 11 -29 23
q-5 6 -12.5 22t-12.5 23q-7 12 -10 26q-5 18 -10 31q-4 11 -6 23q-1 9 -3 22q-2 12 -2 23q0 23 10 67q4 15 4 18q1 7 5 14q4 10 6 20q4 16 30 47q9 11 24.5 25.5t20.5 17.5q4 1 7 4q3 5 31 16q8 3 17 7q21 9 57 12q18 2 35 -2q16 -3 37 -13q35 -17 47 -37q5 -8 12 -16
q11 -13 18 -38q4 -12 4 -40v-29l-6 -16q-21 -59 -96 -106q-21 -14 -46 -21q-54 -16 -74 -16q-9 -1 -9 -2q0 -2 4 -13q8 -25 15 -35.5t24 -21.5q18 -12 33.5 -15t39.5 0q27 5 55 29q6 5 17 20.5t17 26.5q10 21 14 44q4 25 16 47q3 4 7 13q2 5 5 9.5t6 7t4 1.5q2 -1 1 -3
q-1 -6 -2 -11q-1 -15 -4 -29q-5 -26 -3.5 -49.5t9.5 -71.5zM149 178q3 -5 20 2q5 2 11 3q2 0 10.5 3t17.5 7t13 7q8 5 19 11q30 16 47 55q11 24 11 42q1 34 -14 65q-8 14 -12 18.5t-13 9.5q-8 4 -29 5l-22 1l-11 -5q-18 -10 -32 -38t-20 -79q-1 -16 0.5 -59.5t3.5 -47.5z
" />
    <glyph glyph-name="e" unicode="&#xea;" horiz-adv-x="453" 
d="M419 70q5 -28 -1 -31q-7 -4 -18 7l-8 9l-15 -16q-11 -12 -23 -23q-2 -2 -5 -4t-5.5 -4t-3.5 -3q-5 -4 -11 -4q-6 -1 -11 -4q-6 -3 -32 -11q-16 -5 -42.5 -6.5t-45.5 1.5q-10 2 -20 5q-8 3 -16 5q-7 2 -13 6q-11 9 -17 9q-5 1 -8 3q-6 4 -12 7q-21 11 -29 23
q-5 6 -12.5 22t-12.5 23q-7 12 -10 26q-5 18 -10 31q-4 11 -6 23q-1 9 -3 22q-2 12 -2 23q0 23 10 67q4 15 4 18q1 7 5 14q4 10 6 20q4 16 30 47q9 11 24.5 25.5t20.5 17.5q4 1 7 4q3 5 31 16q8 3 17 7q21 9 57 12q18 2 35 -2q16 -3 37 -13q35 -17 47 -37q5 -8 12 -16
q11 -13 18 -38q4 -12 4 -40v-29l-6 -16q-21 -59 -96 -106q-21 -14 -46 -21q-54 -16 -74 -16q-9 -1 -9 -2q0 -2 4 -13q8 -25 15 -35.5t24 -21.5q18 -12 33.5 -15t39.5 0q27 5 55 29q6 5 17 20.5t17 26.5q10 21 14 44q4 25 16 47q3 4 7 13q2 5 5 9.5t6 7t4 1.5q2 -1 1 -3
q-1 -6 -2 -11q-1 -15 -4 -29q-5 -26 -3.5 -49.5t9.5 -71.5zM149 178q3 -5 20 2q5 2 11 3q2 0 10.5 3t17.5 7t13 7q8 5 19 11q30 16 47 55q11 24 11 42q1 34 -14 65q-8 14 -12 18.5t-13 9.5q-8 4 -29 5l-22 1l-11 -5q-18 -10 -32 -38t-20 -79q-1 -16 0.5 -59.5t3.5 -47.5z
" />
    <glyph glyph-name="e" unicode="&#xe9;" horiz-adv-x="453" 
d="M419 70q5 -28 -1 -31q-7 -4 -18 7l-8 9l-15 -16q-11 -12 -23 -23q-2 -2 -5 -4t-5.5 -4t-3.5 -3q-5 -4 -11 -4q-6 -1 -11 -4q-6 -3 -32 -11q-16 -5 -42.5 -6.5t-45.5 1.5q-10 2 -20 5q-8 3 -16 5q-7 2 -13 6q-11 9 -17 9q-5 1 -8 3q-6 4 -12 7q-21 11 -29 23
q-5 6 -12.5 22t-12.5 23q-7 12 -10 26q-5 18 -10 31q-4 11 -6 23q-1 9 -3 22q-2 12 -2 23q0 23 10 67q4 15 4 18q1 7 5 14q4 10 6 20q4 16 30 47q9 11 24.5 25.5t20.5 17.5q4 1 7 4q3 5 31 16q8 3 17 7q21 9 57 12q18 2 35 -2q16 -3 37 -13q35 -17 47 -37q5 -8 12 -16
q11 -13 18 -38q4 -12 4 -40v-29l-6 -16q-21 -59 -96 -106q-21 -14 -46 -21q-54 -16 -74 -16q-9 -1 -9 -2q0 -2 4 -13q8 -25 15 -35.5t24 -21.5q18 -12 33.5 -15t39.5 0q27 5 55 29q6 5 17 20.5t17 26.5q10 21 14 44q4 25 16 47q3 4 7 13q2 5 5 9.5t6 7t4 1.5q2 -1 1 -3
q-1 -6 -2 -11q-1 -15 -4 -29q-5 -26 -3.5 -49.5t9.5 -71.5zM149 178q3 -5 20 2q5 2 11 3q2 0 10.5 3t17.5 7t13 7q8 5 19 11q30 16 47 55q11 24 11 42q1 34 -14 65q-8 14 -12 18.5t-13 9.5q-8 4 -29 5l-22 1l-11 -5q-18 -10 -32 -38t-20 -79q-1 -16 0.5 -59.5t3.5 -47.5z
" />
    <glyph glyph-name="e" unicode="&#xe8;" horiz-adv-x="453" 
d="M419 70q5 -28 -1 -31q-7 -4 -18 7l-8 9l-15 -16q-11 -12 -23 -23q-2 -2 -5 -4t-5.5 -4t-3.5 -3q-5 -4 -11 -4q-6 -1 -11 -4q-6 -3 -32 -11q-16 -5 -42.5 -6.5t-45.5 1.5q-10 2 -20 5q-8 3 -16 5q-7 2 -13 6q-11 9 -17 9q-5 1 -8 3q-6 4 -12 7q-21 11 -29 23
q-5 6 -12.5 22t-12.5 23q-7 12 -10 26q-5 18 -10 31q-4 11 -6 23q-1 9 -3 22q-2 12 -2 23q0 23 10 67q4 15 4 18q1 7 5 14q4 10 6 20q4 16 30 47q9 11 24.5 25.5t20.5 17.5q4 1 7 4q3 5 31 16q8 3 17 7q21 9 57 12q18 2 35 -2q16 -3 37 -13q35 -17 47 -37q5 -8 12 -16
q11 -13 18 -38q4 -12 4 -40v-29l-6 -16q-21 -59 -96 -106q-21 -14 -46 -21q-54 -16 -74 -16q-9 -1 -9 -2q0 -2 4 -13q8 -25 15 -35.5t24 -21.5q18 -12 33.5 -15t39.5 0q27 5 55 29q6 5 17 20.5t17 26.5q10 21 14 44q4 25 16 47q3 4 7 13q2 5 5 9.5t6 7t4 1.5q2 -1 1 -3
q-1 -6 -2 -11q-1 -15 -4 -29q-5 -26 -3.5 -49.5t9.5 -71.5zM149 178q3 -5 20 2q5 2 11 3q2 0 10.5 3t17.5 7t13 7q8 5 19 11q30 16 47 55q11 24 11 42q1 34 -14 65q-8 14 -12 18.5t-13 9.5q-8 4 -29 5l-22 1l-11 -5q-18 -10 -32 -38t-20 -79q-1 -16 0.5 -59.5t3.5 -47.5z
" />
    <glyph glyph-name="f" unicode="f" horiz-adv-x="331" 
d="M413 630q3 -11 1 -32.5t-7 -37.5q-2 -6 -10.5 -15t-20 -19t-23.5 -17q-9 -5 -25 -5q-36 0 -54 23q-20 26 -11 52q3 10 4 19q5 25 12 29q3 2 6.5 1t5.5 -5q1 -3 -2 -12q-5 -19 -7 -38q0 -5 7 -11q17 -13 23 -11q4 1 16 11t16 16q6 6 5 16q-3 29 -35 48q-14 8 -17 11
q-17 13 -31 13q-2 0 -13.5 -7t-14.5 -10q-10 -13 -17 -27q-3 -10 -5 -20q-2 -15 -1.5 -93.5t0.5 -79.5q1 0 12 1.5t25 3.5t22 4q24 5 27 2q6 -5 -1 -20q-3 -8 -3 -16q0 -15 5 -30q3 -4 1 -8q-3 -8 -23 -1q-26 11 -55 14q-12 1 -13 -2q-1 -7 -3 -161q-1 -69 1 -96.5t8 -44.5
q8 -21 22 -40q4 -4 16.5 -10t21.5 -8q22 -7 43 -19q7 -4 7 -10q1 -12 -13 -9q-8 3 -55 8q-52 6 -115 6q-72 0 -118 -13l-5 -2l-4 2q-6 6 -1 13q3 4 39 22q32 16 43 47q3 8 3 92t-2 105q-3 51 -1 101q2 15 -1 16q-10 4 -52 -6q-21 -5 -25 -1q-3 2 -2 21t-2 27q-1 6 -2 13
q0 1 2 4.5t4.5 6t3.5 2.5q5 -2 8 -6q16 -15 53 -12l12 1v34q-2 105 28 164q14 31 37 57q17 19 31 27q26 10 53 16q23 4 52.5 0t46.5 -14q6 -4 21.5 -18t23.5 -24l10 -12q6 -3 12 -26z" />
    <glyph glyph-name="g" unicode="g" horiz-adv-x="560" 
d="M540 473q21 -25 14 -31q-7 -7 -17 5q-6 6 -13 11l-6 4l-7 -8q-5 -5 -9 -10q-11 -15 -24 -29q-5 -6 -13 -5q-17 2 -30 14q-6 6 -17 15l-12 9l-5 -8q-4 -7 -9 -13q-6 -9 -11 -18q-6 -12 -9 -16q-4 -7 2 -17q4 -7 6 -15q3 -8 5 -13q4 -8 6 -40.5t0 -44.5q-3 -15 -13 -38
t-20 -35q-6 -9 -13 -13.5t-29 -16.5q-22 -11 -30 -12q-22 -3 -44 -9q-5 -2 -10 -2q-7 0 -13 -2q-23 -7 -47 -10q-13 -3 -24 -9q-14 -7 -20.5 -15.5t-5.5 -14.5q1 -7 6 -11l6 -6h18q12 0 24 -1q7 -2 33 -3q51 -2 64 -6q6 -2 13 -3q9 -1 25 -4q9 -1 19 -2q14 0 45 -19
q28 -18 43 -41q16 -22 18 -48q3 -41 1 -52q-1 -9 -11 -40t-15 -42q-6 -12 -21 -31.5t-27 -27.5q-7 -6 -47 -13q-11 -3 -27.5 -6.5t-32.5 -5.5q-19 -1 -29 -3q-14 -1 -49 0q-42 2 -50 12q-7 6 -16 10q-20 12 -29 25q-12 17 -10 38q1 8 5.5 20.5t6.5 14.5q3 3 5 8q14 25 41 35
q11 4 22 9q9 5 18 8q6 2 20 9q14 6 22 5t37 -11l20 -8v-6q1 -4 -2 -7t-8 -2q-11 3 -22 8q-9 4 -19 7q-4 1 -11.5 -7.5t-22.5 -23.5q-16 -17 -19 -24t0 -19q4 -11 17 -22t27 -14q9 -2 27.5 -1.5t26.5 2.5q5 1 11 2q8 1 16 5q13 5 26 17q14 13 21 30q9 16 12 25.5t2 17.5
q-3 11 -10 17.5t-23 13.5q-27 12 -94 16q-53 4 -87 12q-18 4 -35 11q-21 12 -40 29.5t-24 27.5q-10 22 -3 54q4 19 19 46q17 29 66 61q7 5 5 6q-3 1 -14 5q-25 8 -45 27q-12 11 -20.5 28.5t-10.5 36.5l-2 19l6 33q4 22 7.5 33t9.5 20.5t19 24.5q18 20 58 40q17 9 28.5 11
t36.5 1q35 -2 69 -11q14 -4 29 -7q19 -3 35 -12q3 -1 4 1q4 12 27 61q15 32 25 43q12 13 27 5q5 -3 13 -12t16 -19t11 -16q12 -24 18 -24q6 4 11 8q22 18 33 18q6 0 10 -6zM289 275q4 17 3.5 39.5t-6.5 38.5q-7 21 -17 34q-15 17 -21 19q-23 9 -35 9.5t-26 -4.5
q-11 -5 -17.5 -9.5t-11 -11.5t-8.5 -19q-6 -15 -6 -40q-2 -20 1 -40q5 -29 16 -56q4 -8 6 -11t12 -9q25 -15 47 -15q11 -2 21 5q9 5 20 19q17 25 22 51z" />
    <glyph glyph-name="h" unicode="h" horiz-adv-x="539" 
d="M540 -3q2 0 4 -3t2 -6q0 -9 -15 -8q-5 1 -38 5q-65 9 -103 8q-99 -5 -102 -2q-3 2 -3 6q1 5 4 8.5t7 5.5q13 7 25 17q5 5 11 8q8 5 11 12.5t4.5 24.5t2.5 63q4 144 0 161q-2 7 -4 30q-2 19 -4 24.5t-11 16.5q-12 14 -31 15q-11 1 -19 -3q-18 -9 -32 -23l-13 -13
q-7 -8 -13 -18q-7 -12 -14 -22q-6 -10 -7 -29t0 -50q2 -31 1 -54t0.5 -48t5 -45t7.5 -29q5 -10 22 -17q5 -3 9 -6q6 -4 12 -7q8 -2 9.5 -10t-6.5 -11q-6 -1 -12 1q-53 17 -162 2q-31 -4 -62 -13q-9 -3 -18 -4q-5 0 -7 5.5t2 11.5q3 5 13 9q28 11 42 23q19 19 25.5 44.5
t8.5 92.5q1 48 3 73q1 25 0 101q-2 76 -2 169q1 102 -5 118q-5 15 -20 22q-25 10 -53 11q-13 0 -18 4q-8 9 -2 14q7 6 47 6q36 -1 71 9q19 6 51.5 23.5t47.5 29.5q7 6 15 11q7 4 14 9q9 8 15 2q3 -3 2 -7.5t-4 -7.5q-5 -5 -16.5 -23t-15.5 -28q-11 -30 -15 -72
q-1 -17 -3 -31q-3 -26 -5 -181l-1 -43l14 15q23 25 35 29q5 2 11 4q3 2 7 3q5 2 8 5q15 10 32 12q4 0 8 1q5 2 27.5 0t30.5 -4q26 -10 46 -30q16 -17 24 -36q8 -18 12 -48q3 -20 4.5 -111t2.5 -101q2 -11 2 -22q0 -36 21 -59q12 -12 26 -21q4 -2 17 -10q6 -5 14 -9z" />
    <glyph glyph-name="i" unicode="i" horiz-adv-x="306" 
d="M158 578q-32 16 -44 45q-10 24 -5.5 50t22.5 47q13 17 28 18q20 3 29 0.5t23 -13.5q26 -21 26 -62q1 -56 -30 -77q-10 -7 -26 -9.5t-23 1.5zM289 6q9 -2 11.5 -7t-3.5 -10q-5 -4 -19 1q-23 8 -92 9q-44 1 -75 -2q-53 -6 -73 -14l-9 -3q-2 1 -3 3q-5 4 -1 10q6 12 30 18
q17 5 35 27q13 15 17.5 32.5t6.5 55.5q2 32 3 39q2 7 2 34.5t-2 37.5q-2 17 -6 59q-2 24 -11 38q-5 8 -19 13q-10 3 -18 9q-7 5 -14 8q-10 2 -19 6q-17 7 -18.5 11t2.5 8t8 5q3 0 20 4t36 9.5t27 8.5q16 6 28 9q31 8 76 38q30 20 44 32q18 15 24 9q4 -4 1.5 -8.5
t-14.5 -15.5q-22 -22 -30 -40q-10 -25 -12 -74q-3 -95 -6 -154q-5 -93 7 -131q3 -7 7 -14t9 -15q3 -6 8 -11q5 -3 8 -8q4 -6 9 -11q4 -3 7 -7q2 -4 18 -9z" />
    <glyph glyph-name="i" unicode="&#xef;" horiz-adv-x="306" 
d="M158 578q-32 16 -44 45q-10 24 -5.5 50t22.5 47q13 17 28 18q20 3 29 0.5t23 -13.5q26 -21 26 -62q1 -56 -30 -77q-10 -7 -26 -9.5t-23 1.5zM289 6q9 -2 11.5 -7t-3.5 -10q-5 -4 -19 1q-23 8 -92 9q-44 1 -75 -2q-53 -6 -73 -14l-9 -3q-2 1 -3 3q-5 4 -1 10q6 12 30 18
q17 5 35 27q13 15 17.5 32.5t6.5 55.5q2 32 3 39q2 7 2 34.5t-2 37.5q-2 17 -6 59q-2 24 -11 38q-5 8 -19 13q-10 3 -18 9q-7 5 -14 8q-10 2 -19 6q-17 7 -18.5 11t2.5 8t8 5q3 0 20 4t36 9.5t27 8.5q16 6 28 9q31 8 76 38q30 20 44 32q18 15 24 9q4 -4 1.5 -8.5
t-14.5 -15.5q-22 -22 -30 -40q-10 -25 -12 -74q-3 -95 -6 -154q-5 -93 7 -131q3 -7 7 -14t9 -15q3 -6 8 -11q5 -3 8 -8q4 -6 9 -11q4 -3 7 -7q2 -4 18 -9z" />
    <glyph glyph-name="i" unicode="&#xee;" horiz-adv-x="306" 
d="M158 578q-32 16 -44 45q-10 24 -5.5 50t22.5 47q13 17 28 18q20 3 29 0.5t23 -13.5q26 -21 26 -62q1 -56 -30 -77q-10 -7 -26 -9.5t-23 1.5zM289 6q9 -2 11.5 -7t-3.5 -10q-5 -4 -19 1q-23 8 -92 9q-44 1 -75 -2q-53 -6 -73 -14l-9 -3q-2 1 -3 3q-5 4 -1 10q6 12 30 18
q17 5 35 27q13 15 17.5 32.5t6.5 55.5q2 32 3 39q2 7 2 34.5t-2 37.5q-2 17 -6 59q-2 24 -11 38q-5 8 -19 13q-10 3 -18 9q-7 5 -14 8q-10 2 -19 6q-17 7 -18.5 11t2.5 8t8 5q3 0 20 4t36 9.5t27 8.5q16 6 28 9q31 8 76 38q30 20 44 32q18 15 24 9q4 -4 1.5 -8.5
t-14.5 -15.5q-22 -22 -30 -40q-10 -25 -12 -74q-3 -95 -6 -154q-5 -93 7 -131q3 -7 7 -14t9 -15q3 -6 8 -11q5 -3 8 -8q4 -6 9 -11q4 -3 7 -7q2 -4 18 -9z" />
    <glyph glyph-name="i" unicode="&#xed;" horiz-adv-x="306" 
d="M158 578q-32 16 -44 45q-10 24 -5.5 50t22.5 47q13 17 28 18q20 3 29 0.5t23 -13.5q26 -21 26 -62q1 -56 -30 -77q-10 -7 -26 -9.5t-23 1.5zM289 6q9 -2 11.5 -7t-3.5 -10q-5 -4 -19 1q-23 8 -92 9q-44 1 -75 -2q-53 -6 -73 -14l-9 -3q-2 1 -3 3q-5 4 -1 10q6 12 30 18
q17 5 35 27q13 15 17.5 32.5t6.5 55.5q2 32 3 39q2 7 2 34.5t-2 37.5q-2 17 -6 59q-2 24 -11 38q-5 8 -19 13q-10 3 -18 9q-7 5 -14 8q-10 2 -19 6q-17 7 -18.5 11t2.5 8t8 5q3 0 20 4t36 9.5t27 8.5q16 6 28 9q31 8 76 38q30 20 44 32q18 15 24 9q4 -4 1.5 -8.5
t-14.5 -15.5q-22 -22 -30 -40q-10 -25 -12 -74q-3 -95 -6 -154q-5 -93 7 -131q3 -7 7 -14t9 -15q3 -6 8 -11q5 -3 8 -8q4 -6 9 -11q4 -3 7 -7q2 -4 18 -9z" />
    <glyph glyph-name="i" unicode="&#xec;" horiz-adv-x="306" 
d="M158 578q-32 16 -44 45q-10 24 -5.5 50t22.5 47q13 17 28 18q20 3 29 0.5t23 -13.5q26 -21 26 -62q1 -56 -30 -77q-10 -7 -26 -9.5t-23 1.5zM289 6q9 -2 11.5 -7t-3.5 -10q-5 -4 -19 1q-23 8 -92 9q-44 1 -75 -2q-53 -6 -73 -14l-9 -3q-2 1 -3 3q-5 4 -1 10q6 12 30 18
q17 5 35 27q13 15 17.5 32.5t6.5 55.5q2 32 3 39q2 7 2 34.5t-2 37.5q-2 17 -6 59q-2 24 -11 38q-5 8 -19 13q-10 3 -18 9q-7 5 -14 8q-10 2 -19 6q-17 7 -18.5 11t2.5 8t8 5q3 0 20 4t36 9.5t27 8.5q16 6 28 9q31 8 76 38q30 20 44 32q18 15 24 9q4 -4 1.5 -8.5
t-14.5 -15.5q-22 -22 -30 -40q-10 -25 -12 -74q-3 -95 -6 -154q-5 -93 7 -131q3 -7 7 -14t9 -15q3 -6 8 -11q5 -3 8 -8q4 -6 9 -11q4 -3 7 -7q2 -4 18 -9z" />
    <glyph glyph-name="j" unicode="j" horiz-adv-x="286" 
d="M159 603q-22 7 -35 30q-10 18 -10 33q0 25 10 48q13 25 28 37q6 5 17 4q26 0 38.5 -8t22.5 -29l6 -15v-18q0 -19 -6.5 -38t-8.5 -23q-2 -5 -11 -13.5t-14 -11.5q-5 -2 -12.5 -2.5t-10.5 1.5q-7 3 -14 5zM267 508q1 -1 1.5 -4t0 -5.5t-1.5 -2.5t-1 -2q-3 -9 -7 -18
q-14 -34 -21 -71q-6 -33 -5 -86q1 -35 1 -47q-1 -123 2 -133q2 -4 0 -9q-2 -3 -3 -27q-1 -99 -4 -111q-1 -4 -2.5 -51.5t-2.5 -62.5q-3 -26 -16 -49q-5 -8 -9 -17q-6 -12 -15 -23q-11 -13 -16 -20q-8 -10 -20 -16q-17 -7 -35 -11q-5 -1 -11 -3q-11 -3 -23 -4q-16 -1 -32 3
q-21 5 -32 13t-35 35q-13 14 -16 26q-6 17 -2 33q2 8 5 22q2 12 5 22q3 9 4 18q1 6 4 12q3 8 5 16q4 23 16 14q5 -4 2 -13q-9 -28 -12 -46q-2 -12 0 -17.5t13 -15.5q20 -20 28.5 -24t23.5 -3q14 1 18 5t10 4q4 0 12 9q5 6 9 13q7 25 10 50q4 29 4 217q0 82 3 103.5t1 49.5
q-4 67 -17 81q-5 6 -15 8t-42 2q-40 1 -42 6q-1 1 -1 5q0 8 11 10q23 5 46 7q38 3 78 22q13 6 27 11q2 0 14 7t14 10q2 2 4 2q1 0 16.5 15t23.5 24q16 18 21 18q3 0 6 -1z" />
    <glyph glyph-name="k" unicode="k" horiz-adv-x="532" 
d="M361 308q-7 -6 -14 -14q-12 -14 -12 -20q0 -17 8 -23q4 -3 13 -15t9 -14q2 -6 5 -11q6 -13 16 -22q18 -17 26 -46q3 -10 8 -18q7 -9 12 -19q28 -55 35 -64q4 -5 7 -10q3 -9 10 -15t24 -15q8 -4 10 -6.5t2 -6.5q0 -8 -5.5 -9.5t-25.5 0.5q-11 1 -34 3.5t-81 3.5t-76 -1
q-16 -2 -19.5 -1t-3.5 7t5 9q5 2 11 4q7 2 14 5q4 3 8 4q2 0 13 8t11 9q1 3 -2 13.5t-7 15.5q-15 18 -20 31q-4 10 -10 18q-7 10 -12 20q-6 13 -12 22q-13 25 -23 52q-1 6 -5 11q-4 -1 -42 -38l-13 -13l1 -23q2 -53 11 -75t17 -32.5t30 -30.5q6 -6 6 -10q0 -7 -6.5 -7.5
t-41.5 1.5q-109 7 -150 2q-21 -2 -30 -2q-8 -1 -15 -3q-6 -2 -10 -1q-3 2 -4 6t1 7q1 3 15.5 13t19.5 11q9 5 15 12q11 11 17 27q11 30 13 62q0 16 3 41q6 78 9 214q2 114 -1 147q-2 20 -1 41q1 19 0 25t-5 14q-2 3 -6 10q-3 6 -9 12q-4 3 -11.5 6t-9.5 2q-16 0 -32 1
q-31 2 -35 6q-4 3 -5 6q1 8 9 8q8 1 48 17q13 5 36 13q44 15 63 24q37 18 72 41q29 21 39.5 26t13.5 1q5 -6 0 -12q-2 -3 -14 -11q-24 -18 -34 -38q-20 -36 -16 -121q2 -36 0 -72q-6 -85 -5 -200l2 -95l9 9q23 21 61 51q11 8 40 37t33 36q6 9 5 11.5t-7.5 6.5t-9.5 4
q-9 3 -18 8q-11 5 -23 9q-13 4 -13 12q0 5 4.5 7t18.5 4q18 2 26 2q20 0 65 9q32 6 62 17q62 22 76 22q5 0 7.5 -4.5t-0.5 -9.5q-8 -6 -16 -10q-31 -19 -56 -45q-10 -12 -51.5 -53t-42.5 -41z" />
    <glyph glyph-name="l" unicode="l" horiz-adv-x="342" 
d="M333 13q7 -7 7 -16q-2 -7 -18 -4q-9 2 -56.5 3t-61.5 0q-48 -4 -89 -12q-15 -3 -31 -5q-12 -2 -32.5 -2.5t-27.5 1.5t-12 4.5t-5 5.5q-2 5 2 7t19 6q43 9 61 24q7 7 14 12t13 17q4 7 6 14q1 7 4 14l5 11v57q0 57 -2 115t0 164.5t0 128.5q-3 22 -4 34q-1 25 -11 36l-8 8
l-17 4q-13 2 -25 6q-8 3 -16 4q-25 3 -25 13q0 9 38 13q12 2 25 5q11 3 25 6q13 3 25 8q9 4 22 9q80 33 105 52q26 20 34 17q7 -3 6 -10q0 -3 -17 -17q-6 -4 -13.5 -15t-15 -24t-11.5 -25q-6 -16 -9 -32q-7 -36 -7 -282q0 -147 3 -172l4 -40q2 -14 3 -27t3 -28q4 -36 27 -55
q5 -3 9 -8q3 -4 8 -6q22 -12 24 -13q5 -2 11 -3q5 -1 11 -3z" />
    <glyph glyph-name="m" unicode="m" horiz-adv-x="935" 
d="M929 25q2 -2 1 -6t-3 -7q-4 -2 -13 -1q-109 12 -146 4q-42 -10 -101 -31q-32 -11 -37.5 -12t-8.5 2q-4 4 -1 10q5 9 40 32q29 20 38 39q8 17 9 73q1 31 2 44q2 25 2.5 78t-0.5 65q-2 13 -8 21q-16 21 -25 24q-9 2 -17 3q-23 1 -55 -14q-7 -4 -10 -5.5t-7.5 -5t-7.5 -6.5
t-10 -11q-11 -10 -21 -22q-2 -4 -12 -44q-4 -16 -5 -32q-2 -15 -4 -36q-3 -32 3 -51l4 -22q2 -13 11 -21q15 -13 24 -13q4 0 20 -5.5t20 -8.5q11 -7 3 -15q-4 -3 -32 4q-56 15 -77 10q-9 -3 -23.5 -4.5t-26.5 -3.5q-7 -2 -22.5 -6.5t-29.5 -9.5t-19 -7q-13 -7 -16 0
q-4 6 7 14q10 7 57 21q7 2 8.5 3t-0.5 3q-4 7 -6 119q-1 71 -7 116q-4 28 -23 49q-13 17 -37 22l-11 2l-16 -4q-22 -8 -41 -21q-16 -10 -31 -35q-10 -17 -19 -46l-6 -21v-59q1 -92 6 -117q2 -12 3 -23q2 -8 3 -10.5t7 -7.5q8 -6 26 -11.5t20 -7.5q2 -1 5 -1q4 -2 8 -5
q11 -7 3 -15q-3 -4 -8 -2q-16 3 -57 4.5t-66 -0.5q-41 -3 -106 -19q-27 -7 -30 -7q-4 0 -6 6t1 9q8 5 15 9q23 11 43 32q16 16 22 30t8 35q2 11 2 22q-4 7 -6 75q-1 65 -4 75q-1 9 -1 19q-1 34 -5 41q-6 8 -23 12q-11 3 -21 5q-32 7 -51 10q-18 2 -21 5q-2 2 -2 6q0 5 5 6
t23 1q19 0 36 3q19 4 51 9q20 2 62 27q15 9 24 14q11 6 39 25t35 25q12 11 18 5q4 -5 1.5 -10t-16.5 -19q-31 -31 -38 -65q-3 -11 -3 -21v-8l4 6q7 11 28 30.5t33 26.5q7 5 19 12q16 11 41 15q15 2 36 0q11 -2 23 -5q9 -3 17 -4q11 -2 20 -7q7 -3 15 -6q9 -3 16 -13t12 -16
q9 -14 12 -31q1 -4 8 2l6 7q22 22 30 28t28 16q15 8 31 13q9 3 18 7q12 5 25 7q31 5 49 -3q14 -6 28 -9q4 -1 7 -3q4 -4 8 -6q3 -2 13 -12t19.5 -22t12.5 -17q7 -12 9 -26q6 -24 8 -63t-1 -66q-2 -25 1.5 -68t10.5 -71q6 -23 10 -27.5t21 -8.5q10 -3 20 -7q8 -3 15 -3
q6 0 17 -3.5t14 -5.5z" />
    <glyph glyph-name="n" unicode="n" 
d="M525 12q13 -5 13 -13q0 -10 -17 -8q-17 3 -92 1q-71 -2 -103 -10q-22 -5 -25 1q-3 8 7 15q9 7 23.5 29t16.5 33q1 5 3 10q2 13 3 26q1 25 3 37q4 30 5 110q1 42 -4 63q-8 41 -16 46q-3 3 -5 8q-8 15 -25 19q-14 3 -30 -5q-11 -5 -25 -20q-35 -35 -38 -60q-2 -11 -5 -24
t-13 -73q-2 -8 -1.5 -29.5t2.5 -35.5q2 -17 3 -33q2 -39 21 -59q4 -4 7 -8q4 -6 18.5 -15t23.5 -12q16 -6 8 -16l-4 -4l-27 5q-50 8 -85 7q-36 -1 -77.5 -6.5t-57.5 -11.5q-15 -5 -20 -2q-2 2 -2.5 6.5t1.5 6.5q2 1 18 10q22 11 29.5 18t19.5 27q17 28 23 60q7 37 2 74
q-6 75 -5 82q2 9 -3 51q-3 21 -9 24q-5 2 -11 2q-11 0 -23 2q-13 3 -21 1q-15 -4 -18 5q-2 8 3 12t27 12q48 17 54.5 20t23.5 13q16 10 23.5 15.5t21.5 13.5q11 7 21 15q38 32 49 36q2 1 6 -2t4 -6q-2 -7 -7 -12q-26 -33 -31 -60q-3 -27 0 -41q12 22 31 39q15 15 30 22
q34 16 49 16q9 1 17 3q15 5 31 0q18 -5 32 -18l14 -10q9 -6 14.5 -13t11 -20t13.5 -37q2 -9 3 -18q4 -32 6 -38q2 -5 0 -19q-1 -8 -1 -15q3 -5 3 -68v-49q-1 -33 1 -39q1 -5 5 -20q3 -13 5.5 -17.5t12.5 -16.5q11 -13 14 -18q5 -6 25 -14z" />
    <glyph glyph-name="n" unicode="&#xf1;" 
d="M525 12q13 -5 13 -13q0 -10 -17 -8q-17 3 -92 1q-71 -2 -103 -10q-22 -5 -25 1q-3 8 7 15q9 7 23.5 29t16.5 33q1 5 3 10q2 13 3 26q1 25 3 37q4 30 5 110q1 42 -4 63q-8 41 -16 46q-3 3 -5 8q-8 15 -25 19q-14 3 -30 -5q-11 -5 -25 -20q-35 -35 -38 -60q-2 -11 -5 -24
t-13 -73q-2 -8 -1.5 -29.5t2.5 -35.5q2 -17 3 -33q2 -39 21 -59q4 -4 7 -8q4 -6 18.5 -15t23.5 -12q16 -6 8 -16l-4 -4l-27 5q-50 8 -85 7q-36 -1 -77.5 -6.5t-57.5 -11.5q-15 -5 -20 -2q-2 2 -2.5 6.5t1.5 6.5q2 1 18 10q22 11 29.5 18t19.5 27q17 28 23 60q7 37 2 74
q-6 75 -5 82q2 9 -3 51q-3 21 -9 24q-5 2 -11 2q-11 0 -23 2q-13 3 -21 1q-15 -4 -18 5q-2 8 3 12t27 12q48 17 54.5 20t23.5 13q16 10 23.5 15.5t21.5 13.5q11 7 21 15q38 32 49 36q2 1 6 -2t4 -6q-2 -7 -7 -12q-26 -33 -31 -60q-3 -27 0 -41q12 22 31 39q15 15 30 22
q34 16 49 16q9 1 17 3q15 5 31 0q18 -5 32 -18l14 -10q9 -6 14.5 -13t11 -20t13.5 -37q2 -9 3 -18q4 -32 6 -38q2 -5 0 -19q-1 -8 -1 -15q3 -5 3 -68v-49q-1 -33 1 -39q1 -5 5 -20q3 -13 5.5 -17.5t12.5 -16.5q11 -13 14 -18q5 -6 25 -14z" />
    <glyph glyph-name="o" unicode="o" horiz-adv-x="481" 
d="M448 276q4 -21 3 -49q0 -25 -5 -49q-3 -20 -6 -33q-5 -28 -16 -54q-6 -12 -15 -21q-11 -13 -21 -27q-10 -15 -19 -19q-6 -3 -10.5 -7.5t-11.5 -6.5q-7 -3 -13 -7q-8 -6 -17 -10l-13 -6l-23 -1q-20 0 -41 2q-17 2 -36 4q-14 1 -28 4q-4 1 -8.5 2t-8.5 2q-21 2 -45 23
q-29 26 -37 41q-5 9 -9 16q-5 7 -8 15l-9 18q-12 23 -21 91q-4 34 1 68q1 10 11 40t16 43q13 25 43 53q58 53 101 56q11 1 21 3q27 3 47 -3q8 -3 15 -5q2 0 28 -12q57 -28 78 -53q18 -19 22 -27q3 -7 9 -16q5 -8 8 -16q3 -9 7 -16q5 -7 6 -15q1 -7 5 -28zM326 99q9 27 11 49
t2 76q0 48 -1.5 65t-7.5 42q-4 17 -11 33q-7 15 -21 29q-21 20 -44 26q-7 1 -11 -1q-6 -3 -12 -4q-35 -7 -61 -41q-11 -16 -24 -64q-8 -28 -8 -84q-1 -40 7 -79q11 -58 19 -71q6 -8 9 -14q7 -12 19 -19q11 -5 34 -6q7 0 14 -2q9 -2 18 -2q11 0 20 5q19 9 31 27q9 11 17 35z
" />
    <glyph glyph-name="o" unicode="&#xf8;" horiz-adv-x="481" 
d="M448 276q4 -21 3 -49q0 -25 -5 -49q-3 -20 -6 -33q-5 -28 -16 -54q-6 -12 -15 -21q-11 -13 -21 -27q-10 -15 -19 -19q-6 -3 -10.5 -7.5t-11.5 -6.5q-7 -3 -13 -7q-8 -6 -17 -10l-13 -6l-23 -1q-20 0 -41 2q-17 2 -36 4q-14 1 -28 4q-4 1 -8.5 2t-8.5 2q-21 2 -45 23
q-29 26 -37 41q-5 9 -9 16q-5 7 -8 15l-9 18q-12 23 -21 91q-4 34 1 68q1 10 11 40t16 43q13 25 43 53q58 53 101 56q11 1 21 3q27 3 47 -3q8 -3 15 -5q2 0 28 -12q57 -28 78 -53q18 -19 22 -27q3 -7 9 -16q5 -8 8 -16q3 -9 7 -16q5 -7 6 -15q1 -7 5 -28zM326 99q9 27 11 49
t2 76q0 48 -1.5 65t-7.5 42q-4 17 -11 33q-7 15 -21 29q-21 20 -44 26q-7 1 -11 -1q-6 -3 -12 -4q-35 -7 -61 -41q-11 -16 -24 -64q-8 -28 -8 -84q-1 -40 7 -79q11 -58 19 -71q6 -8 9 -14q7 -12 19 -19q11 -5 34 -6q7 0 14 -2q9 -2 18 -2q11 0 20 5q19 9 31 27q9 11 17 35z
" />
    <glyph glyph-name="o" unicode="&#xf6;" horiz-adv-x="481" 
d="M448 276q4 -21 3 -49q0 -25 -5 -49q-3 -20 -6 -33q-5 -28 -16 -54q-6 -12 -15 -21q-11 -13 -21 -27q-10 -15 -19 -19q-6 -3 -10.5 -7.5t-11.5 -6.5q-7 -3 -13 -7q-8 -6 -17 -10l-13 -6l-23 -1q-20 0 -41 2q-17 2 -36 4q-14 1 -28 4q-4 1 -8.5 2t-8.5 2q-21 2 -45 23
q-29 26 -37 41q-5 9 -9 16q-5 7 -8 15l-9 18q-12 23 -21 91q-4 34 1 68q1 10 11 40t16 43q13 25 43 53q58 53 101 56q11 1 21 3q27 3 47 -3q8 -3 15 -5q2 0 28 -12q57 -28 78 -53q18 -19 22 -27q3 -7 9 -16q5 -8 8 -16q3 -9 7 -16q5 -7 6 -15q1 -7 5 -28zM326 99q9 27 11 49
t2 76q0 48 -1.5 65t-7.5 42q-4 17 -11 33q-7 15 -21 29q-21 20 -44 26q-7 1 -11 -1q-6 -3 -12 -4q-35 -7 -61 -41q-11 -16 -24 -64q-8 -28 -8 -84q-1 -40 7 -79q11 -58 19 -71q6 -8 9 -14q7 -12 19 -19q11 -5 34 -6q7 0 14 -2q9 -2 18 -2q11 0 20 5q19 9 31 27q9 11 17 35z
" />
    <glyph glyph-name="o" unicode="&#xf5;" horiz-adv-x="481" 
d="M448 276q4 -21 3 -49q0 -25 -5 -49q-3 -20 -6 -33q-5 -28 -16 -54q-6 -12 -15 -21q-11 -13 -21 -27q-10 -15 -19 -19q-6 -3 -10.5 -7.5t-11.5 -6.5q-7 -3 -13 -7q-8 -6 -17 -10l-13 -6l-23 -1q-20 0 -41 2q-17 2 -36 4q-14 1 -28 4q-4 1 -8.5 2t-8.5 2q-21 2 -45 23
q-29 26 -37 41q-5 9 -9 16q-5 7 -8 15l-9 18q-12 23 -21 91q-4 34 1 68q1 10 11 40t16 43q13 25 43 53q58 53 101 56q11 1 21 3q27 3 47 -3q8 -3 15 -5q2 0 28 -12q57 -28 78 -53q18 -19 22 -27q3 -7 9 -16q5 -8 8 -16q3 -9 7 -16q5 -7 6 -15q1 -7 5 -28zM326 99q9 27 11 49
t2 76q0 48 -1.5 65t-7.5 42q-4 17 -11 33q-7 15 -21 29q-21 20 -44 26q-7 1 -11 -1q-6 -3 -12 -4q-35 -7 -61 -41q-11 -16 -24 -64q-8 -28 -8 -84q-1 -40 7 -79q11 -58 19 -71q6 -8 9 -14q7 -12 19 -19q11 -5 34 -6q7 0 14 -2q9 -2 18 -2q11 0 20 5q19 9 31 27q9 11 17 35z
" />
    <glyph glyph-name="o" unicode="&#xf4;" horiz-adv-x="481" 
d="M448 276q4 -21 3 -49q0 -25 -5 -49q-3 -20 -6 -33q-5 -28 -16 -54q-6 -12 -15 -21q-11 -13 -21 -27q-10 -15 -19 -19q-6 -3 -10.5 -7.5t-11.5 -6.5q-7 -3 -13 -7q-8 -6 -17 -10l-13 -6l-23 -1q-20 0 -41 2q-17 2 -36 4q-14 1 -28 4q-4 1 -8.5 2t-8.5 2q-21 2 -45 23
q-29 26 -37 41q-5 9 -9 16q-5 7 -8 15l-9 18q-12 23 -21 91q-4 34 1 68q1 10 11 40t16 43q13 25 43 53q58 53 101 56q11 1 21 3q27 3 47 -3q8 -3 15 -5q2 0 28 -12q57 -28 78 -53q18 -19 22 -27q3 -7 9 -16q5 -8 8 -16q3 -9 7 -16q5 -7 6 -15q1 -7 5 -28zM326 99q9 27 11 49
t2 76q0 48 -1.5 65t-7.5 42q-4 17 -11 33q-7 15 -21 29q-21 20 -44 26q-7 1 -11 -1q-6 -3 -12 -4q-35 -7 -61 -41q-11 -16 -24 -64q-8 -28 -8 -84q-1 -40 7 -79q11 -58 19 -71q6 -8 9 -14q7 -12 19 -19q11 -5 34 -6q7 0 14 -2q9 -2 18 -2q11 0 20 5q19 9 31 27q9 11 17 35z
" />
    <glyph glyph-name="o" unicode="&#xf3;" horiz-adv-x="481" 
d="M448 276q4 -21 3 -49q0 -25 -5 -49q-3 -20 -6 -33q-5 -28 -16 -54q-6 -12 -15 -21q-11 -13 -21 -27q-10 -15 -19 -19q-6 -3 -10.5 -7.5t-11.5 -6.5q-7 -3 -13 -7q-8 -6 -17 -10l-13 -6l-23 -1q-20 0 -41 2q-17 2 -36 4q-14 1 -28 4q-4 1 -8.5 2t-8.5 2q-21 2 -45 23
q-29 26 -37 41q-5 9 -9 16q-5 7 -8 15l-9 18q-12 23 -21 91q-4 34 1 68q1 10 11 40t16 43q13 25 43 53q58 53 101 56q11 1 21 3q27 3 47 -3q8 -3 15 -5q2 0 28 -12q57 -28 78 -53q18 -19 22 -27q3 -7 9 -16q5 -8 8 -16q3 -9 7 -16q5 -7 6 -15q1 -7 5 -28zM326 99q9 27 11 49
t2 76q0 48 -1.5 65t-7.5 42q-4 17 -11 33q-7 15 -21 29q-21 20 -44 26q-7 1 -11 -1q-6 -3 -12 -4q-35 -7 -61 -41q-11 -16 -24 -64q-8 -28 -8 -84q-1 -40 7 -79q11 -58 19 -71q6 -8 9 -14q7 -12 19 -19q11 -5 34 -6q7 0 14 -2q9 -2 18 -2q11 0 20 5q19 9 31 27q9 11 17 35z
" />
    <glyph glyph-name="o" unicode="&#xf2;" horiz-adv-x="481" 
d="M448 276q4 -21 3 -49q0 -25 -5 -49q-3 -20 -6 -33q-5 -28 -16 -54q-6 -12 -15 -21q-11 -13 -21 -27q-10 -15 -19 -19q-6 -3 -10.5 -7.5t-11.5 -6.5q-7 -3 -13 -7q-8 -6 -17 -10l-13 -6l-23 -1q-20 0 -41 2q-17 2 -36 4q-14 1 -28 4q-4 1 -8.5 2t-8.5 2q-21 2 -45 23
q-29 26 -37 41q-5 9 -9 16q-5 7 -8 15l-9 18q-12 23 -21 91q-4 34 1 68q1 10 11 40t16 43q13 25 43 53q58 53 101 56q11 1 21 3q27 3 47 -3q8 -3 15 -5q2 0 28 -12q57 -28 78 -53q18 -19 22 -27q3 -7 9 -16q5 -8 8 -16q3 -9 7 -16q5 -7 6 -15q1 -7 5 -28zM326 99q9 27 11 49
t2 76q0 48 -1.5 65t-7.5 42q-4 17 -11 33q-7 15 -21 29q-21 20 -44 26q-7 1 -11 -1q-6 -3 -12 -4q-35 -7 -61 -41q-11 -16 -24 -64q-8 -28 -8 -84q-1 -40 7 -79q11 -58 19 -71q6 -8 9 -14q7 -12 19 -19q11 -5 34 -6q7 0 14 -2q9 -2 18 -2q11 0 20 5q19 9 31 27q9 11 17 35z
" />
    <glyph glyph-name="p" unicode="p" horiz-adv-x="582" 
d="M550 249q3 -8 3 -14.5t-3 -42.5q-3 -42 -15 -71q-16 -36 -24 -48l-12 -18q-17 -27 -40 -48q-11 -12 -26 -19l-12 -5l-26 -1q-26 -1 -50 0.5t-35 5.5q-9 4 -17 10q-12 8 -30 16t-21 7q-3 -2 0 -45q2 -23 2 -77q1 -55 2 -63q4 -12 9 -24q10 -21 19 -21q3 0 5 -2
q11 -2 21 -1q37 -1 44 -8q10 -8 3 -14q-2 -2 -14 -2t-30 -3q-19 -2 -42 -4q-24 -2 -43 -5q-74 -12 -130 -31q-34 -11 -36 -11q-4 0 -7 3q-4 3 -3 8q0 4 8 8q8 5 16 12q9 7 17 13q14 10 21 22t17 41q12 38 14.5 55.5t2.5 73.5q0 63 -2 93q-2 29 -3 54q0 15 -3 29q-2 4 -2 30
v30v13q0 10 -1 19t1 18q2 8 2 25t-2 27q-2 11 -3 21q-4 36 -14 44q-12 10 -24 7q-10 -1 -20 -1q-18 1 -44 -11q-15 -7 -16 4q0 6 7 12t15 10q6 3 11 7q2 3 7 2q9 -1 40 16q21 11 38 19q67 34 113 77q17 16 37 33.5t25 17.5q8 0 8 -9q0 -6 -9 -16q-21 -24 -33 -49
q-8 -15 -12 -32q-12 -53 -12 -59l7 7q22 26 51 44q22 14 47 13q13 0 26 2q15 3 30 2q20 0 25 -3q6 -4 12 -5q7 -1 13 -5q5 -4 10.5 -6.5t10.5 -7.5q6 -5 11 -9q13 -11 22 -25q24 -37 30 -70q1 -12 5 -24q3 -9 4 -20q1 -10 4 -21zM431 158q3 17 2 72q-1 86 -9 114
q-4 19 -15 31q-6 9 -15 10q-8 1 -16 4q-17 5 -35 6q-9 -1 -17 -4q-12 -3 -20 -11q-11 -10 -22 -18q-14 -10 -25 -23l-11 -13l1 -30q1 -57 1 -79q-1 -20 0 -36q1 -18 0 -35q-2 -19 -3 -36l-1 -16l10 -10q6 -6 12 -10q5 -3 9 -7q21 -23 37 -33l10 -5l15 1q15 1 22 4
q29 15 42 31t20 44q3 17 4 24q1 8 4 25z" />
    <glyph glyph-name="q" unicode="q" horiz-adv-x="504" 
d="M523.5 -231q11.5 -4 16.5 -6.5t6.5 -4.5t1.5 -7t-4 -6.5t-21 -0.5q-80 5 -196 -7q-50 -6 -70 -13q-24 -9 -30 -3q-2 3 -2 5q0 8 10 12q30 11 38 17q57 33 63 44q4 6 4 28q0 23 -1 43q-6 81 -6 141v27l-9 -9q-24 -26 -38 -31q-7 -3 -13 -7q-5 -5 -18 -6q-9 0 -18 -2
q-12 -2 -24 -3q-18 -1 -31 2q-10 3 -21 3q-6 0 -19 3.5t-18 6.5q-10 9 -20 19q-17 17 -24.5 23.5t-15.5 22.5q-21 41 -26 78q-1 7 -3 15q-7 27 -5 79q2 38 8 60q10 32 28 61l12 21q18 34 37 44q8 4 22 12q15 9 22 11t23 3q95 7 123 -12q4 -3 8 -4l16 -10l14 -10v17
q-1 16 3 20q8 8 18 3q4 -2 19 -2t28 6q12 6 21 9.5t26 11.5q23 12 28 6t-6 -19q-16 -18 -26 -48q-6 -18 -5 -159q1 -115 -1.5 -142t-1.5 -120q1 -71 2.5 -93t7.5 -59q5 -37 14 -47q4 -4 10 -5q7 -3 19.5 -8.5t24 -9.5zM338 232l1 94l-7 8q-7 9 -11 16q-6 10 -11 13t-20 6
q-9 2 -17 7q-14 10 -39 10q-17 0 -26 -5q-20 -11 -36 -44q-14 -31 -20 -80q-2 -17 -2.5 -58.5t1.5 -51.5q2 -8 4 -27q3 -27 14 -51q3 -7 11 -16t13 -11q23 -10 39 -10q6 0 11 -2q10 -2 20 1q11 6 19 15q9 8 19 16q9 5 25 29l9 14l1 17q1 17 2 110z" />
    <glyph glyph-name="r" unicode="r" horiz-adv-x="442" 
d="M407 413q9 -23 14 -50.5t3 -43.5q-2 -20 -23 -40q-19 -19 -31 -25q-16 -6 -25 -1q-19 12 -34 28q-7 7 -14 13q-10 7 -10 25q0 12 8 31q4 12 9 22q4 3 10 1t6 -7q-3 -10 -8 -20q-11 -29 -5 -29q5 -2 9 -6q6 -5 16.5 -10t15.5 -5q9 0 17 13q4 6 4 20t-6.5 32t-13.5 25
q-11 12 -21 12q-12 0 -34 -18q-10 -9 -25 -26t-19 -25q-9 -16 -18 -51q-10 -45 -12 -110q-1 -25 0.5 -59t4.5 -42q5 -16 22 -25q11 -6 20 -12q8 -6 18 -9q12 -3 23 -8q14 -5 16 -9q1 -5 -2 -8q-2 -5 -16 -4q-38 3 -98 2.5t-92 -4.5q-61 -6 -78 -10q-14 -3 -15 -3q-3 1 -5 4
q-11 11 10 17q15 5 32.5 14t21.5 15q18 20 24 63q3 17 4.5 95t-1.5 92q-2 14 -2 19l-4 14q-4 8 -5 14q-3 12 -14 18q-7 5 -14 12q-6 7 -9.5 9t-14.5 5q-10 3 -20 5q-3 0 -9 3t-7 6v5q3 8 30 8q22 1 44 7q33 8 54 19q64 34 91 55q22 16 27 14q4 -2 5.5 -6t-0.5 -7.5
t-13 -18.5q-15 -22 -22 -48q-1 -7 -4 -30.5t-2 -24.5q5 5 9 10q13 18 21 24q7 6 12 12q11 14 31.5 29.5t26.5 15.5q6 1 11 3q9 3 23.5 2t22.5 -5q20 -9 30 -33z" />
    <glyph glyph-name="s" unicode="s" horiz-adv-x="425" 
d="M388 138v-36l-5 -12q-9 -20 -22 -39q-5 -8 -7 -12q-11 -17 -37 -32q-20 -11 -42 -13q-40 -6 -71 -4q-26 1 -56 9q-43 11 -51 16q-4 3 -6 1t-4 -10q-3 -10 -7 -19q-4 -8 -7 -15t-7.5 -8.5t-8.5 2.5q-6 6 -8 38q-6 75 -7 131t4 61q3 3 7 2q8 0 13 -21q14 -63 34 -88
q8 -10 29 -21q16 -9 33.5 -18.5t28 -12t31.5 -1.5q25 1 37 7q4 2 8 2q6 2 11 5q21 13 25 47q2 17 -24 42q-12 11 -16 13t-19 4q-7 1 -13 4q-5 3 -11 2q-8 1 -16 3q-8 3 -15.5 2.5t-15.5 1.5q-7 2 -14 2q-14 0 -44 27q-7 5 -13 10q-11 8 -20 16q-13 12 -23 20q-6 6 -11 14
q-6 14 -9 59l-1 24l5 16q5 20 18 37q13 19 29 31q21 17 34 23t51 17q27 7 53 1q13 -3 26 -2q14 1 24 -4q8 -4 14 -8q4 -3 14 -10q10 -6 20 -13q9 -7 11.5 -6t7.5 12q8 16 20 30q5 6 11 -1q3 -3 1 -23q-2 -22 -3.5 -71t-0.5 -68q1 -21 -1 -25q-6 -7 -13 -2q-5 6 -6 14
q-2 6 -5 12q-5 13 -8 28q-4 18 -9 27q-13 22 -24 26q-6 3 -11 8t-11 8q-3 2 -11 6q-6 4 -14 6q-15 2 -30 7q-18 4 -37 -1l-16 -2q-14 1 -25 -9q-7 -5 -15 -8q-17 -4 -20 -21q-3 -19 4 -36q2 -5 6 -9.5t8.5 -8t10 -6t9.5 -2.5q7 -1 13 -5q12 -4 25 -7q24 -5 39 -11
q13 -6 36 -15q35 -14 68 -32q24 -14 33 -27q5 -8 9 -16q9 -19 10 -63z" />
    <glyph glyph-name="t" unicode="t" horiz-adv-x="397" 
d="M361 174q4 -12 3 -41q-1 -33 -12 -65q-12 -35 -48 -69q-18 -17 -30 -22t-37 -6q-42 -3 -56 1q-24 7 -46 39q-10 15 -14 33q-10 30 -11.5 47.5t-1.5 80.5q0 107 6 154q2 19 2 38q0 21 -3 25q-4 4 -13.5 5t-46.5 1q-29 1 -37 2t-9 6q-3 8 16 18q15 8 22.5 12.5t15.5 8.5
q10 5 19 11q11 7 22 13q12 6 22 14q12 10 22 17q12 10 22 21q12 14 20 23q10 11 32 45q12 19 20 4q5 -7 -1 -16q-11 -17 -14 -31.5t0 -47.5q2 -31 0 -36q-1 -4 0 -7q1 -1 50 -2q5 0 28 1q34 3 41 9q2 2 5.5 2t5.5 -3q3 -3 1 -19t0 -31q3 -17 3 -26q1 -10 -3 -13.5t-6 -3
t-8 6.5q-16 15 -23 15q-6 0 -31 -1q-41 -2 -59 3q-1 0 -2 -3q0 -4 1 -37q1 -41 -1 -94q-5 -130 2 -171q2 -12 5.5 -14.5t17.5 -2.5q9 0 12.5 0.5t6.5 2.5t10 8q14 12 21 29q8 18 6.5 33.5t-14.5 37.5q-6 10 -10.5 11t-11.5 -8q-12 -14 -12 -28q0 -9 -4.5 -12.5t-10.5 0.5
q-3 3 -3 11q0 9 2 15.5t6.5 14t15.5 21.5q8 10 19 16q12 8 19 8q9 0 24 -11q25 -19 33 -43z" />
    <glyph glyph-name="u" unicode="u" horiz-adv-x="567" 
d="M556 37q5 -3 3.5 -9t-7.5 -6q-3 0 -15 2q-37 7 -94 -4q-50 -10 -96 -30q-25 -11 -32.5 -12.5t-9.5 4.5q-1 7 9 14q19 14 29 35q8 17 6 17q-1 1 -5 -3q-7 -5 -16 -13q-11 -10 -37 -27q-28 -19 -68 -26q-15 -3 -31 -1q-14 2 -36 17q-10 7 -21.5 18t-13.5 17
q-13 26 -15.5 38t-3.5 46v74q-1 65 5 100q8 42 -5 67q-2 4 -17.5 19.5t-25.5 23.5q-7 6 -22.5 14.5t-22.5 10.5q-8 3 -9.5 8.5t5.5 9.5q4 2 19 -4q26 -11 55 -12q18 -1 36 2q45 7 61 13q15 4 31.5 8t19.5 5q3 0 7 -3t4 -6q-2 -6 -7 -11q-17 -22 -25 -50q-5 -23 -4 -158
q1 -71 2.5 -90t9.5 -44q9 -31 26 -35q6 -1 12 -4q6 -2 18 -1t24 10q9 6 16 14q6 6 12 10q8 4 12 11l6 10q5 6 10 35q5 35 8 114q2 80 -5 104q-6 20 -32 26q-19 4 -36 11q-6 3 -12 5q-14 5 -9 13q1 3 3 3t42.5 0.5t57.5 5.5q15 4 30 6q16 3 31 8q18 6 29 9q12 3 23 9
q20 9 26 5q5 -3 3.5 -9t-8.5 -9q-7 -4 -12.5 -10.5t-13 -20.5t-7.5 -18q-2 -8 -5 -17q-5 -17 -8 -50q-1 -13 1 -27q1 -19 1 -113q0 -76 1 -91.5t7 -25.5q4 -6 9 -10q3 -4 13.5 -7.5t15.5 -3.5q3 1 6 -1q10 -4 20 -5q11 -1 22 -5z" />
    <glyph glyph-name="u" unicode="&#xfc;" horiz-adv-x="567" 
d="M556 37q5 -3 3.5 -9t-7.5 -6q-3 0 -15 2q-37 7 -94 -4q-50 -10 -96 -30q-25 -11 -32.5 -12.5t-9.5 4.5q-1 7 9 14q19 14 29 35q8 17 6 17q-1 1 -5 -3q-7 -5 -16 -13q-11 -10 -37 -27q-28 -19 -68 -26q-15 -3 -31 -1q-14 2 -36 17q-10 7 -21.5 18t-13.5 17
q-13 26 -15.5 38t-3.5 46v74q-1 65 5 100q8 42 -5 67q-2 4 -17.5 19.5t-25.5 23.5q-7 6 -22.5 14.5t-22.5 10.5q-8 3 -9.5 8.5t5.5 9.5q4 2 19 -4q26 -11 55 -12q18 -1 36 2q45 7 61 13q15 4 31.5 8t19.5 5q3 0 7 -3t4 -6q-2 -6 -7 -11q-17 -22 -25 -50q-5 -23 -4 -158
q1 -71 2.5 -90t9.5 -44q9 -31 26 -35q6 -1 12 -4q6 -2 18 -1t24 10q9 6 16 14q6 6 12 10q8 4 12 11l6 10q5 6 10 35q5 35 8 114q2 80 -5 104q-6 20 -32 26q-19 4 -36 11q-6 3 -12 5q-14 5 -9 13q1 3 3 3t42.5 0.5t57.5 5.5q15 4 30 6q16 3 31 8q18 6 29 9q12 3 23 9
q20 9 26 5q5 -3 3.5 -9t-8.5 -9q-7 -4 -12.5 -10.5t-13 -20.5t-7.5 -18q-2 -8 -5 -17q-5 -17 -8 -50q-1 -13 1 -27q1 -19 1 -113q0 -76 1 -91.5t7 -25.5q4 -6 9 -10q3 -4 13.5 -7.5t15.5 -3.5q3 1 6 -1q10 -4 20 -5q11 -1 22 -5z" />
    <glyph glyph-name="u" unicode="&#xfb;" horiz-adv-x="567" 
d="M556 37q5 -3 3.5 -9t-7.5 -6q-3 0 -15 2q-37 7 -94 -4q-50 -10 -96 -30q-25 -11 -32.5 -12.5t-9.5 4.5q-1 7 9 14q19 14 29 35q8 17 6 17q-1 1 -5 -3q-7 -5 -16 -13q-11 -10 -37 -27q-28 -19 -68 -26q-15 -3 -31 -1q-14 2 -36 17q-10 7 -21.5 18t-13.5 17
q-13 26 -15.5 38t-3.5 46v74q-1 65 5 100q8 42 -5 67q-2 4 -17.5 19.5t-25.5 23.5q-7 6 -22.5 14.5t-22.5 10.5q-8 3 -9.5 8.5t5.5 9.5q4 2 19 -4q26 -11 55 -12q18 -1 36 2q45 7 61 13q15 4 31.5 8t19.5 5q3 0 7 -3t4 -6q-2 -6 -7 -11q-17 -22 -25 -50q-5 -23 -4 -158
q1 -71 2.5 -90t9.5 -44q9 -31 26 -35q6 -1 12 -4q6 -2 18 -1t24 10q9 6 16 14q6 6 12 10q8 4 12 11l6 10q5 6 10 35q5 35 8 114q2 80 -5 104q-6 20 -32 26q-19 4 -36 11q-6 3 -12 5q-14 5 -9 13q1 3 3 3t42.5 0.5t57.5 5.5q15 4 30 6q16 3 31 8q18 6 29 9q12 3 23 9
q20 9 26 5q5 -3 3.5 -9t-8.5 -9q-7 -4 -12.5 -10.5t-13 -20.5t-7.5 -18q-2 -8 -5 -17q-5 -17 -8 -50q-1 -13 1 -27q1 -19 1 -113q0 -76 1 -91.5t7 -25.5q4 -6 9 -10q3 -4 13.5 -7.5t15.5 -3.5q3 1 6 -1q10 -4 20 -5q11 -1 22 -5z" />
    <glyph glyph-name="u" unicode="&#xfa;" horiz-adv-x="567" 
d="M556 37q5 -3 3.5 -9t-7.5 -6q-3 0 -15 2q-37 7 -94 -4q-50 -10 -96 -30q-25 -11 -32.5 -12.5t-9.5 4.5q-1 7 9 14q19 14 29 35q8 17 6 17q-1 1 -5 -3q-7 -5 -16 -13q-11 -10 -37 -27q-28 -19 -68 -26q-15 -3 -31 -1q-14 2 -36 17q-10 7 -21.5 18t-13.5 17
q-13 26 -15.5 38t-3.5 46v74q-1 65 5 100q8 42 -5 67q-2 4 -17.5 19.5t-25.5 23.5q-7 6 -22.5 14.5t-22.5 10.5q-8 3 -9.5 8.5t5.5 9.5q4 2 19 -4q26 -11 55 -12q18 -1 36 2q45 7 61 13q15 4 31.5 8t19.5 5q3 0 7 -3t4 -6q-2 -6 -7 -11q-17 -22 -25 -50q-5 -23 -4 -158
q1 -71 2.5 -90t9.5 -44q9 -31 26 -35q6 -1 12 -4q6 -2 18 -1t24 10q9 6 16 14q6 6 12 10q8 4 12 11l6 10q5 6 10 35q5 35 8 114q2 80 -5 104q-6 20 -32 26q-19 4 -36 11q-6 3 -12 5q-14 5 -9 13q1 3 3 3t42.5 0.5t57.5 5.5q15 4 30 6q16 3 31 8q18 6 29 9q12 3 23 9
q20 9 26 5q5 -3 3.5 -9t-8.5 -9q-7 -4 -12.5 -10.5t-13 -20.5t-7.5 -18q-2 -8 -5 -17q-5 -17 -8 -50q-1 -13 1 -27q1 -19 1 -113q0 -76 1 -91.5t7 -25.5q4 -6 9 -10q3 -4 13.5 -7.5t15.5 -3.5q3 1 6 -1q10 -4 20 -5q11 -1 22 -5z" />
    <glyph glyph-name="u" unicode="&#xf9;" horiz-adv-x="567" 
d="M556 37q5 -3 3.5 -9t-7.5 -6q-3 0 -15 2q-37 7 -94 -4q-50 -10 -96 -30q-25 -11 -32.5 -12.5t-9.5 4.5q-1 7 9 14q19 14 29 35q8 17 6 17q-1 1 -5 -3q-7 -5 -16 -13q-11 -10 -37 -27q-28 -19 -68 -26q-15 -3 -31 -1q-14 2 -36 17q-10 7 -21.5 18t-13.5 17
q-13 26 -15.5 38t-3.5 46v74q-1 65 5 100q8 42 -5 67q-2 4 -17.5 19.5t-25.5 23.5q-7 6 -22.5 14.5t-22.5 10.5q-8 3 -9.5 8.5t5.5 9.5q4 2 19 -4q26 -11 55 -12q18 -1 36 2q45 7 61 13q15 4 31.5 8t19.5 5q3 0 7 -3t4 -6q-2 -6 -7 -11q-17 -22 -25 -50q-5 -23 -4 -158
q1 -71 2.5 -90t9.5 -44q9 -31 26 -35q6 -1 12 -4q6 -2 18 -1t24 10q9 6 16 14q6 6 12 10q8 4 12 11l6 10q5 6 10 35q5 35 8 114q2 80 -5 104q-6 20 -32 26q-19 4 -36 11q-6 3 -12 5q-14 5 -9 13q1 3 3 3t42.5 0.5t57.5 5.5q15 4 30 6q16 3 31 8q18 6 29 9q12 3 23 9
q20 9 26 5q5 -3 3.5 -9t-8.5 -9q-7 -4 -12.5 -10.5t-13 -20.5t-7.5 -18q-2 -8 -5 -17q-5 -17 -8 -50q-1 -13 1 -27q1 -19 1 -113q0 -76 1 -91.5t7 -25.5q4 -6 9 -10q3 -4 13.5 -7.5t15.5 -3.5q3 1 6 -1q10 -4 20 -5q11 -1 22 -5z" />
    <glyph glyph-name="v" unicode="v" 
d="M536 464q5 -4 4 -11q0 -4 -17 -18q-52 -46 -72 -79q-21 -36 -36 -74q-7 -19 -15 -41q-9 -23 -13 -36q-21 -53 -24 -59q-4 -12 -8 -25q-6 -20 -13 -40q-7 -17 -18 -44q-9 -23 -12 -33q-3 -8 -8 -14q-4 -4 -15 -4t-22 1q-17 2 -26.5 11t-16.5 31q-3 9 -7 18q-10 20 -17 41
q-2 8 -9 23q-23 56 -27 68q-3 10 -9 19q-12 20 -18 44q-12 43 -30 85q-12 29 -18 41.5t-12 20t-16 15.5q-35 29 -45 33q-13 6 -13 13q1 7 9 8q5 -1 9 -3q6 -4 37 -9l31 -6l70 1q70 0 88.5 1.5t21.5 -0.5q5 -3 3 -9.5t-7.5 -6.5t-17.5 -7t-23.5 -16.5t-14.5 -16.5
q-9 -15 7 -47q5 -10 8 -21q5 -16 31 -63q12 -23 15 -30.5l11 -27.5q26 -63 26 -69l2 1q3 8 5 17q4 12 9 23q3 8 9.5 25t11.5 27t16 40t14.5 38.5t9.5 25.5q5 16 11 29q4 11 6 22q1 9 -3 12q-14 8 -31 8q-11 0 -15 3t-2 10q1 5 27 9q55 7 97 25q18 8 28 11q9 3 17 7
q12 6 17 3z" />
    <glyph glyph-name="w" unicode="w" horiz-adv-x="760" 
d="M765 467q1 -4 -2 -7t-14 -9q-36 -18 -63 -48q-10 -10 -17 -23q-17 -32 -20 -40t-10 -24t-15 -40t-10 -29q-4 -7 -6 -14q-4 -10 -13 -31q-17 -39 -29 -79q-19 -70 -34 -101q-10 -19 -13 -21q-10 -5 -23 -5q-7 0 -10.5 4t-7.5 17q-5 16 -12 31q-11 22 -19 44q-2 7 -5 14
q-9 20 -16 40q-3 7 -8 12q-10 11 -27 68q-4 15 -7 23q-4 9 -5 14q-1 3 -4 7.5t-6 8t-5 3.5q-5 0 -20 -42q-10 -26 -14 -36q-4 -9 -6 -15t-9 -20.5t-12 -30.5q-6 -17 -13 -34q-7 -18 -15 -46q-11 -37 -16 -48.5t-13 -15.5q-13 -5 -27 -1q-3 1 -7.5 5.5t-4.5 7.5q-2 6 -4 11
q-4 10 -12 31.5t-11 29t-13 34.5q-9 27 -14 38t-8 24q-4 13 -7 22t-7.5 24t-8.5 25q-4 11 -7 22q-3 13 -8 25q-5 13 -9 26q-10 29 -23 56q-12 20 -22 34q-2 3 -21.5 20.5t-24.5 20.5q-8 6 -1 15q4 6 14 1q20 -11 59 -15q17 -1 58.5 -1t56.5 1q16 2 38 5q18 2 23.5 1.5
t6.5 -6.5q1 -4 -7 -10.5t-30 -19.5q-20 -11 -24 -21t2 -31q14 -47 47 -140q18 -50 21 -54q1 -1 7 14q7 20 28 70q7 17 13 36.5t14 40.5t18 48t17 43q6 16 10 26q4 15 13 12q11 -2 23 -2q14 0 18 -1.5t4 -8.5q0 -14 12 -50q14 -46 30 -80q10 -21 38 -97q5 -14 14.5 -33
t9.5 -21q0 -5 3 3l4 7q5 13 14 36q29 68 32 85q8 29 18 57q5 12 7 25l6 22q6 16 2 21.5t-22 7.5q-9 1 -17 4q-6 3 -12 4q-10 2 -19 8q-5 4 -1.5 10t9.5 5q17 -4 47.5 -5t42.5 1q8 2 35 5q28 2 48 5q16 2 21.5 1t6.5 -6z" />
    <glyph glyph-name="x" unicode="x" horiz-adv-x="558" 
d="M506 414q-21 -14 -50 -40.5t-58 -56.5t-48 -54l-11 -14l16 -24q17 -25 30 -42t30 -42q27 -39 54 -70t48 -48t21 -22q0 -6 -9 -10q-6 -2 -11 1q-10 5 -42 10q-67 10 -176 1q-40 -3 -43 -1q-2 3 -2 8.5t2 7.5q6 5 61 20q7 2 14 5q4 3 -17 36q-9 15 -32 46t-24 31
q-8 -6 -15 -13q-22 -21 -32 -31.5t-15.5 -18.5t-12.5 -20q-5 -11 -3 -16q5 -8 12 -15q5 -6 9 -12q5 -4 11 -8q8 -5 11 -7t4 -4t1 -7t-1.5 -7.5t-5.5 -3t-10 0.5q-31 5 -105 1q-47 -3 -72 -8q-22 -5 -25 0q-13 14 32 33q31 12 50 33q13 14 29 29.5t29 31.5q10 13 22 25
q9 9 16 19q5 8 13 15l13 13l7 8l-4 7q-4 7 -9 14q-4 5 -13 21q-22 37 -36 51q-3 4 -8.5 10.5t-10.5 13.5t-9.5 13t-5.5 9q-3 7 -7 13q-6 7 -21 20.5t-20 16.5q-11 7 -20 16q-24 22 -35 28q-6 4 -6 9t4 7q3 3 11 0q24 -6 71 -10q25 -3 48 -5q46 -5 93 -2q55 2 60 -4
q4 -6 0 -11q-3 -3 -15 -5q-21 -3 -36 -17q-5 -4 -6 -9q0 -9 17 -32q17 -22 29 -36q10 -11 13 -16l3 -4l12 12q27 26 48 57q11 18 9 21q-9 11 -22 18q-2 1 -4.5 2.5l-5 3t-5.5 3l-5 2.5q-8 4 -16 9q-7 7 -1 14q5 4 41 -2q26 -5 48 0q14 3 32 6t33 7l28 6q10 1 20 4q8 3 15 4
q9 2 12 -1t3 -6q0 -8 -44 -38z" />
    <glyph glyph-name="y" unicode="y" 
d="M589 513q2 -3 -1.5 -9.5t-8.5 -11.5q-6 -5 -24.5 -23t-30.5 -28q-25 -23 -46 -49q-20 -25 -51 -110q-9 -24 -15 -38t-13 -36q-15 -44 -37 -85q-7 -16 -13 -32q-11 -31 -18 -49q-10 -29 -16 -43.5t-12 -31.5q-13 -42 -32 -91q-12 -32 -16 -42q-9 -30 -32 -51
q-6 -4 -12 -10q-13 -12 -30 -18q-10 -4 -19 -2q-17 6 -32 15q-8 6 -15 15q-19 24 -17 59q1 16 1 36q2 45 12 45q9 0 7 -15q-1 -11 -1 -32.5t2 -25.5q3 -8 17 -18t21 -10q9 0 26 15q18 15 37 68q8 25 19 48q26 59 22 65q-5 11 -8 24q-5 15 -12 30q-4 4 -6 10q-3 8 -7 16
q-6 13 -9 27q-2 13 -7 19q-7 8 -11 18q-6 11 -14 21q-13 15 -17 35q-5 23 -19 42q-14 20 -20 44q-1 6 -4 12q-7 9 -19 43q-5 14 -11 19q-14 12 -29 23q-9 6 -17 14q-17 17 -38 30q-9 6 -10 10q-1 6 4 8.5t10 -0.5q24 -13 38 -16q12 -2 19 -4q18 -5 95.5 -0.5t106.5 12.5
q11 3 22 4q14 1 17 -2q2 -3 2.5 -6.5t-2.5 -5.5q-7 -9 -36 -18q-8 -2 -16 -5q-2 -2 -4 -1h-1q0 -1 -2.5 -2.5t-6.5 -3.5t-10 -4q-10 -5 -14.5 -7t-7.5 -4t-3.5 -3t-0.5 -3q2 -8 7 -16q8 -13 11 -18.5t7 -11.5q2 -2 6.5 -10t9 -17.5l9 -19t6.5 -14.5q4 -13 11 -25
q5 -11 9 -22q2 -7 5 -12q0 -2 4 -11t8.5 -18.5t5.5 -12.5q4 -16 9 -16q2 0 16.5 30t19 42t18.5 47q17 41 29 84q4 15 3.5 18.5t-7.5 8.5q-8 5 -15 10q-5 4 -17.5 8.5t-16.5 4.5q-10 2 -11 12q0 8 14 11q9 1 19 4q11 3 24 5q29 3 43 9q12 5 24 8q11 2 22 7q7 4 14 6
q9 0 30 13q30 20 46 22q9 2 13 -7z" />
    <glyph glyph-name="y" unicode="&#xff;" 
d="M589 513q2 -3 -1.5 -9.5t-8.5 -11.5q-6 -5 -24.5 -23t-30.5 -28q-25 -23 -46 -49q-20 -25 -51 -110q-9 -24 -15 -38t-13 -36q-15 -44 -37 -85q-7 -16 -13 -32q-11 -31 -18 -49q-10 -29 -16 -43.5t-12 -31.5q-13 -42 -32 -91q-12 -32 -16 -42q-9 -30 -32 -51
q-6 -4 -12 -10q-13 -12 -30 -18q-10 -4 -19 -2q-17 6 -32 15q-8 6 -15 15q-19 24 -17 59q1 16 1 36q2 45 12 45q9 0 7 -15q-1 -11 -1 -32.5t2 -25.5q3 -8 17 -18t21 -10q9 0 26 15q18 15 37 68q8 25 19 48q26 59 22 65q-5 11 -8 24q-5 15 -12 30q-4 4 -6 10q-3 8 -7 16
q-6 13 -9 27q-2 13 -7 19q-7 8 -11 18q-6 11 -14 21q-13 15 -17 35q-5 23 -19 42q-14 20 -20 44q-1 6 -4 12q-7 9 -19 43q-5 14 -11 19q-14 12 -29 23q-9 6 -17 14q-17 17 -38 30q-9 6 -10 10q-1 6 4 8.5t10 -0.5q24 -13 38 -16q12 -2 19 -4q18 -5 95.5 -0.5t106.5 12.5
q11 3 22 4q14 1 17 -2q2 -3 2.5 -6.5t-2.5 -5.5q-7 -9 -36 -18q-8 -2 -16 -5q-2 -2 -4 -1h-1q0 -1 -2.5 -2.5t-6.5 -3.5t-10 -4q-10 -5 -14.5 -7t-7.5 -4t-3.5 -3t-0.5 -3q2 -8 7 -16q8 -13 11 -18.5t7 -11.5q2 -2 6.5 -10t9 -17.5l9 -19t6.5 -14.5q4 -13 11 -25
q5 -11 9 -22q2 -7 5 -12q0 -2 4 -11t8.5 -18.5t5.5 -12.5q4 -16 9 -16q2 0 16.5 30t19 42t18.5 47q17 41 29 84q4 15 3.5 18.5t-7.5 8.5q-8 5 -15 10q-5 4 -17.5 8.5t-16.5 4.5q-10 2 -11 12q0 8 14 11q9 1 19 4q11 3 24 5q29 3 43 9q12 5 24 8q11 2 22 7q7 4 14 6
q9 0 30 13q30 20 46 22q9 2 13 -7z" />
    <glyph glyph-name="y" unicode="&#xfd;" 
d="M589 513q2 -3 -1.5 -9.5t-8.5 -11.5q-6 -5 -24.5 -23t-30.5 -28q-25 -23 -46 -49q-20 -25 -51 -110q-9 -24 -15 -38t-13 -36q-15 -44 -37 -85q-7 -16 -13 -32q-11 -31 -18 -49q-10 -29 -16 -43.5t-12 -31.5q-13 -42 -32 -91q-12 -32 -16 -42q-9 -30 -32 -51
q-6 -4 -12 -10q-13 -12 -30 -18q-10 -4 -19 -2q-17 6 -32 15q-8 6 -15 15q-19 24 -17 59q1 16 1 36q2 45 12 45q9 0 7 -15q-1 -11 -1 -32.5t2 -25.5q3 -8 17 -18t21 -10q9 0 26 15q18 15 37 68q8 25 19 48q26 59 22 65q-5 11 -8 24q-5 15 -12 30q-4 4 -6 10q-3 8 -7 16
q-6 13 -9 27q-2 13 -7 19q-7 8 -11 18q-6 11 -14 21q-13 15 -17 35q-5 23 -19 42q-14 20 -20 44q-1 6 -4 12q-7 9 -19 43q-5 14 -11 19q-14 12 -29 23q-9 6 -17 14q-17 17 -38 30q-9 6 -10 10q-1 6 4 8.5t10 -0.5q24 -13 38 -16q12 -2 19 -4q18 -5 95.5 -0.5t106.5 12.5
q11 3 22 4q14 1 17 -2q2 -3 2.5 -6.5t-2.5 -5.5q-7 -9 -36 -18q-8 -2 -16 -5q-2 -2 -4 -1h-1q0 -1 -2.5 -2.5t-6.5 -3.5t-10 -4q-10 -5 -14.5 -7t-7.5 -4t-3.5 -3t-0.5 -3q2 -8 7 -16q8 -13 11 -18.5t7 -11.5q2 -2 6.5 -10t9 -17.5l9 -19t6.5 -14.5q4 -13 11 -25
q5 -11 9 -22q2 -7 5 -12q0 -2 4 -11t8.5 -18.5t5.5 -12.5q4 -16 9 -16q2 0 16.5 30t19 42t18.5 47q17 41 29 84q4 15 3.5 18.5t-7.5 8.5q-8 5 -15 10q-5 4 -17.5 8.5t-16.5 4.5q-10 2 -11 12q0 8 14 11q9 1 19 4q11 3 24 5q29 3 43 9q12 5 24 8q11 2 22 7q7 4 14 6
q9 0 30 13q30 20 46 22q9 2 13 -7z" />
    <glyph glyph-name="z" unicode="z" horiz-adv-x="416" 
d="M382 -13q1 -3 1 -5q-1 -7 -8 -9q-3 0 -15 13q-25 27 -60 31q-19 2 -78 -4q-23 -2 -57 -5q-51 -5 -66 -8q-29 -4 -58 3q-11 2 -14 5.5t-4 12.5q-1 15 2 30q3 9 16 33.5t23 38.5q13 19 17 26.5t24 37.5q20 29 30 47q15 24 32 49q5 7 35 58q6 9 21 34l16 25l-23 2
q-37 2 -74 -1q-5 0 -22 -2q-9 -1 -12 -2t-5.5 -3.5t-6.5 -9.5q-4 -8 -9.5 -17.5t-11.5 -20.5q-13 -26 -21 -31q-7 -2 -11 4t5 44q5 16 7 32q1 9 5 18q4 13 6 27q3 19 8 22q5 4 33 -2q16 -4 32 -5q18 -2 76.5 -2.5t70.5 0.5q40 4 75 5q17 0 19 -2t0 -14q-4 -25 -10 -40
q-10 -25 -24 -48q-8 -14 -17 -32q-16 -30 -23 -40q-10 -13 -33 -54q-7 -12 -15 -27q-10 -17 -19 -36q-6 -13 -14 -24q-6 -7 -9.5 -14.5t-8.5 -13.5q-7 -8 -20 -30.5t-13 -24.5q2 -4 11 -2q3 0 37.5 0.5t39.5 2.5q6 3 13 5q18 6 32 20q16 17 22 39q6 24 27 69q5 12 8 15t8 2
q4 -1 4.5 -5.5t-0.5 -25.5q-7 -92 -4 -132q2 -45 10 -59z" />
    <glyph glyph-name="braceleft" unicode="{" horiz-adv-x="282" 
d="M318 -155q6 -10 -1 -19q-5 -4 -11 -5q-9 -2 -18 1q-7 2 -14 5q-14 7 -29 11q-7 2 -13 6q-7 5 -15 9t-26 23q-26 27 -34 41q-3 7 -11 19q-16 27 -26 94q-1 11 -0.5 42t3.5 41q6 31 2 83q-3 38 -9 54q-5 11 -8 22q-2 11 -9 17q-12 12 -42 26q-17 8 -18 10.5t-1 13t1 14.5
q1 5 10 15q10 11 23 17q22 9 32 31q23 42 24 113q1 37 -7 62q-2 7 -3 53v46l5 20q5 21 15 40q9 19 26 36q25 26 46 37q12 6 19 10t15 5q7 1 13 4q5 3 24 3.5t22 -2.5q5 -4 2.5 -11t-8.5 -7q-5 0 -20 -4t-20 -7q-11 -8 -17 -20q-8 -16 -11 -35q-1 -8 -4 -28q-2 -17 -2 -27.5
t5 -84.5q2 -37 2 -66v-29l-8 -29q-11 -46 -29 -72q-19 -29 -37 -40q-9 -6 -17 -13t-18 -13q-7 -3 -14 -8l-5 -4l13 -5q9 -4 18 -9q19 -16 35 -34q9 -10 19 -22q19 -19 29 -59q9 -31 11 -71q3 -43 -6 -95q-10 -67 -2 -107q4 -20 7.5 -26.5t14.5 -18.5q9 -10 20 -18
q7 -3 21 -12q29 -16 36 -23z" />
    <glyph glyph-name="verticalbar" unicode="|" horiz-adv-x="211" 
d="M227 852q5 -3 4.5 -8.5t-5.5 -7.5q-6 -1 -20.5 -9t-19.5 -12q-10 -10 -17 -37q-7 -25 -9 -38t-3 -32.5t-2 -74.5q-1 -90 -4 -151.5t-5 -111.5q-1 -50 -3 -88q-3 -76 0 -128q2 -26 4 -80q4 -92 9 -122q9 -49 31 -83q16 -25 18 -30t-1 -9q-5 -7 -14 -1q-5 3 -19.5 13
t-25.5 12.5t-19.5 5t-35.5 2.5t-42 -3.5t-29 -10.5q-34 -18 -36 0q-1 6 4 9t10 4q4 1 11 3.5t13.5 5.5t8.5 5q8 7 16 29q3 12 5 25q3 16 6 35q10 49 11 126q2 62 2 64q5 10 8 203q0 11 -3 22q-4 13 -1 142q2 84 0 93q-3 12 -4 26q-1 13 -5 26q-3 12 -4 24q-1 14 -6 26
q-4 10 -6 20q-5 20 -13 39q-2 4 -8 19q-3 10 -8 19q-4 6 -11 20.5t-7 17.5t5 7.5t8 4.5q4 -1 7 -3q8 -7 54 -8q25 -1 43 -3.5t49 -2.5t43 4t16 2z" />
    <glyph glyph-name="braceright" unicode="}" horiz-adv-x="282" 
d="M242 340.5q1 -2.5 1 -13t-1 -14.5q-1 -5 -10 -15q-10 -11 -23 -17q-21 -9 -32 -31q-22 -42 -24 -113q-1 -37 7 -62q2 -6 3 -53l1 -46l-6 -20q-5 -21 -14 -40q-10 -19 -27 -36q-25 -26 -45 -36q-12 -7 -20 -11q-7 -4 -15 -5q-6 -1 -12 -4q-4 -2 -21.5 -3.5t-20.5 0.5
q-8 2 -8 9q0 9 9 11q5 0 20.5 4t19.5 7q12 8 18 20q8 17 10 35q1 8 4 28q3 17 2.5 27.5t-4.5 85.5q-2 36 -2 65v29l7 29q12 46 29 72q19 29 38 41q8 5 16 12q9 7 18 13q7 3 14 8l5 4l-13 5q-9 4 -18 10q-19 15 -34 33q-9 10 -20 22q-18 19 -29 59q-8 31 -11 72q-2 42 6 94
q10 68 2 107q-4 20 -7 27t-15 18q-9 10 -19 18q-6 3 -22 12q-29 16 -35 23q-7 10 1 19q9 9 28 4q8 -2 15 -5q14 -7 28 -11q8 -2 14 -6q7 -5 14.5 -9t26.5 -23q26 -27 33 -41q4 -7 11 -19q16 -27 26 -94q2 -11 1 -42t-3 -41q-7 -31 -3 -83q3 -38 10 -54q4 -11 7 -22t9 -17
q13 -12 43 -26q16 -8 17 -10.5z" />
    <glyph glyph-name="asciitilde" unicode="~" horiz-adv-x="445" 
d="M392 284q1 -17 24 -14q-16 -13 -32.5 -21.5t-32.5 -14t-23 -9.5q-4 3 -9 3t-11.5 -0.5t-9.5 -0.5q-6 0 -18.5 3.5t-19.5 2.5q-14 3 -30.5 9.5t-23.5 8.5q-23 12 -33 13l-46 -6q-24 -7 -32 -14q-24 -20 -33 -20q2 8 -0.5 13.5t-6.5 8.5t-4 4q1 6 -0.5 10t-5 6.5t-6.5 3.5
l-6 2h-2q4 11 33 22q8 2 18 8t13 7q36 16 63 16t42 -11q2 -1 14 -3.5t20 -6.5q3 -1 7 -3.5t7 -4.5t7.5 -3.5t8.5 -2.5q5 0 17 -2.5t21 -3.5q23 -1 28 3q4 3 14 7t16 8q24 15 24 4q-1 -3 -3 -7t4 -7.5t7 -7.5z" />
    <glyph glyph-name="nonbreakingspace" unicode="&#xa0;" horiz-adv-x="292" 
 />
    <glyph glyph-name="exclamdown" unicode="&#xa1;" horiz-adv-x="281" 
d="M137 632q-20 2 -37 21q-14 14 -17 29t1 41q2 10 8 27t11 24q3 5 16 16.5t20 14.5q3 2 14.5 2.5t16.5 -0.5t17 -8t15 -10q4 -4 11 -17t8 -19q3 -10 2.5 -29t-2.5 -30q-6 -21 -18 -39q-3 -4 -5 -9q0 -6 -20 -12q-18 -5 -41 -2zM228 71q7 -13 1 -20q-3 -4 -21 -6
q-23 -1 -45 -9q-38 -13 -73 -32q-5 -3 -28.5 -22t-34.5 -30q-9 -9 -19 -14t-14 -3q-6 2 -5 10q4 6 10 11q23 20 53 66q34 50 51 131q6 32 10 99q1 33 4.5 73t5.5 66.5t3 37.5q4 28 6 89q1 39 4 46q5 8 20 11q5 1 12 4q17 5 23 -1q3 -5 4 -10q4 -14 -2 -83q-3 -35 2 -80
q4 -36 6 -97q3 -101 6 -119q1 -9 1 -19q1 -11 3 -22q4 -25 7 -49q1 -6 3 -11q2 -3 2 -6q2 -6 5 -11z" />
    <glyph glyph-name="cent" unicode="&#xa2;" 
d="M502 644q4 -5 -3 -17q-20 -32 -27 -68q-6 -26 -14 -56q-8 -32 -17 -83q-3 -19 -5 -23.5t-8 -4.5q-13 0 -5 38q8 37 5 63q-3 37 -22 58q-8 8 -11.5 13t-4.5 5l-3 -8t-5.5 -18t-3.5 -16q-4 -26 -23 -97q-7 -25 -11.5 -47t-12.5 -54.5t-14 -62t-11 -49.5q-9 -44 -7 -46h2.5
t6.5 1t8 1.5t8 1.5t5 1q3 1 11 7t17 13t13 12q6 7 11 15q7 11 15 21q11 15 12.5 18t10.5 18q17 25 18 29q1 3 5 6.5t6 3.5q3 0 5.5 -3.5t2.5 -7.5q-2 -12 -7 -22q-8 -18 -9 -21.5t-7 -20.5q-24 -58 -32 -136q-2 -23 -3 -25q-2 -7 -12 -3q-4 3 -5 8q-2 8 -6 16q-4 7 -6 9
t-10 5q-6 3 -11 7q-4 2 -8 2q-6 0 -11 2q-7 2 -15 2q-7 -1 -14 1q-4 1 -4 -2q-2 -10 -5 -20q-4 -17 -8 -38.5t-8 -36.5l-6 -32q-1 -15 -3.5 -19t-10.5 -5q-6 -2 -11 -4q-6 -3 -13 -4q-8 -1 -12 -2q-8 -1 -17 0q-23 2 -29 12q-7 12 6 50q8 23 9 29t6 20q4 14 7 29q2 15 4 26
q1 5 2 11q-12 6 -24 10q-21 7 -37 22q-20 18 -44 30q-10 7 -18 16q-12 13 -20 30q-12 26 -18 54q-2 11 -3 39t1 38t11 58q10 53 16 69q11 24 22.5 42.5t26 33.5t34.5 28q42 30 74 35q10 2 21 4q11 3 23 1q11 -2 28 -3q18 -2 23.5 -2.5t5.5 0t10.5 36.5t9.5 39.5t3 8.5
q5 6 12 5q7 1 27 3q30 3 34 -2q5 -6 1 -24l-5 -25q-4 -19 -8.5 -32.5t-5.5 -21.5q-2 -7 -4 -13q-2 -3 -2 -7q0 -1 11 -5t18 -5l9 -1l18 13q18 12 26 19q13 11 19 5zM309 581l1 6h-10q-16 0 -35.5 -8.5t-32.5 -20.5q-20 -19 -29.5 -43.5t-20.5 -85.5q-7 -35 -9 -71
q-2 -35 -0.5 -47t11.5 -40q17 -47 28 -62l8 -11l3 14q4 13 9 28q11 35 16 71q7 47 21 93q5 22 8.5 37.5t6 27t4.5 22.5q2 13 6 25q10 32 15 65z" />
    <glyph glyph-name="sterling" unicode="&#xa3;" horiz-adv-x="554" 
d="M508 672l5 -8v-13q0 -12 -6 -33q-7 -26 -11.5 -36.5t-14.5 -21.5q-12 -15 -29 -24q-12 -7 -31.5 -10.5t-27.5 -1.5q-7 3 -12 7q-8 6 -12 14t-7 16q-1 5 -4 10q-5 8 -5 26l-1 11l10 12q13 16 29 29q3 2 6 1t4 -4q1 -4 -11 -15q-9 -9 -17 -18q-7 -9 -8 -15q-1 -11 12 -19
q7 -5 10 -7l3 -2l6 3q7 3 11.5 5.5t13.5 6.5q14 7 16 15q1 4 2 24.5t0 23.5q-2 3 -11 12.5t-18.5 18.5t-12.5 10q-12 6 -26 6q-9 0 -18 -5q-18 -10 -31 -28q-6 -10 -7 -22q-1 -8 -4 -16q-10 -31 -18 -69l-7 -28q-6 -15 -19 -67q-7 -27 -11 -55q-3 -23 -11 -67q-2 -10 -3 -20
q2 -1 44 2q28 2 36 4q22 7 44 17q12 7 16 3q8 -6 -10 -20q-9 -7 -17 -15q-17 -20 -29 -44q-7 -16 -10 -18q-2 0 -5 1t-3 3q0 1 -1 4q-1 15 -5 16q-8 4 -48 4l-21 1l-4 -12q-14 -54 -18 -65q-4 -14 -7 -27q0 -1 14 -1q11 0 22 -3q44 -13 71 -51q7 -9 15 -17q7 -5 13 -12
q16 -19 44 -22q12 -1 15 0.5t9 9.5q12 21 22 44q4 7 3 15q-2 15 -17 31q-18 19 -30 13q-13 -8 -22 -21q-1 -3 -9 -15.5t-12 -18.5q-6 -10 -11.5 -7t-1.5 13l15 45q5 11 8 19q6 14 14 19q10 6 48 3q29 -2 35 -6q3 -2 11.5 -14.5t11.5 -20.5q9 -19 9 -34t-7 -37
q-9 -28 -20 -41q-16 -20 -29 -34q-9 -10 -22 -16q-9 -5 -18 -8q-14 -4 -21 -5h-13q-18 1 -35 8q-38 13 -55 34q-25 29 -54 52q-8 5 -13 9q-3 4 -9 4q-3 1 -5 0q-4 -7 -7 -15q-7 -15 -19 -38q-3 -5 -9 -12.5t-11.5 -13.5t-8.5 -7q-4 -3 -9 -6q-3 -3 -7.5 -4.5t-8.5 -4.5
q-6 -3 -13 -3q-23 -2 -30 10q-3 5 -3 15q0 31 18 56q17 23 41 38q4 3 5 5t5 20q3 10 4 20q1 9 3 19q2 7 3 14q0 7 2 15q3 11 5 21q3 11 7 23l5 13h-3q-8 -1 -16 -3l-22 -4q-31 -6 -61 -19q-4 -2 -8 -3q-3 0 -4.5 2.5t-1.5 5.5q5 8 11 15q7 7 12 15q8 16 7 22q-3 10 -9 18
q-2 2 0.5 7.5t5.5 5.5q4 -1 7 -4q11 -8 35 -10q17 0 37.5 -0.5t20.5 0.5t3 18q6 33 9 64q1 12 4 23q3 10 6 24q4 17 10 33t9 32q3 13 9 25q5 10 8 21q2 7 8 27q17 57 36 84q7 10 19 24t18 18q5 3 14 10q8 6 17 10q9 3 16 7q15 10 34 10q9 0 18 -3q6 -2 13 -4q17 -4 35 -19
q10 -9 28 -20q7 -4 14 -10q3 -5 7 -9q6 -6 10 -13z" />
    <glyph glyph-name="currency" unicode="&#xa4;" horiz-adv-x="554" 
d="M449 575q-19 -10 -19 -13q2 -3 5 -6q6 -7 8 -16q2 -10 4 -14q2 -8 3 -16q1 -10 4 -20q2 -8 4 -17l3 -21q8 -52 6 -104q-1 -40 -11 -93q-7 -41 -15 -57q-3 -7 -6 -15q-2 -13 -12 -21q-3 -2 -5 -5q0 -2 11 -10t17 -11q6 -4 17 -3q25 2 29 -2q2 -4 1.5 -6.5t-7.5 -11.5
q-12 -15 -28 -26q-5 -4 -8 -9q-9 -14 -32 -43q-7 -9 -13 -19q-12 -24 -22 -18q-4 3 -3 8q1 9 5 16q16 37 3 69q-2 7 -6 13q-1 2 -5 -1q-2 -3 -6 -3q-8 -1 -20 -12q-10 -11 -25 -11q-10 -1 -19 -5q-26 -12 -63 -3q-16 3 -19 4q-12 2 -27.5 10.5t-20.5 15.5q-3 3 -4 0
q-2 -3 -6.5 -17.5t-10 -30.5t-6.5 -22q-3 -11 -4 -22q0 -7 -3 -13q-3 -3 -7 -2.5t-6 3.5q-2 2 -3 5q0 6 -13 27q-5 7 -9 14q-8 19 -40 33q-25 10 -18 20q2 3 21 4q17 0 32 5q27 10 38 26l5 7l-6 7q-5 7 -9 14.5t-9 14.5q-6 9 -9 20q-4 12 -8 23q-5 12 -11 41q-7 27 -9 55
q-2 52 4 105q8 52 15 70q13 33 35 71q6 11 8 14t-8 17q-6 9 -8.5 11.5t-8.5 4.5q-32 13 -52 0q-5 -4 -12 -5q-9 0 -9 9q0 4 20 17q14 9 28 16q28 11 54 40q14 14 19 22q15 18 19 18q8 0 9 -8q-3 -11 -8 -21q-10 -25 -10 -58q0 -25 3 -25q5 2 8 5l8 4q2 1 4 3q8 5 17 8
q8 2 14 6q6 2 12 1q13 1 26 3q14 3 28 0q12 -2 21 -3q7 -1 14 -3q3 -1 7 -1q7 -2 12 -7q4 -4 9 -7q6 -3 12 -7q7 -4 14 -6q4 -2 8 -5q5 -4 10 -7l4 -2l4 9q4 10 8 21q2 8 5 15q3 11 4 22q3 18 4 20q1 7 11 4q2 -1 7.5 -11t8.5 -19q2 -5 18 -21q32 -33 32 -44q0 -5 -5 -6
t-23 -1l-23 1zM364 428q1 14 -1 28q-2 8 -3 31q-1 18 -6 36q-3 7 -5 16q0 3 -2 5q-3 6 -5 12q-2 8 -6 16q-2 5 -7.5 10t-7.5 5q-5 1 -8 3q-9 4 -21 7t-15 1q-5 -1 -10 -1q-5 2 -10 -3q-4 -3 -9 -3q-6 0 -17 -11q-6 -6 -11 -13q-2 -8 -6 -15q-6 -10 -8 -21q-2 -8 -6 -22
q-9 -30 -11 -110q-2 -53 -0.5 -67t3.5 -47q3 -63 15 -107q3 -11 7.5 -21.5t10 -18t10.5 -9.5q6 -3 11 -7q4 -4 9 -5q5 0 10 -2q12 -4 25 1q14 5 23 15l12 10q6 4 8.5 10.5t6.5 11.5q5 6 6.5 13t3.5 14q2 5 4.5 27t2.5 32q0 9 1 23q5 41 6 156z" />
    <glyph glyph-name="yen" unicode="&#xa5;" horiz-adv-x="826" 
d="M775 730q3 -6 -4 -12t-29 -15q-33 -14 -63 -32q-13 -9 -40 -46q-14 -19 -44 -74q-13 -24 -20 -35q-7 -12 -27 -51q-21 -40 -26 -48t-8 -17l-8 -16q-3 -6 -6 -13l-2 -6h11q34 0 134 13q29 4 35.5 3.5t8.5 -6.5q3 -9 -11 -16q-6 -3 -25 -12q-21 -11 -30 -17.5t-29 -27.5
q-4 -5 -11 -4q-12 2 -77 0l-36 -1v-6q-2 -36 -6.5 -47.5t-2.5 -19.5q1 -12 1 -24q2 -16 4 -16q3 1 25 2q69 2 101 9q10 2 25 6t26.5 8.5t14.5 6.5q3 3 12 7.5t12 4.5q6 0 7.5 -6t-3.5 -10q-5 -5 -12 -8q-9 -5 -16 -18.5t-8 -22.5q-1 -7 0 -9t5 -6q10 -9 4 -16q-4 -4 -9 -2
q-23 4 -48 7q-16 1 -23.5 3t-29 3t-34.5 3q-6 1 -16.5 1h-19h-8.5q0 -9 5.5 -29t9.5 -26q3 -5 5 -10q7 -21 22 -37q10 -9 37 -23q34 -16 39 -26q3 -6 -1.5 -11t-17.5 -1q-14 3 -28 5q-34 3 -68 11q-8 2 -25 4q-19 3 -36 8l-19 6h-31q-32 -1 -63 -7q-53 -11 -63 -22
q-3 -3 -8 -3.5t-8 3.5q-4 4 -2 7t14 12q18 14 32 16q10 2 19 6q8 4 16 6q13 3 22 13q11 15 20.5 40t12.5 45l1 7l-10 -1q-50 -6 -61 -6q-19 -1 -38 -5l-29 -5l-4 4q-8 10 -9 23q-1 11 -21 37q-4 5 -29 16q-3 2 -4 6t2 7q5 8 19 0q11 -6 45 -15q28 -8 58 -10q37 -4 77 -8h6
l-1 26q-1 35 -7 69q-2 6 -1 13l1 5l-45 1q-36 1 -73 -1q-28 -3 -36.5 -1t-8.5 9t10 14q9 5 4 18q-2 4 -15.5 18.5t-18.5 17.5q-4 3 -7 7q-2 3 -0.5 6.5t5.5 4.5q8 2 37 -8q33 -11 68 -18q10 -2 33.5 -3t23.5 2q-3 10 -9 19q-9 17 -16 32q-8 17 -18 32t-18 31q-8 15 -12 23
q-5 9 -9 18q-4 10 -9 20q-6 11 -10 22q-4 10 -9 20q-5 8 -19 35t-25 40q-7 7 -10.5 10t-8.5 6t-19 10q-26 13 -41 15q-10 1 -19 5q-4 3 -12 7q-13 7 -11 15q1 4 4.5 5.5t6.5 -1.5q4 -3 8 -4l10 -2.5t34 -4.5q72 -6 181 1q60 5 82 13q18 6 28.5 8.5t20 6t12.5 1.5
q5 -2 5 -7.5t-4 -7.5q-2 -1 -23 -11q-34 -18 -44 -24t-23 -20q-9 -9 -18 -19q-5 -9 5 -42q6 -20 11 -35q4 -15 6 -21q3 -9 8 -17q6 -10 11 -21q7 -19 39 -73l12 -24q4 -9 12 -25.5t10 -21.5q1 -4 2 -4q5 7 8 14q7 15 12 23q15 25 43 79.5t39 78.5q14 34 14 58v18l-6 6
q-5 5 -16 10.5t-16 5.5q-6 1 -11 3q-8 2 -20 4q-8 2 -11.5 3.5t-5 3.5t-1.5 6q0 6 4 8q5 4 23 -3q10 -3 39 -3q80 0 165 27q16 5 25 7q10 2 20 6q19 7 24 1z" />
    <glyph glyph-name="section" unicode="&#xa7;" horiz-adv-x="487" 
d="M374 202q-8 -5 -14 -11l-8 -8l7 -7q14 -14 31.5 -53.5t26.5 -75.5q1 -5 1 -29t-1 -34q-4 -23 -15.5 -50t-21.5 -34q-7 -6 -13 -13t-14 -12t-15 -11q-5 -6 -11 -10q-3 -1 -35 -3q-38 -2 -39 0l-16 2q-17 1 -33 6q-14 5 -28 7q-15 2 -44 20q-9 6 -19 10q-12 5 -24 11
q-16 9 -26 9q-23 -1 -38 -18q-15 -15 -21 2q-2 6 -1.5 7.5t4.5 6.5q14 15 35 70q28 72 34 93q8 25 34 87q8 20 15 20q6 0 9 -7q2 -7 -6 -39q-5 -18 -6 -48.5t2 -47.5q8 -43 33 -78q9 -13 26.5 -31t23.5 -21q6 -2 55 -7q15 -1 27 4q12 3 21 11q5 5 11 8q4 3 10 13.5t8 18.5
q3 28 0 56q-2 18 -19 45q-24 37 -38 44q-5 3 -9 6q-4 4 -8 5q-8 5 -15 10q-20 18 -31 22q-7 4 -13 9q-7 6 -15 9q-7 3 -13.5 8t-13.5 8q-6 3 -12 8q-4 4 -10 7q-23 13 -41 33q-6 7 -16 22.5t-10 17.5q0 1 -6 16q-5 12 -8 26q-2 10 -5 20q-3 9 -2.5 39.5t2.5 42.5q7 24 18 47
q5 11 24.5 33.5t30.5 31.5l14 11l-8 6q-18 18 -31 40l-8 14q0 1 -6 15q-5 13 -8 26q-2 11 -5 21q-3 8 -2 40q0 39 10 66q10 28 35 56q16 21 37 37q12 10 26 18q20 11 50 11q16 0 38 -7t35 -16q6 -5 13 -9q10 -9 19 -20q28 -34 30.5 -34t30.5 41q14 21 17 22q8 1 11 -7
q1 -3 -9 -28q-8 -22 -11.5 -34t-6.5 -27.5t-8 -51.5q-3 -27 -7 -57q-1 -17 -5 -33q-1 -4 -7 -4q-4 -1 -6 1t-3.5 6t-4.5 15q-21 87 -24 93q-4 6 -7 12q-6 9 -13 17q-6 7 -11 14q-2 3 -7.5 8t-12.5 9.5t-13 6.5q-15 6 -35 6t-31.5 -6t-22 -19.5t-13.5 -27.5q-6 -25 11 -60
q19 -38 58 -68q34 -27 49 -42q11 -11 23 -19q16 -10 57 -51q27 -28 47 -73q15 -34 24 -70q1 -5 1 -29.5t-1 -33.5q-4 -23 -15.5 -50t-21.5 -34q-7 -6 -13 -13t-14 -12zM342 255q3 2 7 7t7 12t4 12q3 28 0 56q-2 19 -19 45q-24 38 -38 45q-5 2 -9 6q-4 3 -8 5q-8 4 -15 10
q-21 18 -30 22q-5 1 -9 4q-10 7 -33 2q-16 -3 -27 -12q-18 -14 -24 -39q-6 -24 11 -60q19 -38 58 -68q34 -27 49 -42q11 -11 25 -20q5 -3 10 -7q1 -2 12.5 3t17.5 10q5 5 11 9z" />
    <glyph glyph-name="copyright" unicode="&#xa9;" horiz-adv-x="644" 
d="M585 373q9 -30 10.5 -43.5t0.5 -60.5q-1 -85 -14 -148q-9 -48 -22 -70q-18 -34 -43 -70q-21 -27 -48 -49q-33 -25 -69 -44q-18 -8 -36 -15q-23 -7 -37 -8q-13 0 -25 2q-18 4 -35 11q-25 9 -56 19q-32 10 -48 19t-33 27q-18 18 -38 58q-47 94 -47 186q0 57 8.5 100.5
t29.5 96.5q28 69 42 93q22 40 55.5 69.5t68.5 39.5q9 3 19 4q6 0 14 5l8 6l23 1q23 2 34.5 -0.5t23.5 -3.5q10 -2 20 -6q9 -4 18 -6q13 -5 24 -11t23 -11q7 -3 11 -5.5t10 -7.5t19 -18q22 -21 31 -36.5t17 -28.5q24 -35 41 -95zM523 237q6 55 4 87q-3 35 -12 69
q-13 37 -33 72q-17 30 -42 54q-24 25 -42 25q-8 0 -17 2q-11 2 -34 3.5t-27 0.5q-5 -2 -10 -2q-7 0 -14 -3t-18 -7q-28 -13 -48 -35q-29 -31 -38 -46.5t-21 -49.5q-9 -26 -14 -39q-11 -29 -16 -60q-2 -12 -4 -22q-4 -21 -5 -60.5t3 -67.5q6 -39 18 -77q4 -10 19.5 -39
t24.5 -40q20 -28 50 -45q20 -11 44 -18q28 -8 52 -2q36 8 55 32q8 9 17 15t15 14q6 9 14 17q8 10 14 21q7 12 10 17q6 12 17.5 38.5t14.5 36.5q16 54 23 109zM419 423q13 13 19 7q4 -4 -1 -42q-4 -32 -7 -80q-2 -36 -10 -36q-6 0 -8 5t-5 22q-7 40 -14 54q-5 8 -11 16
q-9 10 -22 16q-26 12 -38 4q-20 -14 -38 -60q-6 -13 -13 -48t-10 -58q-2 -26 1 -46q3 -16 5.5 -24.5t6.5 -15t12 -15.5q23 -27 33 -27q5 1 9 4q31 21 61 75q23 42 27 44q8 2 11 -5q1 -5 -5 -24q-8 -24 -20 -91q-6 -35 -9 -42.5t-12 -12.5q-15 -8 -32 -5q-6 2 -12 5
q-8 4 -17 6q-38 10 -40 13q-5 4 -10 7q-14 7 -33 33q-13 19 -19 45q-4 19 -5 21t-2.5 32.5t-1.5 47.5q1 25 8 62q9 43 20 68q12 28 28 44q13 11 33 19q12 5 24 4q31 0 64 -25q11 -9 17 -8t16 11z" />
    <glyph glyph-name="softhyphen" unicode="&#xad;" horiz-adv-x="0" 
 />
    <glyph glyph-name="registered" unicode="&#xae;" horiz-adv-x="645" 
d="M586 402q7 -23 8.5 -31.5t2.5 -27t0 -45.5q-1 -86 -14 -149q-9 -47 -22 -70q-18 -34 -43 -69q-21 -28 -48 -50q-33 -24 -69 -44q-18 -8 -36 -14q-23 -8 -37 -8q-13 -1 -25 1q-18 5 -35 11q-25 9 -56 19q-32 11 -48 20t-33 27q-18 18 -38 57q-47 95 -47 187
q0 57 8.5 100.5t29.5 95.5q28 69 42 94q22 40 55.5 69t68.5 40q9 3 19 3q6 0 14 6l8 5l23 2q24 1 35 -1t23 -4q10 -1 20 -5q9 -4 18 -7q13 -4 24 -11q11 -6 23 -11q9 -4 15 -8.5t25 -22.5q22 -20 31 -35.5t17 -28.5q24 -36 41 -95zM524 266q6 55 4 86q-3 35 -12 69
q-13 38 -33 72q-17 30 -42 54q-24 25 -42 25q-8 0 -17 2q-11 3 -34 4.5t-27 -0.5q-5 -1 -10 -1q-7 -1 -14 -4q-8 -3 -18 -7q-28 -12 -48 -34q-21 -23 -30 -35t-15 -24.5t-14 -36.5q-9 -27 -14 -40q-11 -29 -16 -59q-2 -13 -4 -23q-4 -21 -5 -60.5t3 -66.5q6 -40 18 -78
q4 -10 19.5 -38.5t24.5 -40.5q20 -28 50 -44q20 -12 44 -19q28 -8 52 -2q36 9 55 32q8 9 17 16q9 5 15 14t14 17q8 9 14 21q7 12 10 17q4 7 11 22.5t13 30.5t8 22q16 53 23 109zM428 123q11 -3 11 -10q0 -9 -16 -8q-9 1 -17 2q-8 2 -43 9q-8 2 -15 5q-14 5 -28 7
q-3 0 -6.5 3.5t-3.5 6.5t4 7t8 5q11 4 0 68q-3 17 -8 21q-3 2 -6 1t-4 -3q-1 -3 0 -50l1 -47l4 -9q7 -15 31 -28q13 -6 15 -8t2 -6q1 -7 -7 -8q-6 -1 -30 0q-32 1 -52.5 -3t-37.5 -9q-28 -8 -33 -3q-2 3 -1 8.5t5 5.5q2 0 9 4t15 9t12 8q18 15 23 38q4 22 8 118q3 81 -2 111
q-4 28 -13 37q-10 10 -27 10q-14 0 -14 8q0 11 26 8q15 -2 25 -10q7 -7 15 -8t44 0l52.5 2.5t18.5 -4.5q25 -17 28 -48q3 -27 -4 -46q-13 -38 -47 -61q-5 -4 -12 -10q-4 -3 -9 -5q-2 -1 -3 -2q-5 -3 25 -62q12 -24 18.5 -32t20.5 -15q9 -4 18 -7zM316 285.5q2 -3.5 15 -3
t17 4.5q5 3 13 15t10 19q2 9 2.5 20.5t-1.5 15.5q-6 10 -48 9l-11 -1v-38q1 -38 3 -41.5z" />
    <glyph glyph-name="plusminus" unicode="&#xb1;" horiz-adv-x="430" 
d="M162 422q-58 -1 -89 -7q-23 -5 -26.5 -5.5t-4.5 1.5q-2 4 6 15q3 5 5 10q3 6 3 17q1 8 -1 16q-4 15 -12 30q-2 3 -3 6q1 5 5 6q5 -2 9 -5q6 -4 13 -6q5 -2 17 -6q27 -8 76 -8h20l-1 17q-1 19 0 69q0 45 -6 53q-4 6 -9 10q-8 6 -8 10q0 3 2 3.5t12 0.5q22 -2 43 6
q13 5 15 6q20 12 38 26.5t22 9.5q4 -3 -3 -9q-23 -22 -34 -52q-7 -23 -8 -55q0 -28 -1 -38.5t-2 -26.5t-2 -22v-6h15q14 1 24.5 2.5t29.5 2.5q17 0 34 3q28 5 31 2q6 -4 -1 -13q-9 -11 -14 -23q-3 -13 -3 -27q2 -11 6 -16q3 -4 2 -6.5t-3 -3.5t-4 0q-8 4 -37 7q-8 0 -25 3
q-11 1 -34.5 2.5t-24.5 0.5l1 -37q1 -36 1 -47q0 -12 2 -23q1 -11 6 -21q9 -18 14 -18t5 -5q0 -4 -3 -5t-14 -2q-14 -1 -24.5 -3t-19.5 -3q-19 -2 -38 -9q-11 -3 -12 -1q-2 4 5 11q5 4 8 10q2 3 5 7q6 7 9 25q1 6 1 64l-1 58zM389.5 196q1.5 -4 0 -6.5t-9.5 -7.5
q-10 -7 -14.5 -11.5t-7 -10.5t-4.5 -16q-2 -13 0 -20q2 -4 2 -7q-1 -4 -4.5 -4.5t-5.5 2.5q-3 4 -43 20q-18 7 -54 10q-57 4 -91 -4q-24 -7 -46 -17q-17 -8 -30 -22q-11 -11 -15 -8q-3 5 1 9q8 16 14 32q4 9 4 18q-1 19 -9 36q-4 6 -2 11q4 6 11 1q4 -2 23 -7t26 -7
q11 -3 44.5 -3.5t53.5 1.5q17 2 30 3q33 1 93 9q25 3 28.5 3t5 -4z" />
    <glyph glyph-name="acute" unicode="&#xb4;" horiz-adv-x="192" 
d="M190 775q6 -1 6 -7t-12 -14q-6 -4 -11 -9q-6 -6 -14 -13q-13 -14 -21 -32q-3 -7 -7 -14q-11 -19 -19 -39q-5 -12 -7 -14q-4 -9 -7 -19q-5 -13 -6 -27q-2 -17 -6.5 -24t-18.5 -12q-10 -4 -13 -8q-7 -9 -9 -9q-2 1 -4 1q-2 1 -3 4q-1 4 9 58q4 25 5 36q1 10 1 42.5t-1 36.5
q-5 11 -12 21q-1 3 0 2h3q9 -2 29 -0.5t31 4.5q20 5 37 19q8 6 19 9q15 6 31 8z" />
    <glyph glyph-name="paragraph" unicode="&#xb6;" horiz-adv-x="908" 
d="M854 735q2 -7 3 -14q0 -7 -5.5 -9t-8.5 3q-1 1 -10 15q-8 12 -16 22q-14 18 -33 30q-17 9 -59 18q-13 2 -51 4t-39 0q-2 -10 -2 -21q-3 -61 -5 -83q-7 -62 -11 -134q-1 -29 -3 -46.5t-3 -31.5t-3 -31q-10 -123 -4 -294q2 -83 3 -100q1 -55 10 -85q6 -21 14 -31t25 -17
q11 -5 23 -7q11 -1 15 -7t-3 -12q-3 -3 -9.5 -3t-49.5 2q-15 1 -54 -0.5t-55 -5.5t-23 -5q-15 -3 -28 -11q-5 -3 -11 -5q-3 -1 -5 0t-3.5 3.5t-1.5 5.5q0 7 15 14q21 12 39 28q10 10 19 36q5 12 7.5 18.5t3.5 167.5q1 224 7 275q2 23 2 62t1 58q4 50 6 182l1 75l-47 -4
q-20 -2 -80 -9q-20 -2 -41 -3q-12 -1 -23 -3q-3 0 -3 -31q0 -301 -3 -330q-1 -9 -2.5 -123t-0.5 -168q0 -31 3 -64t4 -47t7 -51.5t12.5 -51.5t17.5 -26q24 -25 24 -32q0 -13 -10 -13q-7 0 -7 9q0 3 -1 4t-6 2q-26 5 -74 4q-38 -1 -53 -2q-43 -5 -70 -15q-13 -5 -16.5 -1
t-1.5 8t13 14l15 12l14 29q21 45 26 77q1 13 6 37q5 27 9 114q1 34 2 41t2.5 51.5t4.5 67t4.5 73t3 82.5t1 32.5t-23.5 4.5q-99 16 -157 56q-10 7 -29 26.5t-25 28.5q-13 24 -22 50q-2 8 -2 36t3 39q9 39 35 68q9 10 28.5 28t26.5 23q31 21 85 34q34 9 96 12q29 1 117.5 0.5
t131.5 -2.5q111 -5 140 -1q19 3 61 3q53 -1 74 7q14 5 16 -4q1 -4 -4 -26q-6 -22 -5.5 -31.5t7.5 -29.5q7 -22 10 -35t5 -20q1 -6 4 -16zM284 572q3 29 -3 86q-1 18 -1.5 64t-0.5 47q-3 2 -35 -6t-51 -16q-27 -11 -37 -22q-4 -4 -9.5 -18t-6.5 -22q-1 -20 8 -39q4 -7 7 -15
q2 -7 10 -17t18.5 -18.5t18.5 -11.5q12 -5 23 -7q15 -4 29 -10q15 -7 24 -6h2.5t1.5 1.5t1 3t1 6.5z" />
    <glyph glyph-name="questiondown" unicode="&#xbf;" horiz-adv-x="430" 
d="M249 617q-13 0 -28 24q-22 34 -2 82q9 24 21.5 35t31.5 12q12 0 19 -2.5t15 -12.5q14 -15 19 -27.5t5 -33.5q0 -45 -23 -70q-15 -14 -31 -14q-9 -1 -16 3q-5 3 -11 4zM385 177q5 -11 5 -27q-1 -15 -7 -44.5t-11 -42.5q-8 -23 -14.5 -36.5t-13.5 -20.5q-12 -11 -40 -25.5
t-43 -16.5q-13 -2 -25 -6q-16 -5 -34 -7q-19 -1 -33 -2q-18 -3 -36 0q-21 2 -37 17q-16 14 -29 31q-11 16 -21 49q-9 26 -8 48q3 59 9 86q6 20 8 33q5 27 26 67q23 45 62 88q28 31 39 41q25 27 40 69q4 12 7 18q10 23 4 88q-1 10 3 13t8 0q7 -6 13 -14q12 -18 23 -22
q7 -2 7.5 -10.5t-4.5 -40.5q-6 -46 -14 -68.5t-29 -53.5q-21 -32 -46 -61q-16 -18 -20 -24q-17 -28 -29 -60l-6 -16v-27q0 -26 6 -56q8 -46 19 -67q14 -32 49 -37q12 -2 31 3q7 2 17 4q26 6 39 32q4 8 14 37t10 33q-1 5 -3 10q-3 5 -18.5 19t-18.5 15q-8 2 -31 -22
q-10 -10 -17 -27q-13 -31 -17 -35q-4 -2 -7 -1t-5 5q-2 3 1 10q3 5 4 11q2 10 5 20q5 16 10 38q6 24 9.5 31.5t11.5 14.5q12 12 28 18q27 9 41 2q15 -8 36 -33t32 -48z" />
    <glyph glyph-name="multiply" unicode="&#xd7;" horiz-adv-x="417" 
d="M353 480q-19 -14 -49.5 -43t-49.5 -53l-7 -9l10 -16q11 -15 19 -26q9 -12 19 -27q37 -53 65 -75q14 -11 14 -15t-6 -6q-3 -1 -7 1q-13 4 -26 6q-44 7 -113 1q-26 -2 -27 -1q-4 5 0 11q3 3 39 12q4 1 8 3q3 2 -10 23q-6 10 -20.5 30t-15.5 20q-5 -4 -10 -9
q-20 -19 -26 -26.5t-12 -18.5q-3 -7 -2 -10l8 -10q3 -3 6 -7q3 -3 6 -5q8 -4 9.5 -6t1.5 -5q0 -5 -2.5 -6.5t-8.5 -0.5q-20 3 -67 0q-23 0 -46 -5q-14 -2 -16 0q-9 10 20 21q20 8 32 21q9 9 19 19.5t18 20.5l14 16q6 5 10 11t9 11l8 8l5 4l-3 5q-3 5 -6 9q-2 3 -8 13
q-10 18 -23 33q-12 14 -21 29q-3 5 -5 9q-12 13 -26 23q-7 5 -13 10q-11 10 -23 19q-3 2 -3 5t2 5q3 1 8 0q22 -5 44 -7q16 -1 31 -3q30 -3 60 -1q35 1 38 -3q3 -3 0 -7q-2 -2 -10 -3q-13 -2 -23 -11q-3 -2 -4 -6q0 -5 12 -20q10 -14 18 -23q6 -7 8 -10l2 -3l8 8
q17 17 31 37q7 11 5 13q-6 7 -14 11.5t-13 6.5l-10 6q-4 4 0 9q3 3 26 -2q15 -3 30 0q9 2 21 4t21 4.5t18 3.5q6 2 13 3q4 2 9 3q6 1 7.5 -1t2.5 -4q0 -3 -4 -6.5t-25 -17.5z" />
    <glyph glyph-name="divide" unicode="&#xf7;" horiz-adv-x="374" 
d="M142 464q-5 9 -5.5 26t2.5 26q7 19 17 35q3 4 8 6q3 2 6 5q2 2 11 2q23 0 34 -7q13 -8 19 -22l4 -7v-21q0 -36 -5 -49q-2 -6 -9.5 -15t-12.5 -11q-9 -5 -26 -2q-18 2 -30 15q-8 8 -13 19zM336 430q4 -6 -7 -12q-12 -7 -21 -24q-10 -20 0 -48q3 -10 0 -12q-5 -5 -10 0
q-5 3 -11 6q-12 5 -19 8q-17 7 -36 12q-39 11 -79 12q-26 1 -40 -2q-31 -5 -60 -20q-10 -5 -13 -3q-8 4 2 16q13 14 13 31q0 11 -2 17q-7 14 4 14q7 1 24 -5q34 -11 91 -11q24 0 32 1t26 4q43 6 85 16q19 5 21 0zM205 347q11 -2 21 -19q7 -10 8.5 -17t1.5 -28
q0 -24 -1.5 -32t-10.5 -21q-15 -23 -23 -27q-3 -2 -13 -2t-14 2q-15 5 -27 16q-9 8 -13 19l-7 12v22q0 22 2 32q8 33 26 41q6 2 12 2q5 0 10 1q0 1 11 0.5t17 -1.5z" />
    <glyph glyph-name="mugreek" unicode="&#x3bc;" horiz-adv-x="557" 
d="M546 4q4 -3 2 -7q-1 -3 -4 -4l-6 -3q-8 -3 -16 0q-24 5 -47 5q-18 0 -50.5 -6.5t-55.5 -14.5q-25 -9 -32 -7q-6 1 -7 9.5t3 16.5q8 14 10 30l1 7l-3 -3q-3 -5 -11 -14q-6 -8 -16 -13q-54 -24 -64 -24q-32 0 -63 3q-21 6 -39 19q-9 7 -10 4q-11 -26 -29 -35q-8 -4 -14 -10
q-14 -12 -22 -5q-4 3 1 11q4 7 7 14q5 13 11 24q10 18 15 37q6 22 4 32q-2 12 -2 25q1 11 -1 21q-1 7 -4 44q-5 77 -15 138q-8 52 -12.5 67t-15.5 30q-8 12 -23.5 23.5t-24.5 13.5q-3 0 -6.5 4t-3.5 6q1 2 3 4q7 6 22 -1q7 -3 13 -4q20 -8 38 -18q15 -9 31 -12q14 -4 27 -5
q11 -1 20 -3q34 -6 69 -6q23 0 28 -1t5 -6q0 -4 -10 -12q-7 -6 -11 -11.5t-7.5 -14.5t-8.5 -25q-10 -34 -12 -70q0 -12 0.5 -41.5t2 -57.5t2.5 -36q7 -41 11.5 -51.5t15.5 -15.5q6 -3 16 -9q12 -8 24 -3q6 2 13 12q7 8 11 17q4 7 9 13q4 5 7 10q3 4 6 7t5 8q7 13 17 25
q2 2 4.5 20.5t2.5 31.5q0 12 2 23q3 14 2 50l-1 36l-6 22q-3 12 -7 24q-10 15 -52 28q-15 4 -17 8t0 7t19 4q15 2 30 6q14 4 29 4q16 1 28 6q11 5 23 5q15 2 29 5q17 5 24 6q8 1 28 9q7 2 13 3q7 1 9 -2q3 -4 2 -6t-6 -8q-13 -14 -24 -44q-6 -17 -8.5 -32t-3.5 -42.5
t-2 -99.5q-2 -112 1 -129q3 -14 24 -33q14 -13 24 -17q21 -9 29 -16z" />
    <glyph glyph-name="perthousand" unicode="&#x2030;" horiz-adv-x="1016" 
d="M148 328l-12 4q-9 3 -19 5q-20 4 -33 20q-34 41 -41 103q-2 45 0 90q6 42 19 83q13 45 13 50q0 4 7 11q4 5 9 8q7 3 14 8q11 6 17.5 8t28.5 5q19 3 48 -2q27 -5 53 -30q20 -20 24 -31q2 -6 5 -11q4 -5 5 -19q0 -12 3 -23q4 -14 1 -67.5t-9 -83.5q-3 -14 -5.5 -21.5
t-7 -16.5t-15.5 -27q-15 -26 -30 -34q-5 -3 -8 -7q-3 -5 -9 -8q-5 -4 -12 -8q-6 -4 -12 -6q-17 -2 -34 0zM126 470q1 -32 8 -64q3 -13 17 -26q10 -10 13.5 -10t16.5 8q10 7 13.5 11.5t7.5 15.5q9 25 9 120q0 63 -1.5 73.5t-2.5 25.5q-2 21 -10 41q-2 6 -13 11t-23 6l-12 1
l-3 -8q-9 -23 -14 -48q-2 -11 -6 -22q-11 -33 -2 -104q2 -15 2 -31zM689 288q0 -11 3 -23q4 -13 1.5 -66.5t-9.5 -84.5q-3 -14 -5.5 -21.5t-7 -16.5t-14.5 -27q-15 -26 -31 -34q-4 -3 -8 -7q-3 -5 -8 -8q-7 -4 -13 -8q-6 -3 -12 -5q-17 -3 -34 0q-6 1 -12 3q-9 4 -19 6
q-20 3 -33 19q-34 42 -40 103q-3 45 0 90q5 42 18 83q14 45 13 50q0 4 7 12q4 4 9 7q8 3 15 8q10 7 16.5 8.5t29.5 5.5q18 2 47 -3q28 -4 53 -30q20 -20 24 -31q2 -6 5 -11q4 -5 5 -19zM605 63q10 25 10 120q0 63 -1.5 74t-3.5 26q-2 21 -10 40q-2 7 -13 11q-10 6 -22 6
l-13 1l-3 -8q-9 -23 -14 -48q-2 -11 -6 -21q-11 -33 -2 -105q2 -15 2 -31q1 -32 8 -64q4 -12 18 -26q9 -9 12.5 -9.5t16.5 8.5q10 6 13.5 10.5t7.5 15.5zM972 261q4 -14 1.5 -67.5t-9.5 -83.5q-4 -20 -8 -30t-19 -35.5t-30 -33.5q-5 -3 -8 -8q-4 -4 -9 -8q-6 -3 -13 -7
q-5 -4 -12 -6q-17 -2 -34 0q-6 2 -11 4q-10 3 -19 5q-21 4 -34 20q-34 41 -40 103q-3 45 0 89q5 43 18 83q14 46 14 50q-1 5 6 12q4 5 9 7q8 4 15 9q10 6 16.5 8t29.5 5q18 3 48 -2q27 -5 52 -30q20 -20 24 -32q2 -5 6 -10q3 -5 4 -20q1 -11 3 -22zM886 58q9 25 9 120
q0 64 -1.5 74.5t-3.5 25.5q-2 21 -10 41q-2 6 -12 11q-11 5 -23 6h-12l-4 -7q-9 -23 -14 -48q-2 -11 -6 -22q-11 -33 -2 -104q2 -16 2 -31q2 -33 9 -65q3 -12 17 -26q9 -9 12.5 -9t16.5 8q11 7 14.5 11t7.5 15zM472.5 572q-6.5 -15 -14.5 -40q-8 -24 -19 -52t-14 -38
q-17 -46 -20 -49q-1 -2 -2 -3q0 -1 -11 -27q-8 -19 -15 -39q-11 -35 -29 -68q-17 -33 -29 -68q-6 -18 -39 -103q-31 -78 -31 -89q0 -5 2.5 -7t11.5 -4q19 -5 22 -10q2 -4 -1 -7q-3 -5 -23 -6q-14 0 -33 -2t-25 -1q-12 2 -25 2q-18 0 -26.5 -3t-11.5 -9t-8 -7q-4 0 -7 1
q-3 2 -4 4q-1 4 4 12q6 11 30 28q11 7 31 37q7 12 22.5 40.5t19.5 37.5q3 8 11 29q3 6 25 62q16 40 26.5 63.5t19 48t10.5 29.5q12 23 31 75q4 13 10 25q5 13 10 27q26 64 48 111q12 25 14 35q3 12 8 24q12 31 11 59q0 18 -6 28q-8 13 -3 19q2 2 27 2q26 0 38.5 3.5
t46.5 19.5q13 7 25 15l18 10q9 2 13 -6q1 -5 -11 -16q-13 -13 -29 -24q-35 -26 -49 -53q-6 -12 -10 -24q-8 -22 -19 -43l-8 -20q-6 -14 -12.5 -29z" />
    <glyph glyph-name="Euro" unicode="&#x20ac;" horiz-adv-x="509" 
d="M452 51q7 -38 7 -55q1 -12 -3 -14q-2 -2 -4 -3q-1 0 -3 1q-7 5 -11 11l-9 10l-11 1q-11 1 -18 -2q-5 -2 -10 -3q-7 -1 -12 -4q-14 -8 -62 -9q-50 -1 -70 8q-14 8 -28 17q-20 13 -36 31q-29 32 -39.5 47.5t-14.5 36.5q-3 15 -7 32q-8 28 -9 57q-1 13 -5 33t-5 22
l-4.5 -0.5t-10.5 -1.5t-12.5 -2.5t-11.5 -2.5q-13 -5 -17 -3q-4 3 -4 7.5t4 17.5q6 16 5 26t-4 14q-8 8 -2 14q5 5 18 -1q6 -3 21 -7t16 -3q1 0 0 28l-1 28l-6 -1q-11 -2 -20 -7q-19 -9 -24 -4q-2 3 1 18q5 26 2 35q-10 25 -1 29q6 2 11 1q8 -2 22 -3h14l1 7q1 8 1 16
q1 12 4 23q9 35 9 52q2 12 6 23q6 17 9 25q1 6 4 11q3 4 9 15t14 20q10 12 17 25q17 27 39 49q7 6 14 9q7 2 13 5q6 5 14 7q9 3 18 8q10 5 25 5t33 -6.5t29 -9.5q10 -3 18 -7q17 -11 33 -23q3 -3 7 -4l6 -3l11 10q6 6 11 12q0 2 3.5 5.5t5.5 3.5q4 0 6 -3q2 -2 2.5 -8.5
t-1.5 -9.5q-7 -7 -18 -46q-11 -40 -17 -68q-5 -23 -7 -32q-3 -12 -5 -24q-4 -36 -8 -42q-2 -3 -6 -3t-7 3t-4 48t-3 53q-6 25 -18 48q-11 21 -33 30q-11 6 -24 6q-11 1 -18.5 -2t-14.5 -10t-16.5 -22t-22.5 -57q-14 -46 -19 -94q-1 -18 -3 -37q-2 -11 -1 -21q14 -2 27 -1
q27 -1 43 3q17 3 26 6.5t14.5 7t8.5 10.5q7 15 16 9q3 -2 1 -20q-4 -34 2 -43q12 -16 4 -24q-3 -3 -6.5 -2.5t-17.5 4.5q-17 6 -51.5 8.5t-58.5 0.5l-12 -1v-34q0 -19 2 -37q1 -2 20 0t47 6.5t52 9.5q28 6 31 2q5 -5 -3 -24l-6 -15l1 -23q2 -23 -1 -26q-3 -2 -6 -2
q-4 0 -32 14q-9 5 -31.5 6t-40.5 3q-11 1 -22 0q-3 0 -3.5 -1.5t0.5 -9.5q1 -10 2.5 -17.5t3.5 -23.5q2 -17 16 -90q9 -43 22 -65q7 -9 16 -17q11 -12 22 -14q15 -3 27 1q26 10 33 27q4 10 10 19t14.5 26t8.5 20q5 23 11 45q4 11 8 26t9 28t8 24q5 17 12 17q6 0 7 -7
q2 -9 2 -98q0 -100 2 -114z" />
    <glyph glyph-name="trademark" unicode="&#x2122;" horiz-adv-x="494" 
d="M451 647q8 0 9 -9.5t-6 -11.5q-6 0 -13 1q-30 5 -52 -1q-26 -7 -26 6q0 4 7 9q9 6 16 13q9 8 11 19q2 14 3 28q1 17 2 27q1 7 3 37t1 31l-2 -3.5t-6 -9.5t-8 -13q-15 -27 -25 -42q-5 -8 -9 -16q0 -1 6 -1q13 0 17 -5q3 -6 -2 -11q-2 -2 -15 -3q-29 0 -40 -4q-5 -3 -9 0
q-4 2 -4 6q0 8 12 12q6 2 5 7q-1 6 -7.5 25.5t-10.5 28.5q-6 11 -9 19q-2 6 -5 11q-2 3 -2 -1q-1 -3 -1 -11q1 -13 -1 -26q-1 -8 -1 -46.5t2 -49.5l1 -8l9 -4q20 -10 20 -16q0 -3 -2 -5q-3 -3 -10 -2.5t-40 5.5q-17 2 -36 -8q-15 -8 -20.5 -2.5t8.5 18.5q13 13 19 30
q7 20 11 40q5 34 10 59q6 27 9 47q1 14 7 18q9 6 22 -6.5t36 -62.5q3 -7 8 -14q6 7 11 14q35 45 45 56q21 20 27 3q2 -4 2 -46q1 -47 2 -63.5t2 -25.5t5 -20q5 -15 7.5 -19t6.5 -4zM210 823q4 -3 3 -11q-1 -9 -9.5 -41t-10.5 -35q-2 -2 -6 -2t-6 3q-3 3 -2 16q1 14 2 32
l1 17l-6 2q-9 2 -18 2q-13 0 -15 1q-1 -1 -2 -4q0 -6 -2 -25q-5 -44 -6 -80q-1 -25 2 -30q6 -12 22 -25q13 -10 13 -14.5t-3.5 -6.5t-13 -0.5t-32.5 0.5q-40 -3 -55 -15q-10 -7 -15 -2t5 15q8 9 19 13q16 8 22 18.5t8 32.5q2 13 6 40q3 26 5 52q1 27 2 30t-2 3h-15
q-28 0 -41 -11l-7 -5l-1 -23q-1 -37 -3 -45.5t-8 -8.5q-3 0 -4.5 0.5t-2.5 2.5t-1.5 5t-0.5 9q-1 15 -3 35q-4 40 2 50q1 2 4 3q13 4 57 5q9 -1 19 1q1 1 40.5 2.5t47.5 -0.5q6 -2 11 -6z" />
    </font>
</defs>
</svg>
