<svg width="22" height="23" viewBox="0 0 22 23" fill="none" xmlns="http://www.w3.org/2000/svg">
<path id="Vector" d="M21.3421 21.0443C19.772 18.2215 17.3525 16.1974 14.5288 15.2379C15.9255 14.3733 17.0107 13.0557 17.6176 11.4876C18.2246 9.91953 18.3198 8.1876 17.8886 6.55779C17.4574 4.92799 16.5237 3.49043 15.2308 2.46589C13.9379 1.44135 12.3574 0.886475 10.7319 0.886475C9.10643 0.886475 7.52588 1.44135 6.233 2.46589C4.94012 3.49043 4.00639 4.92799 3.5752 6.55779C3.14402 8.1876 3.23921 9.91953 3.84618 11.4876C4.45314 13.0557 5.53831 14.3733 6.93503 15.2379C4.11134 16.1964 1.69178 18.2204 0.121686 21.0443C0.064108 21.1419 0.0259169 21.2505 0.00936609 21.3637C-0.00718474 21.477 -0.00176006 21.5925 0.02532 21.7035C0.0524002 21.8145 0.100587 21.9188 0.167038 22.0101C0.233489 22.1014 0.316857 22.178 0.412225 22.2353C0.507592 22.2926 0.613027 22.3294 0.722308 22.3436C0.831589 22.3579 0.942502 22.3492 1.0485 22.3181C1.15451 22.287 1.25345 22.2342 1.3395 22.1627C1.42555 22.0912 1.49695 22.0026 1.54951 21.9019C3.49176 18.4113 6.92472 16.3272 10.7319 16.3272C14.5391 16.3272 17.9721 18.4113 19.9143 21.9019C19.9669 22.0026 20.0383 22.0912 20.1243 22.1627C20.2104 22.2342 20.3093 22.287 20.4153 22.3181C20.5213 22.3492 20.6322 22.3579 20.7415 22.3436C20.8508 22.3294 20.9562 22.2926 21.0516 22.2353C21.147 22.178 21.2303 22.1014 21.2968 22.0101C21.3632 21.9188 21.4114 21.8145 21.4385 21.7035C21.4656 21.5925 21.471 21.477 21.4544 21.3637C21.4379 21.2505 21.3997 21.1419 21.3421 21.0443ZM4.95876 8.60827C4.95876 7.42088 5.29735 6.26015 5.93171 5.27287C6.56607 4.28558 7.46771 3.51609 8.52262 3.06169C9.57752 2.6073 10.7383 2.48841 11.8582 2.72006C12.9781 2.9517 14.0068 3.52349 14.8141 4.36311C15.6215 5.20272 16.1714 6.27246 16.3941 7.43704C16.6169 8.60162 16.5026 9.80873 16.0656 10.9057C15.6286 12.0028 14.8887 12.9404 13.9393 13.6001C12.9899 14.2597 11.8737 14.6119 10.7319 14.6119C9.20128 14.6101 7.7338 13.9771 6.65148 12.8516C5.56916 11.726 4.9604 10.2 4.95876 8.60827Z" fill="white"/>
</svg>
