<svg width="23" height="20" viewBox="0 0 23 20" fill="none" xmlns="http://www.w3.org/2000/svg">
<path id="Vector" d="M4.38902 1H19.0748C19.9736 1 20.8356 1.37689 21.4712 2.04777C22.1068 2.71864 22.4638 3.62854 22.4638 4.5773V15.3092C22.4638 16.258 22.1068 17.1679 21.4712 17.8387C20.8356 18.5096 19.9736 18.8865 19.0748 18.8865H4.38902C3.4902 18.8865 2.62819 18.5096 1.99262 17.8387C1.35706 17.1679 1 16.258 1 15.3092V4.5773C1 3.62854 1.35706 2.71864 1.99262 2.04777C2.62819 1.37689 3.4902 1 4.38902 1ZM4.38902 2.19243C3.82419 2.19243 3.32713 2.39515 2.94304 2.75288L11.7319 8.75082L20.5208 2.75288C20.1367 2.39515 19.6396 2.19243 19.0748 2.19243H4.38902ZM11.7319 10.1937L2.27653 3.71875C2.18616 3.98109 2.12967 4.27919 2.12967 4.5773V15.3092C2.12967 15.9417 2.36771 16.5483 2.79142 16.9956C3.21513 17.4428 3.78981 17.6941 4.38902 17.6941H19.0748C19.674 17.6941 20.2487 17.4428 20.6724 16.9956C21.0961 16.5483 21.3341 15.9417 21.3341 15.3092V4.5773C21.3341 4.27919 21.2777 3.98109 21.1873 3.71875L11.7319 10.1937Z" fill="white" stroke="white" stroke-width="0.35773"/>
</svg>
